<svg
  xmlns="http://www.w3.org/2000/svg"
  width="24"
  height="24"
  viewBox="0 0 24 24"
  fill="none"
  stroke="currentColor"
  stroke-width="2"
  stroke-linecap="round"
  stroke-linejoin="round"
>
  <path
    fill-rule="evenodd"
    d="M22.835 10.065a1 1 0 0 0-1.316.95v1.567H15v22.817h6.52v1.814a1 1 0 0 0 1.315.948l8.865-2.955a1 1 0 0 0 .684-.948V13.969a1 1 0 0 0-.684-.949zm3.03 13.324c0 .8-.324 1.449-.724 1.449s-.725-.649-.725-1.449.325-1.449.725-1.449.724.649.724 1.45m-4.346-8.807H17v18.817h4.52z"
    clip-rule="evenodd"
  />
  <path
    fill-rule="evenodd"
    d="M9 6a3 3 0 0 0-3 3v30a3 3 0 0 0 3 3h30a3 3 0 0 0 3-3V9a3 3 0 0 0-3-3zm31 3a1 1 0 0 0-1-1H9a1 1 0 0 0-1 1v30a1 1 0 0 0 1 1h30a1 1 0 0 0 1-1z"
    clip-rule="evenodd"
  />
</svg>
