<svg
  xmlns="http://www.w3.org/2000/svg"
  width="24"
  height="24"
  viewBox="0 0 24 24"
  fill="none"
  stroke="currentColor"
  stroke-width="2"
  stroke-linecap="round"
  stroke-linejoin="round"
>
  <path
    fill-rule="evenodd"
    d="m41.94 7.457-.987-.157-.259-.966 1.489-.4zm-13.22 13.83-.851.524-.002-.002-.003-.005-.01-.016-.034-.057q-.043-.073-.12-.207a21 21 0 0 1-.405-.743 20 20 0 0 1-1.074-2.435c-.338-.944-.628-2.025-.673-3.071-.044-1.042.15-2.173.926-3.06.697-.796 2.011-1.529 3.392-2.163 1.431-.659 3.115-1.291 4.71-1.838A104 104 0 0 1 40.56 6.37l.1-.028.035-.01.26.967.987.157-.006.037-.017.106a118 118 0 0 1-.314 1.838 142 142 0 0 1-.872 4.5c-.356 1.681-.77 3.443-1.209 4.918-.219.737-.449 1.418-.687 1.99-.228.55-.498 1.084-.826 1.46-.702.802-1.795 1.053-2.75 1.117-.996.067-2.1-.054-3.093-.23a27 27 0 0 1-2.628-.61 28 28 0 0 1-1.056-.32l-.063-.022-.017-.006-.005-.001h-.002zm0 0-.851.524.188.305.34.117zm.672-.833a27 27 0 0 0 3.121.77c.924.163 1.848.255 2.614.203.809-.054 1.215-.252 1.378-.438.104-.12.274-.404.484-.91.201-.483.409-1.092.617-1.793.417-1.4.818-3.103 1.17-4.762a139 139 0 0 0 .928-4.832l-.309.09c-1.109.327-2.607.788-4.17 1.324-1.566.537-3.179 1.144-4.524 1.763-1.396.642-2.338 1.225-2.722 1.664-.307.35-.465.889-.432 1.656.032.763.251 1.63.557 2.481.302.842.67 1.62.966 2.19.125.24.236.442.322.594M10.263 9.974l-.259.966-.988.157-.242-1.522zm9.682 12.333.851.523.002-.002.002-.004.008-.013.029-.048.1-.17c.083-.147.2-.356.332-.611.264-.51.601-1.218.883-2.002.278-.776.52-1.675.557-2.551.038-.873-.124-1.847-.798-2.617-.596-.682-1.699-1.29-2.819-1.806-1.171-.539-2.546-1.055-3.845-1.5a85 85 0 0 0-4.873-1.501l-.082-.023-.029-.008-.259.966-.988.157.005.03.014.087.054.326A117 117 0 0 0 10 16.374c.29 1.368.628 2.805.986 4.01.18.602.368 1.163.565 1.636.187.45.416.909.704 1.237.62.71 1.573.92 2.362.972.832.056 1.745-.045 2.56-.188a22 22 0 0 0 3.02-.764l.051-.017.015-.005.005-.002zm0 0 .851.523-.188.306-.34.117zm-.673-.834q.095-.17.222-.413c.238-.458.534-1.082.775-1.756.245-.682.417-1.367.442-1.96.026-.599-.1-.98-.305-1.216-.283-.322-1.013-.782-2.15-1.305-1.084-.499-2.388-.99-3.658-1.425a82 82 0 0 0-3.342-1.062l.004.025c.17.96.412 2.256.697 3.599.285 1.346.61 2.723.946 3.854.169.566.335 1.055.495 1.439.17.407.298.614.362.688.082.093.347.25.991.293.601.04 1.335-.032 2.079-.163a20 20 0 0 0 2.442-.599m-2.19 9.534c-.254.014-.378.05-.41.064-.453.205-1.829.685-3.017 1.09-.61.209-1.195.405-1.627.55l-.028.01v5.403c.176-.008.365-.015.558-.022.828-.03 1.813-.06 2.24-.042 1.792.071 3.138.495 4.384.888l.027.009c1.168.368 2.25.706 3.667.813.4.03.789.069 1.152.105h.005c1.394.14 2.312.21 3.023-.048.553-.201 2.578-1.14 4.62-2.167 1.01-.508 2-1.025 2.787-1.468.395-.222.73-.42.987-.586q.191-.124.308-.21l.09-.07.028-.024c.1-.101.206-.453.034-.784a.73.73 0 0 0-.377-.34c-.2-.087-.54-.154-1.08-.065-1.218.2-2.673.786-4.126 1.377l-.02.009c-.714.29-1.43.581-2.065.793-.61.203-1.287.385-1.877.35-.81-.05-2.231-.26-3.403-.45a135 135 0 0 1-2.018-.342l-.13-.023-.046-.009.19-1.984 4.57.055h.01a1 1 0 0 0 .158-.03c.158-.04.429-.139.77-.38.105-.075.243-.213.372-.398q.08-.116.136-.226a11 11 0 0 1-1.656-.234 13 13 0 0 1-.883-.225l-.034-.01-5.597-1.246-.053-.009-.21-.032c-.179-.026-.424-.057-.689-.077a6 6 0 0 0-.77-.015M19 30.16l.181-.983.018.003 5.718 1.272.042.013.008.003.038.011.158.045c.139.038.339.09.577.142.486.105 1.094.202 1.656.202.563 0 1.175.21 1.505.808.282.512.212 1.066.113 1.432a3.6 3.6 0 0 1-.407.918q.457-.18.966-.388l.062-.026c1.378-.56 3.03-1.232 4.493-1.473 1.7-.278 2.975.332 3.558 1.46.514.995.4 2.307-.385 3.105-.197.2-.49.403-.77.584-.304.195-.676.415-1.088.647-.825.464-1.846.997-2.87 1.512-2.022 1.017-4.152 2.012-4.836 2.26-1.186.43-2.558.293-3.777.171l-.127-.013a46 46 0 0 0-1.108-.1c-1.66-.126-2.932-.527-4.094-.893l-.025-.008c-1.25-.394-2.376-.745-3.888-.806-.332-.013-1.226.011-2.088.043a172 172 0 0 0-1.456.059l-.129.006-1.046.048v-8.936l.877-.291a281 281 0 0 0 2.132-.718c1.244-.425 2.498-.866 2.84-1.02.367-.166.784-.22 1.118-.24.355-.02.72-.005 1.039.019a13 13 0 0 1 1.146.143l.021.004h.006l.002.001h.002z"
    clip-rule="evenodd"
  />
  <path
    fill-rule="evenodd"
    d="M35.15 13.24a1 1 0 0 1 .11 1.41c-2.981 3.478-6.692 8.575-8.33 12.718a1 1 0 1 1-1.86-.736c1.763-4.459 5.651-9.76 8.67-13.283a1 1 0 0 1 1.41-.108"
    clip-rule="evenodd"
  />
  <path
    fill-rule="evenodd"
    d="M15.38 16.448a1 1 0 0 0-.165 1.405c2.242 2.845 4.69 6.486 5.852 9.506a1 1 0 0 0 1.866-.718c-1.271-3.304-3.868-7.135-6.148-10.026a1 1 0 0 0-1.404-.167"
    clip-rule="evenodd"
  />
  <path d="M6 29h6v13H6z" />
</svg>
