<svg
  xmlns="http://www.w3.org/2000/svg"
  width="24"
  height="24"
  viewBox="0 0 24 24"
  fill="none"
  stroke="currentColor"
  stroke-width="2"
  stroke-linecap="round"
  stroke-linejoin="round"
>
  <path
    fill-rule="evenodd"
    d="M24 6a1 1 0 0 1 .894.553l17 34A1 1 0 0 1 41 42H7a1 1 0 0 1-.894-1.447l17-34A1 1 0 0 1 24 6M8.618 40h30.764L24 9.236z"
    clip-rule="evenodd"
  />
  <path d="M22 20a2 2 0 1 1 4 0v10a2 2 0 1 1-4 0z" />
  <path d="M22 35.966C22 34.88 22.88 34 23.967 34h.067a1.966 1.966 0 1 1 0 3.933h-.067A1.966 1.966 0 0 1 22 35.966" />
</svg>
