<svg
  xmlns="http://www.w3.org/2000/svg"
  width="24"
  height="24"
  viewBox="0 0 24 24"
  fill="none"
  stroke="currentColor"
  stroke-width="2"
  stroke-linecap="round"
  stroke-linejoin="round"
>
  <path d="M20 12a4 4 0 1 0 0-8 4 4 0 0 0 0 8" />
  <path d="M33 10a1 1 0 1 0-2 0v2.303l1.168 1.752a1 1 0 0 0 1.664-1.11L33 11.697z" />
  <path
    fill-rule="evenodd"
    d="M32 18a6 6 0 1 0 0-12 6 6 0 0 0 0 12m0-2a4 4 0 1 0 0-8 4 4 0 0 0 0 8"
    clip-rule="evenodd"
  />
  <path
    fill-rule="evenodd"
    d="M15.75 27.062c.404.323.895.464 1.373.434.011 1.32-.037 2.685-.09 4.178-.092 2.584-.197 5.55-.033 9.326v1a2 2 0 1 0 4 0v-1l1.462-7.692c.2-.061.448-.143.73-.25.677-.256 1.603-.675 2.484-1.315.877-.638 1.816-1.574 2.329-2.893.533-1.372.517-2.93-.148-4.593-1.148-2.869-3.243-5.346-4.943-7.046a33 33 0 0 0-2.248-2.048 26 26 0 0 0-.905-.718l-.058-.043-.017-.013-.006-.004-.004-.002-.143.196v-.001l.002-.001.141-.194A2 2 0 0 0 18.5 14h-2c-.763 0-1.372.332-1.732.572-.395.263-.75.592-1.05.906-.603.632-1.19 1.424-1.682 2.145a37 37 0 0 0-1.75 2.845l-.029.053-.008.014-.004.007a2 2 0 0 0 .507 2.52zm.968-4.35L14.6 21.02c.222-.36.474-.752.74-1.142q.241-.355.48-.676c.41 1.241.698 2.396.898 3.512"
    clip-rule="evenodd"
  />
</svg>
