<svg
  xmlns="http://www.w3.org/2000/svg"
  width="24"
  height="24"
  viewBox="0 0 24 24"
  fill="none"
  stroke="currentColor"
  stroke-width="2"
  stroke-linecap="round"
  stroke-linejoin="round"
>
  <path
    fill-rule="evenodd"
    d="M20.208 13c-4.646 0-7.192.935-8.807 2.274-1.352-.426-2.551-.346-4.401.175 1.252.907 1.936 1.553 2.402 2.288-.233.4-.448.806-.663 1.211C7.738 20.84 6.747 22.711 4 23.762v3.32c1.98 1.96 5.972 3.312 9.108 2.87 1.628 3.824 6.97 3.165 11.099 2.656l.77-.094c-.689-.948-1.04-2.149-.968-3.565a1 1 0 0 1 1.998.102c-.072 1.4.425 2.323 1.226 2.933.76.578 1.88.935 3.266 1.004C35.79 32.728 40 28.356 40 23c0-5.198-3.966-9.47-9.036-9.954V13zM13 21a1 1 0 1 0 0-2 1 1 0 0 0 0 2"
    clip-rule="evenodd"
  />
  <path
    fill-rule="evenodd"
    d="M41.126 11.046c.548.5.874 1.22.874 2.079 0 .303-.044.594-.12.869.346-.012.698-.024 1.008-.024a1 1 0 0 1 0 2c-.32 0-.642.012-.99.025-.234.008-.48.017-.747.023q-.248.006-.506.006c-.331.348-.69.657-1.033.923a13.4 13.4 0 0 1-2.123 1.333l-.04.02-.012.006-.004.002h-.002L37 17.406l-.43-.903.004-.002.026-.013q.038-.018.111-.056a11.83 11.83 0 0 0 1.35-.825 2.9 2.9 0 0 1-.673-.422c-.587-.5-.888-1.209-.888-2.06 0-.861.324-1.584.875-2.084a2.78 2.78 0 0 1 1.877-.704 2.8 2.8 0 0 1 1.874.71m-1.408 2.935c.195-.32.282-.605.282-.856 0-.329-.112-.501-.22-.599a.8.8 0 0 0-.532-.19.79.79 0 0 0-.53.186c-.105.095-.218.267-.218.603 0 .345.101.466.184.536.129.11.384.226.843.295q.093.015.191.025"
    clip-rule="evenodd"
  />
  <path d="M16 30h3v8h-3z" />
  <path d="M15 37a1 1 0 0 1 1-1v2h-1z" />
  <path d="M31 30h3v8h-3z" />
  <path d="M30 37a1 1 0 0 1 1-1v2h-1z" />
</svg>
