<svg
  xmlns="http://www.w3.org/2000/svg"
  width="24"
  height="24"
  viewBox="0 0 24 24"
  fill="none"
  stroke="currentColor"
  stroke-width="2"
  stroke-linecap="round"
  stroke-linejoin="round"
>
  <path
    fill-rule="evenodd"
    d="M20.572 10.283a1 1 0 0 0-1.414.02l-3 3.086a1 1 0 0 0-.074 1.309c.744.962 1.463 1.674 2.374 2.175.616.338 1.283.56 2.04.718-.405.452-.792.97-1.155 1.536l-2.991-1.137-1.183-2.756a1 1 0 1 0-1.838.789l1.35 3.145a1 1 0 0 0 .564.54l3.12 1.187c-.302.63-.575 1.294-.813 1.979l-2.798-1.064-1.922-2.88a1 1 0 1 0-1.664 1.111l2.1 3.145a1 1 0 0 0 .477.38l3.244 1.233q-.086.36-.157.719l-.121.048a11.912 11.912 0 0 0-1.873.964c-.513.327-1.072.75-1.513 1.267-.439.515-.825 1.2-.825 2.026 0 1.204.438 2.53.823 3.48a18 18 0 0 0 .781 1.671l.015.028.005.008.002.004a1 1 0 0 0 1.749-.97l-.003-.005-.01-.018-.042-.079a16.197 16.197 0 0 1-.643-1.39c-.365-.9-.677-1.928-.677-2.73 0-.177.083-.417.347-.727.262-.307.64-.607 1.066-.878.207-.133.416-.252.614-.357q-.027.445-.027.883C16.5 34.708 20.272 38 24 38s7.5-3.292 7.5-9.257q0-.438-.026-.883c.197.105.406.224.613.357.425.27.804.57 1.066.878.264.31.347.55.347.728 0 .8-.312 1.828-.677 2.73a16 16 0 0 1-.643 1.389l-.007.013-.035.066-.01.018-.002.004a1 1 0 1 0 1.749.97l.002-.003.004-.008.015-.028.053-.099a18.149 18.149 0 0 0 .728-1.572c.385-.95.823-2.275.823-3.48 0-.825-.386-1.51-.825-2.026-.44-.516-1-.94-1.512-1.267a12 12 0 0 0-1.995-1.012q-.071-.36-.157-.719l3.245-1.234a1 1 0 0 0 .476-.379l2.1-3.145a1 1 0 0 0-1.663-1.11l-1.923 2.879-2.798 1.064a19 19 0 0 0-.812-1.98l3.12-1.186a1 1 0 0 0 .563-.54l1.35-3.145a1 1 0 1 0-1.838-.789l-1.183 2.756-2.99 1.137-.069-.105a12 12 0 0 0-1.087-1.431c.758-.159 1.424-.38 2.04-.718.911-.501 1.63-1.213 2.374-2.176a1 1 0 0 0-.074-1.308l-3-3.086a1 1 0 0 0-1.434 1.394l2.373 2.44c-.418.456-.796.76-1.202.983-.57.314-1.275.513-2.374.663-.208-1.409-1.116-2.469-2.205-2.469s-1.996 1.06-2.205 2.469c-1.099-.15-1.803-.35-2.374-.663-.406-.223-.784-.527-1.201-.983l2.372-2.44a1 1 0 0 0-.02-1.414M33 34.529c.874.485.875.484.875.484zm-18 0-.874.484z"
    clip-rule="evenodd"
  />
</svg>
