<svg
  xmlns="http://www.w3.org/2000/svg"
  width="24"
  height="24"
  viewBox="0 0 24 24"
  fill="none"
  stroke="currentColor"
  stroke-width="2"
  stroke-linecap="round"
  stroke-linejoin="round"
>
  <path d="M4 37V27h12.523c.98 0 1.958.12 2.91.358L22 28l.156-.25a12 12 0 0 1 6.562-5.082L34 21v-2.097a4 4 0 0 1 .877-2.499L38 12.5l.367.303a2 2 0 0 1 .345 2.719L38 16.5l2-1.5.928-1.857a2 2 0 0 1 2.99-.705L44 12.5l-1 7-5 3-5.047 6.128a12 12 0 0 1-4.806 3.513L26 33l-.828.828A4 4 0 0 1 22.343 35H21l-4.153 1.384a12 12 0 0 1-3.794.616z" />
</svg>
