<svg
  xmlns="http://www.w3.org/2000/svg"
  width="24"
  height="24"
  viewBox="0 0 24 24"
  fill="none"
  stroke="currentColor"
  stroke-width="2"
  stroke-linecap="round"
  stroke-linejoin="round"
>
  <path
    fill-rule="evenodd"
    d="M15.865 6.134a1 1 0 0 1 .466.607l1.075 4.012.771-.351a1 1 0 0 1 1.38.651L23.83 27H30a1 1 0 0 1 1 1v12a1 1 0 0 1-1 1H17.051a5 5 0 0 1-4.822-3.678L6.553 16.614a1 1 0 0 1 .55-1.174l1.075-.49-1.506-5.62a1 1 0 0 1 .707-1.225l7.727-2.07a1 1 0 0 1 .76.099m-5.841 7.977L8.863 9.778l5.795-1.553.902 3.367z"
    clip-rule="evenodd"
  />
  <path d="M33 29h2v10h-2z" />
  <path d="M38 33a1 1 0 1 0 0-2 1 1 0 0 0 0 2" />
  <path d="M39 36a1 1 0 1 1-2 0 1 1 0 0 1 2 0" />
  <path d="M42 35a1 1 0 1 0 0-2 1 1 0 0 0 0 2" />
  <path d="M43 30a1 1 0 1 1-2 0 1 1 0 0 1 2 0" />
  <path d="M42 39a1 1 0 1 0 0-2 1 1 0 0 0 0 2" />
</svg>
