<svg
  xmlns="http://www.w3.org/2000/svg"
  width="24"
  height="24"
  viewBox="0 0 24 24"
  fill="none"
  stroke="currentColor"
  stroke-width="2"
  stroke-linecap="round"
  stroke-linejoin="round"
>
  <path
    fill-rule="evenodd"
    d="M16.331 6.741a1 1 0 0 0-1.225-.707L7.38 8.104a1 1 0 0 0-.707 1.225l1.506 5.622-1.074.489a1 1 0 0 0-.55 1.174l5.675 20.708A5 5 0 0 0 17.051 41H30a1 1 0 0 0 1-1v-1h3a1 1 0 0 0 1-1v-8a1 1 0 0 0-1-1h-3v-1a1 1 0 0 0-1-1h-6.17l-4.273-15.947a1 1 0 0 0-1.38-.651l-.771.35zM8.707 16.907l9.224-4.196 4.166 15.548a1 1 0 0 0 .966.741H29v10H17.051a3 3 0 0 1-2.893-2.207zm6.853-5.315-5.536 2.52-1.161-4.334 5.795-1.553zM31 37v-6h2v6z"
    clip-rule="evenodd"
  />
  <path d="M42 31a1 1 0 1 0 0-2 1 1 0 0 0 0 2" />
  <path d="M38 33a1 1 0 1 0 0-2 1 1 0 0 0 0 2" />
  <path d="M38 37a1 1 0 1 0 0-2 1 1 0 0 0 0 2" />
  <path d="M43 34a1 1 0 1 1-2 0 1 1 0 0 1 2 0" />
  <path d="M43 38a1 1 0 1 1-2 0 1 1 0 0 1 2 0" />
</svg>
