<svg
  xmlns="http://www.w3.org/2000/svg"
  width="24"
  height="24"
  viewBox="0 0 24 24"
  fill="none"
  stroke="currentColor"
  stroke-width="2"
  stroke-linecap="round"
  stroke-linejoin="round"
>
  <path d="M24 18a6 6 0 1 0 0-12 6 6 0 0 0 0 12" />
  <path
    fill-rule="evenodd"
    d="M15 16.447V34.04C15 37.452 17.813 42 24 42c6.188 0 9-3.98 9-7.959v-.855c-1.444-3.67-4.435-7.343-8.014-10.434a41 41 0 0 0-6.371-4.522 31 31 0 0 1-.568-.317A31 31 0 0 0 15 16.447m10.032 3.744q.64.51 1.261 1.048c2.6 2.245 4.969 4.839 6.707 7.592V17c-3.042 2.178-5.51 3.186-7.968 3.191"
    clip-rule="evenodd"
  />
</svg>
