<svg
  xmlns="http://www.w3.org/2000/svg"
  width="24"
  height="24"
  viewBox="0 0 24 24"
  fill="none"
  stroke="currentColor"
  stroke-width="2"
  stroke-linecap="round"
  stroke-linejoin="round"
>
  <path
    fill-rule="evenodd"
    d="M17.8 32.6a3 3 0 0 1 .6 4.2l-3 4A3 3 0 0 1 13 42H9a3 3 0 1 1 0-6h2.5l2.1-2.8a3 3 0 0 1 4.2-.6"
    clip-rule="evenodd"
  />
  <path
    fill-rule="evenodd"
    d="M27.235 29h-2.058l.812 13h.826q.621-.001 1.224-.146zm2.751 11.952A6 6 0 0 0 31 40.024l.57-.655c.224.249.442.598.67.961.502.802 1.045 1.67 1.78 1.67h5.589c.67 0 1.178-.295 1.652-.821s.74-1.239.74-1.982c0-.744-.266-1.457-.74-1.982-.474-.526-1.116-.822-1.786-.822H36.27l-.57-.262c-.428-.476-.935-1.116-1.486-1.813-1.328-1.68-2.92-3.69-4.319-4.546a5 5 0 0 0-.628-.33zM21.5 29h1.673l.812 13h-1.9z"
    clip-rule="evenodd"
  />
  <path d="M40 21.5a6.5 6.5 0 1 1-13 0 6.5 6.5 0 0 1 13 0" />
  <path
    fill-rule="evenodd"
    d="M33.5 26a4.5 4.5 0 1 0 0-9 4.5 4.5 0 0 0 0 9m0 2a6.5 6.5 0 1 0 0-13 6.5 6.5 0 0 0 0 13"
    clip-rule="evenodd"
  />
  <path
    fill-rule="evenodd"
    d="M12 16a4 4 0 1 0 0-8 4 4 0 0 0 0 8m6-4a6 6 0 0 1-5 5.917V20h2a1 1 0 1 1 0 2h-2v3a1 1 0 1 1-2 0v-3H9a1 1 0 1 1 0-2h2v-2.083A6.002 6.002 0 0 1 12 6a6 6 0 0 1 6 6"
    clip-rule="evenodd"
  />
</svg>
