<svg
  xmlns="http://www.w3.org/2000/svg"
  width="24"
  height="24"
  viewBox="0 0 24 24"
  fill="none"
  stroke="currentColor"
  stroke-width="2"
  stroke-linecap="round"
  stroke-linejoin="round"
>
  <path d="m11.683 4 7 5h18.914l-.042-.03-7.106-4.674A1.78 1.78 0 0 0 29.473 4z" />
  <path d="M10 5.202V9.14c0 .374.098.742.284 1.06l3.13 5.365c.295.507.938.624 1.374.25l1.978-1.695c.443-.38.7-.954.7-1.562v-2.023z" />
  <path d="M10 13.487v24.69c0 .348.168.67.445.853l2.355 1.549V17.63a2.9 2.9 0 0 1-.97-1.006z" />
  <path d="m14.667 41.807 2.8 1.842V16.081l-1.513 1.296a2.7 2.7 0 0 1-1.287.617z" />
  <path d="M24.933 22c0-.552.418-1 .934-1h5.6c.515 0 .933.448.933 1s-.418 1-.933 1h-5.6c-.516 0-.934-.448-.934-1" />
  <path d="M26.8 25c0-.552.418-1 .933-1H29.6c.515 0 .933.448.933 1s-.418 1-.933 1h-1.867c-.515 0-.933-.448-.933-1" />
  <path
    fill-rule="evenodd"
    d="M19.333 44h17.734c.515 0 .933-.448.933-1V11H19.333zm9.334-14c3.608 0 6.533-3.134 6.533-7s-2.925-7-6.533-7-6.534 3.134-6.534 7 2.925 7 6.534 7"
    clip-rule="evenodd"
  />
</svg>
