<svg
  xmlns="http://www.w3.org/2000/svg"
  width="24"
  height="24"
  viewBox="0 0 24 24"
  fill="none"
  stroke="currentColor"
  stroke-width="2"
  stroke-linecap="round"
  stroke-linejoin="round"
>
  <path
    fill-rule="evenodd"
    d="M38.85 9.15a8 8 0 0 0-11.315 0L9.151 27.537a8 8 0 1 0 11.314 11.313l18.384-18.384a8 8 0 0 0 0-11.314m-12.022 7.778a2 2 0 0 0-2.828 0L16.929 24a2 2 0 0 0 0 2.828l4.243 4.243a2 2 0 0 0 2.828 0L31.07 24a2 2 0 0 0 0-2.829zm-1.414 1.415 4.243 4.242-7.071 7.071-4.243-4.242zm7.707-2.222a1 1 0 1 1-1.414-1.414 1 1 0 0 1 1.414 1.414m-.414-4a1 1 0 1 0 1.414-1.414 1 1 0 0 0-1.414 1.414m-2.586 1a1 1 0 1 1-1.414-1.414 1 1 0 0 1 1.414 1.414m4.586 6a1 1 0 1 0 1.414-1.414 1 1 0 0 0-1.414 1.414m2.414-4a1 1 0 1 1-1.414-1.414 1 1 0 0 1 1.414 1.414m-21 16.586a1 1 0 1 0-1.414 1.414 1 1 0 0 0 1.414-1.414m-1 4a1 1 0 1 1-1.413 1.414 1 1 0 0 1 1.413-1.414m4-1a1 1 0 1 0-1.414 1.414 1 1 0 0 0 1.414-1.414m-7.414-6a1 1 0 1 1 1.414 1.414 1 1 0 0 1-1.414-1.414m.414 4a1 1 0 1 0-1.414 1.414 1 1 0 0 0 1.414-1.414"
    clip-rule="evenodd"
  />
</svg>
