<svg
  xmlns="http://www.w3.org/2000/svg"
  width="24"
  height="24"
  viewBox="0 0 24 24"
  fill="none"
  stroke="currentColor"
  stroke-width="2"
  stroke-linecap="round"
  stroke-linejoin="round"
>
  <path
    fill-rule="evenodd"
    d="M16 4a4 4 0 0 0-4 4v32a4 4 0 0 0 4 4h8.585a.6.6 0 0 1-.585-.597c0-.33.269-.597.6-.597s.6.267.6.597c0 .325-.26.59-.585.597H32a4 4 0 0 0 4-4V8a4 4 0 0 0-4-4H16m8.6 0c.331 0 .6.267.6.597s-.269.597-.6.597a.6.6 0 0 1-.6-.597c0-.33.269-.597.6-.597m0 35.821c.331 0 .6.268.6.597 0 .33-.269.597-.6.597a.6.6 0 0 1-.6-.597c0-.33.269-.597.6-.597m.6-2.388a.6.6 0 0 0-.6-.597c-.331 0-.6.267-.6.597s.269.597.6.597.6-.267.6-.597m-.6-3.582c.331 0 .6.267.6.597s-.269.597-.6.597a.6.6 0 0 1-.6-.597c0-.33.269-.597.6-.597m.6-2.388a.6.6 0 0 0-.6-.597c-.331 0-.6.267-.6.597s.269.597.6.597.6-.268.6-.597m-.6-3.582c.331 0 .6.267.6.597s-.269.597-.6.597a.6.6 0 0 1-.6-.597c0-.33.269-.597.6-.597m.6-2.389a.6.6 0 0 0-.6-.597.598.598 0 1 0 0 1.194c.331 0 .6-.267.6-.596m-.6-3.581c.331 0 .6.267.6.597s-.269.597-.6.597a.6.6 0 0 1-.6-.597c0-.33.269-.597.6-.597m.6-2.389a.6.6 0 0 0-.6-.597c-.331 0-.6.268-.6.597 0 .33.269.597.6.597s.6-.267.6-.597m-.6-3.582c.331 0 .6.268.6.597 0 .33-.269.598-.6.598a.6.6 0 0 1-.6-.598c0-.33.269-.597.6-.597m.6-2.387a.6.6 0 0 0-.6-.597c-.331 0-.6.267-.6.597s.269.597.6.597.6-.268.6-.597m-.6-3.583c.331 0 .6.268.6.597 0 .33-.269.597-.6.597a.6.6 0 0 1-.6-.597c0-.33.269-.597.6-.597m.6-2.388a.6.6 0 0 0-.6-.597c-.331 0-.6.268-.6.597 0 .33.269.597.6.597s.6-.267.6-.597m-6.7 2.587c.828 0 1.5-.668 1.5-1.492 0-.825-.672-1.493-1.5-1.493S17 7.852 17 8.677c0 .824.672 1.492 1.5 1.492m1.5 3.483c0 .824-.672 1.492-1.5 1.492s-1.5-.668-1.5-1.492c0-.825.672-1.493 1.5-1.493s1.5.668 1.5 1.493m-1.5 6.467c.828 0 1.5-.668 1.5-1.492s-.672-1.493-1.5-1.493-1.5.669-1.5 1.493.672 1.492 1.5 1.492m1.5 3.483c0 .824-.672 1.493-1.5 1.493s-1.5-.669-1.5-1.493.672-1.492 1.5-1.492 1.5.668 1.5 1.492m-1.5 6.468c.828 0 1.5-.669 1.5-1.493s-.672-1.492-1.5-1.492-1.5.668-1.5 1.492.672 1.493 1.5 1.493m1.5 3.482c0 .825-.672 1.493-1.5 1.493s-1.5-.668-1.5-1.493c0-.824.672-1.492 1.5-1.492s1.5.668 1.5 1.492m-1.5 6.468c.828 0 1.5-.668 1.5-1.493 0-.824-.672-1.492-1.5-1.492s-1.5.668-1.5 1.492c0 .825.672 1.493 1.5 1.493M32 8.677c0 .824-.672 1.492-1.5 1.492S29 9.501 29 8.677c0-.825.672-1.493 1.5-1.493s1.5.668 1.5 1.493m-1.5 6.467c.828 0 1.5-.668 1.5-1.492 0-.825-.672-1.493-1.5-1.493s-1.5.668-1.5 1.493c0 .824.672 1.492 1.5 1.492m1.5 3.483c0 .824-.672 1.492-1.5 1.492s-1.5-.668-1.5-1.492.672-1.493 1.5-1.493 1.5.669 1.5 1.493m-1.5 6.468c.828 0 1.5-.669 1.5-1.493s-.672-1.492-1.5-1.492-1.5.668-1.5 1.492.672 1.493 1.5 1.493m1.5 3.482c0 .824-.672 1.493-1.5 1.493S29 29.4 29 28.577s.672-1.492 1.5-1.492 1.5.668 1.5 1.492m-1.5 6.468c.828 0 1.5-.668 1.5-1.493 0-.824-.672-1.492-1.5-1.492s-1.5.668-1.5 1.492c0 .825.672 1.493 1.5 1.493m1.5 3.482c0 .825-.672 1.493-1.5 1.493s-1.5-.668-1.5-1.493c0-.824.672-1.492 1.5-1.492s1.5.668 1.5 1.492"
    clip-rule="evenodd"
  />
</svg>
