<svg
  xmlns="http://www.w3.org/2000/svg"
  width="24"
  height="24"
  viewBox="0 0 24 24"
  fill="none"
  stroke="currentColor"
  stroke-width="2"
  stroke-linecap="round"
  stroke-linejoin="round"
>
  <path d="M25.2 40.418a.6.6 0 0 0-.6-.597c-.331 0-.6.267-.6.597s.269.597.6.597.6-.267.6-.597" />
  <path d="M24.6 36.836c.331 0 .6.267.6.597s-.269.597-.6.597a.6.6 0 0 1-.6-.597c0-.33.269-.597.6-.597" />
  <path d="M25.2 34.448a.6.6 0 0 0-.6-.597c-.331 0-.6.267-.6.597s.269.597.6.597.6-.267.6-.597" />
  <path d="M24.6 30.866c.331 0 .6.267.6.597s-.269.597-.6.597a.6.6 0 0 1-.6-.597c0-.33.269-.597.6-.597" />
  <path d="M25.2 28.478a.6.6 0 0 0-.6-.597c-.331 0-.6.267-.6.597s.269.597.6.597.6-.268.6-.597" />
  <path d="M24.6 24.896c.331 0 .6.267.6.597s-.269.597-.6.597a.6.6 0 0 1-.6-.597c0-.33.269-.598.6-.598" />
  <path d="M25.2 22.508a.6.6 0 0 0-.6-.598.598.598 0 1 0 0 1.194c.331 0 .6-.267.6-.596" />
  <path d="M24.6 18.925c.331 0 .6.268.6.597 0 .33-.269.597-.6.597a.6.6 0 0 1-.6-.597c0-.33.269-.597.6-.597" />
  <path d="M25.2 16.537a.6.6 0 0 0-.6-.597c-.331 0-.6.268-.6.597 0 .33.269.597.6.597s.6-.267.6-.597" />
  <path d="M24.6 12.955c.331 0 .6.268.6.597 0 .33-.269.597-.6.597a.6.6 0 0 1-.6-.597c0-.33.269-.597.6-.597" />
  <path d="M25.2 10.567a.6.6 0 0 0-.6-.597c-.331 0-.6.267-.6.597s.269.597.6.597.6-.267.6-.597" />
  <path d="M24.6 6.985c.331 0 .6.267.6.597s-.269.597-.6.597a.6.6 0 0 1-.6-.597c0-.33.269-.597.6-.597" />
  <path d="M18.84 7.836a1.182 1.182 0 1 1 1.672 1.671l-1.671 1.672a1.182 1.182 0 0 1-1.672-1.672z" />
  <path d="M20.512 12.67a1.18 1.18 0 0 0-1.671 0l-1.672 1.67a1.182 1.182 0 1 0 1.672 1.672l1.671-1.671a1.18 1.18 0 0 0 0-1.672" />
  <path d="M18.84 17.503a1.182 1.182 0 1 1 1.672 1.671l-1.671 1.672a1.182 1.182 0 1 1-1.672-1.672z" />
  <path d="M20.512 22.336a1.18 1.18 0 0 0-1.671 0l-1.672 1.672a1.182 1.182 0 1 0 1.672 1.671l1.671-1.671a1.18 1.18 0 0 0 0-1.672" />
  <path d="M18.84 27.17a1.182 1.182 0 1 1 1.672 1.671l-1.671 1.672a1.182 1.182 0 1 1-1.672-1.672z" />
  <path d="M20.512 32.003a1.18 1.18 0 0 0-1.671 0l-1.672 1.672a1.182 1.182 0 1 0 1.672 1.671l1.671-1.671a1.18 1.18 0 0 0 0-1.672" />
  <path d="M18.84 36.837a1.182 1.182 0 1 1 1.672 1.671l-1.671 1.672a1.182 1.182 0 1 1-1.672-1.672z" />
  <path d="M31.512 7.836a1.18 1.18 0 0 0-1.671 0l-1.672 1.671a1.182 1.182 0 1 0 1.672 1.672l1.671-1.672a1.18 1.18 0 0 0 0-1.671" />
  <path d="M29.84 12.67a1.182 1.182 0 1 1 1.672 1.67l-1.671 1.672a1.182 1.182 0 0 1-1.672-1.671z" />
  <path d="M31.512 17.503a1.18 1.18 0 0 0-1.671 0l-1.672 1.671a1.182 1.182 0 1 0 1.672 1.672l1.671-1.672a1.18 1.18 0 0 0 0-1.671" />
  <path d="M29.84 22.336a1.182 1.182 0 1 1 1.672 1.672l-1.671 1.671a1.182 1.182 0 1 1-1.672-1.671z" />
  <path d="M31.512 27.17a1.18 1.18 0 0 0-1.671 0l-1.672 1.671a1.182 1.182 0 1 0 1.672 1.672l1.671-1.672a1.18 1.18 0 0 0 0-1.671" />
  <path d="M29.84 32.003a1.182 1.182 0 1 1 1.672 1.672l-1.671 1.671a1.182 1.182 0 1 1-1.672-1.671z" />
  <path d="M31.512 36.837a1.18 1.18 0 0 0-1.671 0l-1.672 1.671a1.182 1.182 0 1 0 1.672 1.672l1.671-1.672a1.18 1.18 0 0 0 0-1.671" />
  <path
    fill-rule="evenodd"
    d="M16 4a4 4 0 0 0-4 4v32a4 4 0 0 0 4 4h16a4 4 0 0 0 4-4V8a4 4 0 0 0-4-4zm18 4a2 2 0 0 0-2-2H16a2 2 0 0 0-2 2v32a2 2 0 0 0 2 2h16a2 2 0 0 0 2-2z"
    clip-rule="evenodd"
  />
</svg>
