<svg
  xmlns="http://www.w3.org/2000/svg"
  width="24"
  height="24"
  viewBox="0 0 24 24"
  fill="none"
  stroke="currentColor"
  stroke-width="2"
  stroke-linecap="round"
  stroke-linejoin="round"
>
  <path
    fill-rule="evenodd"
    d="M12 8a4 4 0 0 1 4-4h8.6c-.331 0-.6.267-.6.597s.269.597.6.597.6-.267.6-.597A.6.6 0 0 0 24.6 4H32a4 4 0 0 1 4 4v32a4 4 0 0 1-4 4h-7.385a.6.6 0 0 0 .585-.597.6.6 0 0 0-.6-.597c-.331 0-.6.267-.6.597 0 .325.26.59.585.597H16a4 4 0 0 1-4-4zm13.2 32.418a.6.6 0 0 0-.6-.597c-.331 0-.6.268-.6.597 0 .33.269.597.6.597s.6-.267.6-.597m-.6-3.582c.331 0 .6.267.6.597s-.269.597-.6.597a.6.6 0 0 1-.6-.597c0-.33.269-.597.6-.597m.6-2.388a.6.6 0 0 0-.6-.597c-.331 0-.6.267-.6.597s.269.597.6.597.6-.267.6-.597m-.6-3.582c.331 0 .6.267.6.597s-.269.597-.6.597a.6.6 0 0 1-.6-.597c0-.33.269-.597.6-.597m.6-2.388a.6.6 0 0 0-.6-.597c-.331 0-.6.267-.6.597s.269.597.6.597.6-.267.6-.597m-.6-3.583a.598.598 0 1 1 0 1.194.6.6 0 0 1-.6-.596c0-.33.269-.598.6-.598m.6-2.387a.6.6 0 0 0-.6-.597c-.331 0-.6.267-.6.597s.269.597.6.597.6-.268.6-.597m-.6-3.583c.331 0 .6.268.6.597 0 .33-.269.597-.6.597a.6.6 0 0 1-.6-.597c0-.33.269-.597.6-.597m.6-2.388a.6.6 0 0 0-.6-.597c-.331 0-.6.268-.6.597 0 .33.269.598.6.598s.6-.268.6-.598m-.6-3.581c.331 0 .6.267.6.597s-.269.597-.6.597a.6.6 0 0 1-.6-.597c0-.33.269-.597.6-.597m.6-2.389a.6.6 0 0 0-.6-.597c-.331 0-.6.268-.6.597 0 .33.269.597.6.597s.6-.267.6-.597m-.6-3.582c.331 0 .6.268.6.597 0 .33-.269.597-.6.597a.6.6 0 0 1-.6-.597c0-.33.269-.597.6-.597m-6.76-.15a1.182 1.182 0 1 1 1.672 1.672l-1.671 1.672a1.182 1.182 0 0 1-1.672-1.672zm1.672 5a1.18 1.18 0 0 0-1.671 0l-1.672 1.672a1.182 1.182 0 1 0 1.672 1.672l1.671-1.672a1.18 1.18 0 0 0 0-1.671m-1.671 5a1.182 1.182 0 1 1 1.671 1.672l-1.671 1.672a1.182 1.182 0 0 1-1.672-1.672zm1.671 5a1.18 1.18 0 0 0-1.671 0l-1.672 1.672a1.182 1.182 0 1 0 1.672 1.672l1.671-1.672a1.18 1.18 0 0 0 0-1.671m-1.671 5a1.182 1.182 0 1 1 1.671 1.672l-1.671 1.672a1.182 1.182 0 0 1-1.672-1.672zm1.671 5a1.18 1.18 0 0 0-1.671 0l-1.672 1.672a1.182 1.182 0 1 0 1.672 1.672l1.671-1.672a1.18 1.18 0 0 0 0-1.671m-1.671 5a1.182 1.182 0 1 1 1.671 1.672l-1.671 1.672a1.182 1.182 0 0 1-1.672-1.672zm13.671-30a1.18 1.18 0 0 0-1.671 0l-1.672 1.672a1.182 1.182 0 1 0 1.672 1.672l1.671-1.672a1.18 1.18 0 0 0 0-1.671m-1.671 5a1.182 1.182 0 1 1 1.671 1.672l-1.671 1.672a1.182 1.182 0 0 1-1.672-1.672zm1.671 5a1.18 1.18 0 0 0-1.671 0l-1.672 1.672a1.182 1.182 0 1 0 1.672 1.672l1.671-1.672a1.18 1.18 0 0 0 0-1.671m-1.671 5a1.182 1.182 0 1 1 1.671 1.672l-1.671 1.672a1.182 1.182 0 0 1-1.672-1.672zm1.671 5a1.18 1.18 0 0 0-1.671 0l-1.672 1.672a1.182 1.182 0 1 0 1.672 1.672l1.671-1.672a1.18 1.18 0 0 0 0-1.671m-1.671 5a1.182 1.182 0 1 1 1.671 1.672l-1.671 1.672a1.182 1.182 0 0 1-1.672-1.672zm1.671 5a1.18 1.18 0 0 0-1.671 0l-1.672 1.672a1.182 1.182 0 1 0 1.672 1.672l1.671-1.672a1.18 1.18 0 0 0 0-1.671"
    clip-rule="evenodd"
  />
</svg>
