<svg
  xmlns="http://www.w3.org/2000/svg"
  width="24"
  height="24"
  viewBox="0 0 24 24"
  fill="none"
  stroke="currentColor"
  stroke-width="2"
  stroke-linecap="round"
  stroke-linejoin="round"
>
  <path d="M19 24a1 1 0 1 1-2 0 1 1 0 0 1 2 0" />
  <path d="M22 25a1 1 0 1 0 0-2 1 1 0 0 0 0 2" />
  <path d="M27 24a1 1 0 1 1-2 0 1 1 0 0 1 2 0" />
  <path d="M30 25a1 1 0 1 0 0-2 1 1 0 0 0 0 2" />
  <path d="M19 17a3 3 0 1 0 0-6 3 3 0 0 0 0 6" />
  <path d="M32 14a3 3 0 1 1-6 0 3 3 0 0 1 6 0" />
  <path d="M19 37a3 3 0 1 0 0-6 3 3 0 0 0 0 6" />
  <path d="M32 34a3 3 0 1 1-6 0 3 3 0 0 1 6 0" />
  <path
    fill-rule="evenodd"
    d="M12 8a4 4 0 0 1 4-4h16a4 4 0 0 1 4 4v32a4 4 0 0 1-4 4H16a4 4 0 0 1-4-4zm2 0a2 2 0 0 1 2-2h16a2 2 0 0 1 2 2v15a1 1 0 1 0 0 2v15a2 2 0 0 1-2 2H16a2 2 0 0 1-2-2V25a1 1 0 1 0 0-2z"
    clip-rule="evenodd"
  />
</svg>
