<svg
  xmlns="http://www.w3.org/2000/svg"
  width="24"
  height="24"
  viewBox="0 0 24 24"
  fill="none"
  stroke="currentColor"
  stroke-width="2"
  stroke-linecap="round"
  stroke-linejoin="round"
>
  <path
    fill-rule="evenodd"
    d="M35 9.5a3.5 3.5 0 1 1 7 0v6c0 1.583-1.05 2.92-2.492 3.353q.013 1.581.035 3.06c.05 3.722.092 6.95-.187 9.604-.4 3.804-1.491 6.795-4.456 8.542-3.367 1.985-8.205 2.584-12.171 2.085-1.99-.251-3.856-.79-5.255-1.644-1.015-.62-1.856-1.46-2.244-2.523-2.085-.093-4.16-.472-5.8-1.152-1.765-.732-3.43-2-3.43-3.985V13.122h.003L6 13c0-2.761 4.477-5 10-5s10 2.239 10 5q0 .061-.003.122H26v5.949a7 7 0 0 1 1.232.292 7.003 7.003 0 0 1-1.233 13.566c-.046 2.015-1.657 3.29-3.434 4.014-1.449.59-3.23.92-5.054 1.022.241.286.572.563 1.006.828 1.073.657 2.635 1.136 4.462 1.366 3.668.462 8.026-.126 10.905-1.823 2.143-1.262 3.106-3.447 3.483-7.028.266-2.53.226-5.573.177-9.224v-.001q-.022-1.539-.037-3.226A3.5 3.5 0 0 1 35 15.5zm-12.823 5.247C23.774 13.948 24 13.215 24 13s-.226-.948-1.823-1.747C20.699 10.515 18.518 10 16 10s-4.7.515-6.177 1.253C8.226 12.052 8 12.785 8 13s.226.948 1.823 1.747C11.301 15.485 13.482 16 16 16s4.7-.515 6.177-1.253M16 18c3.271 0 6.176-.785 8-2v3.07a7 7 0 0 0-1.232.293 7.003 7.003 0 0 0 1.23 13.566c-.045.778-.674 1.545-2.187 2.161-1.525.621-3.632.933-5.8.909a21 21 0 0 1-.92-.031V17.98q.45.02.909.02m9 3.5-1.5 5 1.5 2 1.5-2z"
    clip-rule="evenodd"
  />
</svg>
