<svg
  xmlns="http://www.w3.org/2000/svg"
  width="24"
  height="24"
  viewBox="0 0 24 24"
  fill="none"
  stroke="currentColor"
  stroke-width="2"
  stroke-linecap="round"
  stroke-linejoin="round"
>
  <path d="M24 32c1.12 0 2-.943 2-2.143C26 28.743 24 26 24 26s-2 2.657-2 3.857S22.88 32 24 32" />
  <path
    fill-rule="evenodd"
    d="M10.649 21.35q-.136-.01-.268-.045c-1.867-.5-2.338-4.798-1.052-9.6 1.287-4.8 3.843-8.287 5.71-7.787q.132.036.255.096.114.003.229.034l1.704.456.042.013c1.342.422 1.903 1.706 2.202 3.179.21 1.039.332 2.384.417 4.052l1.254.336a3 3 0 0 1 1.862-1.915c.063-2.735.921-4.607 2.437-5.55 1.549-.963 3.432-.73 4.973-.03 1.554.707 2.986 1.98 3.757 3.486.79 1.543.913 3.421-.39 5.05-.88 1.099-1.185 2.1-1.18 2.962.007.87.332 1.699.886 2.438C34.633 20.051 36.598 21 38 21a1 1 0 1 1 0 2c-2.098 0-4.632-1.301-6.113-3.275-.758-1.01-1.276-2.245-1.285-3.624-.01-1.389.497-2.825 1.617-4.226.697-.871.695-1.868.172-2.888-.54-1.056-1.61-2.033-2.805-2.577-1.21-.55-2.326-.567-3.09-.092-.704.438-1.43 1.5-1.492 3.854A3 3 0 0 1 27 13v4.803A6 6 0 0 1 30 23v.68l1.352 1.07v6.875l1.477 6.938c.657 2.143-.584 5.437-3.693 5.437H18.864c-3.11 0-4.35-3.294-3.693-5.437l1.477-6.938V24.75L18 23.68V23q0-.511.083-1A6 6 0 0 1 21 17.803v-.58l-2.287-.613c-1.002 1.564-1.848 2.782-2.606 3.64-.995 1.125-2.123 1.957-3.497 1.651l-.042-.01-1.704-.456a1 1 0 0 1-.215-.086m3.51-8.35c-.596 2.223-1.466 4.053-2.318 5.217-.354.482-.661.79-.893.97-.11-.271-.223-.693-.287-1.287-.157-1.433.004-3.453.6-5.677s1.466-4.053 2.319-5.216c.353-.482.66-.79.892-.97.11.27.223.692.288 1.286.157 1.434-.005 3.454-.601 5.677m-1.136 6.943.037.01c.219.042.645-.006 1.548-1.028.863-.977 1.918-2.567 3.371-4.901-.091-2.75-.21-4.654-.468-5.931-.271-1.336-.617-1.591-.827-1.664l-.037-.01c.339 1.8.176 4.368-.556 7.099s-1.875 5.036-3.068 6.425M25 17h-2v-4a1 1 0 1 1 2 0zm-4.874 5a4.002 4.002 0 0 1 7.748 0zm-1.478 3.718L20.82 24h6.36l2.172 1.718v6.118l.79 3.71a10 10 0 0 0-1.338-.37c-1.516-.308-3.61-.346-5.41 1.03-1.146.874-2.552.912-3.799.658a8.6 8.6 0 0 1-1.885-.626l.938-4.402zm-1.363 12.517-.177.83-.025.083c-.16.52-.098 1.314.263 1.953.316.558.786.899 1.518.899h10.272c.732 0 1.203-.341 1.518-.899.36-.639.422-1.433.263-1.953l-.026-.083-.287-1.35-.088.16-.002-.001-.024-.013-.11-.055a8.568 8.568 0 0 0-1.975-.67c-1.247-.254-2.652-.216-3.798.659-1.8 1.375-3.894 1.337-5.41 1.029-.77-.157-1.43-.39-1.899-.583z"
    clip-rule="evenodd"
  />
</svg>
