<svg
  xmlns="http://www.w3.org/2000/svg"
  width="24"
  height="24"
  viewBox="0 0 24 24"
  fill="none"
  stroke="currentColor"
  stroke-width="2"
  stroke-linecap="round"
  stroke-linejoin="round"
>
  <path
    fill-rule="evenodd"
    d="M31.938 13A8 8 0 0 0 24 6H10V4h14c5.185 0 9.449 3.947 9.95 9H36v6H24v-6h2a1 1 0 0 0-1-1H10v-2h15a3 3 0 0 1 3 3zM26 17v-2h8v2z"
    clip-rule="evenodd"
  />
  <path d="M27.03 33.518a1 1 0 0 1-1.012-.989A2.5 2.5 0 0 1 28.488 30a1 1 0 0 1 .024 2 .5.5 0 0 0-.494.506 1 1 0 0 1-.988 1.011" />
  <path d="M32 31a1 1 0 1 0 0 2 .5.5 0 0 1 .5.5 1 1 0 1 0 2 0A2.5 2.5 0 0 0 32 31" />
  <path d="M29.763 38.25a1 1 0 0 1-.762 1.192 2.5 2.5 0 0 1-2.978-1.906 1 1 0 0 1 1.954-.429.5.5 0 0 0 .595.381 1 1 0 0 1 1.191.763" />
  <path d="M33 39a1 1 0 1 0 0-2 1 1 0 0 0 0 2" />
  <path d="M31 28a1 1 0 1 1-2 0 1 1 0 0 1 2 0" />
  <path d="M30 36a1 1 0 1 0 0-2 1 1 0 0 0 0 2" />
  <path
    fill-rule="evenodd"
    d="M38 35.636C38 40.256 34.418 44 30 44s-8-3.745-8-8.364C22 28.318 30 21 30 21s8 7.318 8 14.636m-2 0c0 3.6-2.77 6.364-6 6.364s-6-2.764-6-6.364c0-3.004 1.681-6.229 3.616-8.884A33 33 0 0 1 30 23.85c.68.74 1.533 1.734 2.384 2.9C34.319 29.408 36 32.633 36 35.637"
    clip-rule="evenodd"
  />
</svg>
