<svg
  xmlns="http://www.w3.org/2000/svg"
  width="24"
  height="24"
  viewBox="0 0 24 24"
  fill="none"
  stroke="currentColor"
  stroke-width="2"
  stroke-linecap="round"
  stroke-linejoin="round"
>
  <path d="M24 44c11.046 0 20-8.954 20-20S35.046 4 24 4 4 12.954 4 24s8.954 20 20 20" />
  <path
    fill-rule="evenodd"
    d="M24 41.5c9.665 0 17.5-7.835 17.5-17.5S33.665 6.5 24 6.5 6.5 14.335 6.5 24 14.335 41.5 24 41.5m0 2.5c11.046 0 20-8.954 20-20S35.046 4 24 4 4 12.954 4 24s8.954 20 20 20"
    clip-rule="evenodd"
  />
</svg>
