<svg
  xmlns="http://www.w3.org/2000/svg"
  width="24"
  height="24"
  viewBox="0 0 24 24"
  fill="none"
  stroke="currentColor"
  stroke-width="2"
  stroke-linecap="round"
  stroke-linejoin="round"
>
  <path d="M31 30h3v-2h-3z" />
  <path d="M34 34h-3v-2h3z" />
  <path d="M31 38h3v-2h-3z" />
  <path
    fill-rule="evenodd"
    d="m17 4 16 6v14h4a1 1 0 0 1 1 1v17h1a1 1 0 1 1 0 2H9a1 1 0 1 1 0-2h1V21a1 1 0 0 1 1-1h2v-7h2v7h2zm19 38h-2v-2h-3v2h-2V26h7zM17 22h-5v20h5zm5-9h-2v2h2zm2 0h2v2h-2zm6 0h-2v2h2zm-10 4h2v2h-2zm6 0h-2v2h2zm2 0h2v2h-2zm-6 4h-2v2h2zm2 0h2v2h-2zm6 0h-2v2h2zm-10 4h2v2h-2zm6 0h-2v2h2zm-4 4h-2v2h2zm2 0h2v2h-2zm-4 4h2v2h-2zm6 0h-2v2h2zm-4 4h-2v2h2zm2 0h2v2h-2z"
    clip-rule="evenodd"
  />
</svg>
