<svg
  xmlns="http://www.w3.org/2000/svg"
  width="24"
  height="24"
  viewBox="0 0 24 24"
  fill="none"
  stroke="currentColor"
  stroke-width="2"
  stroke-linecap="round"
  stroke-linejoin="round"
>
  <path
    fill-rule="evenodd"
    d="M18.5 6C10.492 6 4 12.492 4 20.5 4 38.5 28 42 28 42v-7h1.5C37.508 35 44 28.508 44 20.5S37.508 6 29.5 6zM24 23.5a2.5 2.5 0 1 0 0-5 2.5 2.5 0 0 0 0 5M34.5 21a2.5 2.5 0 1 1-5 0 2.5 2.5 0 0 1 5 0M16 23.5a2.5 2.5 0 1 0 0-5 2.5 2.5 0 0 0 0 5"
    clip-rule="evenodd"
  />
</svg>
