<svg
  xmlns="http://www.w3.org/2000/svg"
  width="24"
  height="24"
  viewBox="0 0 24 24"
  fill="none"
  stroke="currentColor"
  stroke-width="2"
  stroke-linecap="round"
  stroke-linejoin="round"
>
  <path
    fill-rule="evenodd"
    d="M42 17a6 6 0 0 1-5.57 5.985l-3.051 3.05c.855 1.447 1.24 3.367 1.429 5.502.192 2.169.192 4.705.192 7.429V40h-2v-1c0-2.764 0-5.215-.184-7.286-.161-1.814-.455-3.227-.943-4.253-1.197-.16-2.29-.762-3.226-1.504-1.104-.874-2.086-2.015-2.894-3.115a29 29 0 0 1-2.105-3.342c-1.344.93-3.155 1.5-5.148 1.5-4.142 0-7.5-2.462-7.5-5.5 0-2.793 2.838-5.1 6.515-5.453C18.797 7.692 22.335 6 26.5 6c4.708 0 8.616 2.163 9.369 5.001L36 11a6 6 0 0 1 6 6m-11.973.573c-1.09.275-2.28.427-3.527.427q-.652 0-1.28-.054l-.076.108c.108.208.25.477.424.787a27 27 0 0 0 1.908 2.967v-.146c1.105 0 2.265-.597 3.227-1.308q.111-.08.215-.163a5.96 5.96 0 0 1-.891-2.618m2.226 4.113a6 6 0 0 0 1.694.953l-2.62 2.62q-.698-.283-1.439-.87a11 11 0 0 1-1.003-.914c1.183-.306 2.23-.939 3.006-1.511q.19-.14.362-.278"
    clip-rule="evenodd"
  />
  <path d="M15.504 28.002a2.5 2.5 0 1 0-.004-5 2.5 2.5 0 0 0 .004 5" />
  <path d="M8.504 32.002a2.5 2.5 0 1 0-.004-5 2.5 2.5 0 0 0 .004 5" />
  <path d="M28.002 29.5a2.5 2.5 0 1 1-5 .004 2.5 2.5 0 0 1 5-.004" />
  <path d="M15 29a2 2 0 0 1 2 2v2h2a2 2 0 1 1 0 4h-4a2 2 0 0 1-2-2v-4a2 2 0 0 1 2-2" />
  <path d="M10 35a2 2 0 1 0-4 0v5a2 2 0 0 0 2 2h4a2 2 0 1 0 0-4h-2z" />
  <path d="M26 33a2 2 0 0 0-2 2v3h-2a2 2 0 1 0 0 4h4a2 2 0 0 0 2-2v-5a2 2 0 0 0-2-2" />
</svg>
