<svg
  xmlns="http://www.w3.org/2000/svg"
  width="24"
  height="24"
  viewBox="0 0 24 24"
  fill="none"
  stroke="currentColor"
  stroke-width="2"
  stroke-linecap="round"
  stroke-linejoin="round"
>
  <path d="M18.412 9.5a3.5 3.5 0 1 1-7 0 3.5 3.5 0 0 1 7 0" />
  <path d="M19.494 15.041a1.5 1.5 0 0 0-.347-.04h-8.472q-.175 0-.346.041c-1.128.269-1.911.922-2.416 1.86-.44.818-.654 1.835-.831 2.839l-1.059 6a1.5 1.5 0 0 0 2.954.521l1.06-6c.123-.703.234-1.19.35-1.538l.29 3.276c0 1.866-1.786 10.372-2.424 13.351a.99.99 0 0 0 .83 1.19c4.398.623 7.26.603 11.658-.004a.99.99 0 0 0 .835-1.186c-.633-3.026-2.429-11.747-2.429-13.35l.29-3.277c.115.347.226.835.35 1.537l1.06 6a1.5 1.5 0 1 0 2.953-.521l-1.058-6c-.177-1.003-.392-2.021-.832-2.84-.504-.936-1.287-1.59-2.416-1.859" />
  <path d="m11.273 41.132-.398-3.013c1.08.124 2.11.205 3.123.243l-.766 2.894a1 1 0 0 1-1.959-.124" />
  <path d="m16.592 41.256-.76-2.871a39 39 0 0 0 3.104-.168l-.386 2.914a1 1 0 0 1-1.958.125" />
  <path d="m33.412 7.086 7.207 7.207-1.414 1.414-1.293-1.293V20h-3v-2.5a1.5 1.5 0 0 0-3 0V20h-3v-5.586l-1.293 1.293-1.414-1.414z" />
  <path d="m33.412 24.586 9.207 9.207-1.414 1.414-1.909-1.908v7.74h-3.923v-3.27a1.962 1.962 0 1 0-3.923 0v3.27h-3.923v-7.74l-1.908 1.908-1.414-1.414z" />
</svg>
