<svg
  xmlns="http://www.w3.org/2000/svg"
  width="24"
  height="24"
  viewBox="0 0 24 24"
  fill="none"
  stroke="currentColor"
  stroke-width="2"
  stroke-linecap="round"
  stroke-linejoin="round"
>
  <path d="M23 6h-4.132l1-2H23a1 1 0 0 1 1 1 1 1 0 0 1 1-1h3.132l1 2H25v10.257l-2-1z" />
  <path d="M10 5a1 1 0 0 0 1 1h1.632l1-2H11a1 1 0 0 0-1 1" />
  <path d="m14.868 6 1-2h1.764l-1 2z" />
  <path
    fill-rule="evenodd"
    d="M20 40a4 4 0 0 1 3-3.874V25.493l2 1v9.633A4.002 4.002 0 0 1 24 44a4 4 0 0 1-4-4m4-2a2 2 0 1 0 0 4 2 2 0 0 0 0-4"
    clip-rule="evenodd"
  />
  <path d="m25 20.257-2-1v-1.764l2 1z" />
  <path d="m25 22.493-2-1v1.764l2 1z" />
  <path d="M38 5a1 1 0 0 0-1-1h-2.632l1 2H37a1 1 0 0 0 1-1" />
  <path d="m31.368 6-1-2h1.764l1 2z" />
</svg>
