<svg
  xmlns="http://www.w3.org/2000/svg"
  width="24"
  height="24"
  viewBox="0 0 24 24"
  fill="none"
  stroke="currentColor"
  stroke-width="2"
  stroke-linecap="round"
  stroke-linejoin="round"
>
  <path
    fill-rule="evenodd"
    d="M25.963 22.02h-3.24v-.947h1.06c.714 0 1.399-.268 1.905-.746a2.5 2.5 0 0 0 .797-1.803V16.85c0 .07.438.029.647.01a.778.778 0 0 0 .58-.27c.12-.14.18-.317.17-.497a2.3 2.3 0 0 0-.276-.772l-.368-.888a67 67 0 0 1-.768-1.85s-.154-1.456-.292-1.95a6.55 6.55 0 0 0-2.47-3.333A7.15 7.15 0 0 0 19.636 6a7.08 7.08 0 0 0-3.964 1.197 6.5 6.5 0 0 0-2.493 3.16 6.15 6.15 0 0 0-.093 3.945 6.47 6.47 0 0 0 2.343 3.261v4.456h-2.826c-1.72-.004-3.375.63-4.61 1.768C6.76 24.925 6.045 26.475 6 28.107V42h26.996V29.053a6.5 6.5 0 0 0-.465-2.641 6.8 6.8 0 0 0-1.503-2.268A7.2 7.2 0 0 0 28.72 22.6a7.5 7.5 0 0 0-2.757-.58m-5.106 9.976a4.834 4.834 0 0 1-1.137-.182 3.2 3.2 0 0 1-.72-.305 3.2 3.2 0 0 1-.72.305 4.8 4.8 0 0 1-1.238.186h-.004c.066 1.87.093 4.294-.981 5.366-1.41 1.406-4.23 2.109-5.64.937s.94-12.654 4.23-12.654c2.283 0 2.366 2.742 2.354 4.35h.043a3.2 3.2 0 0 0 .676-.105c.143-.042.233-.086.28-.117V25h2v4.777c.047.03.137.075.28.117a3 3 0 0 0 .613.101c-.011-1.61.074-4.346 2.355-4.346 3.29 0 5.64 11.483 4.23 12.654-1.41 1.172-4.23.469-5.64-.937-1.075-1.072-1.047-3.5-.98-5.37M17 30.241v-.075l.001.704a15 15 0 0 1 0-.629M25 18a1 1 0 1 1-2 0 1 1 0 0 1 2 0m-4 0a1 1 0 1 0 0-2 1 1 0 0 0 0 2"
    clip-rule="evenodd"
  />
  <path d="M32 14a1 1 0 1 1-2 0 1 1 0 0 1 2 0" />
  <path d="M34 17a1 1 0 1 1-2 0 1 1 0 0 1 2 0" />
  <path d="M36 20a1 1 0 1 1-2 0 1 1 0 0 1 2 0" />
  <path d="M42 19a1 1 0 1 1-2 0 1 1 0 0 1 2 0" />
  <path d="M42 14a1 1 0 1 1-2 0 1 1 0 0 1 2 0" />
  <path d="M42 10a1 1 0 1 1-2 0 1 1 0 0 1 2 0" />
  <path d="M38 12a1 1 0 1 1-2 0 1 1 0 0 1 2 0" />
  <path d="M38 16a1 1 0 1 1-2 0 1 1 0 0 1 2 0" />
  <path d="M30 19a1 1 0 1 1-2 0 1 1 0 0 1 2 0" />
</svg>
