<svg
  xmlns="http://www.w3.org/2000/svg"
  width="24"
  height="24"
  viewBox="0 0 24 24"
  fill="none"
  stroke="currentColor"
  stroke-width="2"
  stroke-linecap="round"
  stroke-linejoin="round"
>
  <path
    fill-rule="evenodd"
    d="M23 6H6v12h17zm-8.5 10a1 1 0 1 0 0-2 1 1 0 0 0 0 2m-1-7a1 1 0 1 1 2 0v3a1 1 0 1 1-2 0z"
    clip-rule="evenodd"
  />
  <path
    fill-rule="evenodd"
    d="M42 6H25v12h17zm-1.793 3.207L34.5 14.914l-2.5-2.5-2.293 2.293-1.414-1.414L32 9.586l2.5 2.5 4.293-4.293z"
    clip-rule="evenodd"
  />
  <path
    fill-rule="evenodd"
    d="M6 32V20h17v4.083A6.002 6.002 0 0 0 18.341 32zm3-7v-2h2v2zm0 2v2h2v-2zm4-2v-2h2v2zm0 2v2h2v-2zm4-2v-2h2v2z"
    clip-rule="evenodd"
  />
  <path
    fill-rule="evenodd"
    d="M30 30a6 6 0 0 1-.341 2H42V20H25v4.083c2.838.476 5 2.944 5 5.917m2-5h7a1 1 0 1 0 0-2h-7a1 1 0 1 0 0 2m0 3a1 1 0 0 0 1 1h6a1 1 0 1 0 0-2h-6a1 1 0 0 0-1 1"
    clip-rule="evenodd"
  />
  <path d="M28 30a4 4 0 1 1-8 0 4 4 0 0 1 8 0" />
  <path d="M24 35a21.5 21.5 0 0 0-4.612.56c-.764.185-1.521.432-2.111.762-.516.289-1.277.853-1.277 1.8V42h16v-3.879c0-.946-.761-1.51-1.277-1.8-.59-.329-1.347-.576-2.111-.761A21.5 21.5 0 0 0 24 35" />
</svg>
