<svg
  xmlns="http://www.w3.org/2000/svg"
  width="24"
  height="24"
  viewBox="0 0 24 24"
  fill="none"
  stroke="currentColor"
  stroke-width="2"
  stroke-linecap="round"
  stroke-linejoin="round"
>
  <rect width="48" height="48" />
  <path
    fill-rule="evenodd"
    d="M6 6h17v12H6zm9.5 9a1 1 0 1 1-2 0 1 1 0 0 1 2 0m-1-7a1 1 0 0 0-1 1v3a1 1 0 1 0 2 0V9a1 1 0 0 0-1-1"
    clip-rule="evenodd"
  />
  <path
    fill-rule="evenodd"
    d="M25 6h17v12H25zm15.207 3.207-1.414-1.414-4.293 4.293-2.5-2.5-3.707 3.707 1.414 1.414L32 12.414l2.5 2.5z"
    clip-rule="evenodd"
  />
  <path
    fill-rule="evenodd"
    d="M6 20v12h12.341A6.002 6.002 0 0 1 23 24.083V20zm3 3v2h2v-2zm0 6v-2h2v2zm4-6v2h2v-2zm0 6v-2h2v2zm4-6v2h2v-2z"
    clip-rule="evenodd"
  />
  <path
    fill-rule="evenodd"
    d="M29.659 32A6.002 6.002 0 0 0 25 24.083V20h17v12zM39 25h-7a1 1 0 1 1 0-2h7a1 1 0 1 1 0 2m-6 4a1 1 0 1 1 0-2h6a1 1 0 1 1 0 2z"
    clip-rule="evenodd"
  />
  <path
    fill-rule="evenodd"
    d="M17 37.546C17 35.853 21.664 35 24 35s7 .853 7 2.545V41H17zm1.779.626.019-.018q-.018.018-.02.017M19 38.02c.247-.14.64-.305 1.183-.463C21.45 37.19 23.011 37 24 37s2.55.19 3.817.558c.543.158.936.323 1.183.462V39H19zm10.22.15-.004-.004-.007-.006-.007-.007.02.017z"
    clip-rule="evenodd"
  />
  <path
    fill-rule="evenodd"
    d="M28 30a4 4 0 1 1-8 0 4 4 0 0 1 8 0m-2 0a2 2 0 1 1-4 0 2 2 0 0 1 4 0"
    clip-rule="evenodd"
  />
</svg>
