<svg
  xmlns="http://www.w3.org/2000/svg"
  width="24"
  height="24"
  viewBox="0 0 24 24"
  fill="none"
  stroke="currentColor"
  stroke-width="2"
  stroke-linecap="round"
  stroke-linejoin="round"
>
  <path
    fill-rule="evenodd"
    d="M39.844 9.972c2.338 2.575 2.744 6.192 1.523 9.297-2.087 5.31-6.784 10.12-11.24 14.684-2.179 2.231-4.3 4.404-6.03 6.547q-.6-.585-1.237-1.2C17.172 33.78 9.536 26.373 6.68 19.268a8.89 8.89 0 0 1 .192-7.073 9 9 0 0 1 2.164-2.905c3.633-3.244 9.32-2.739 12.777.69l2.283 2.264 2.645-2.622a9 9 0 0 1 3.041-1.987 9.1 9.1 0 0 1 7.132.19 9 9 0 0 1 2.93 2.146m-20.875 14.83 7.94-10.266-1.527 7.75h4.526a.5.5 0 0 1 .396.806l-7.94 10.266 1.527-7.75h-4.527a.5.5 0 0 1-.395-.806"
    clip-rule="evenodd"
  />
</svg>
