<svg
  xmlns="http://www.w3.org/2000/svg"
  width="24"
  height="24"
  viewBox="0 0 24 24"
  fill="none"
  stroke="currentColor"
  stroke-width="2"
  stroke-linecap="round"
  stroke-linejoin="round"
>
  <path d="M23.967 22.147c2.24-.002 3.999-1.68 3.997-3.813-.002-1.98-4.005-6.854-4.005-6.854s-3.997 4.727-3.995 6.86 1.763 3.809 4.003 3.807" />
  <path d="M23.982 40.083a2 2 0 1 0-.003-4 2 2 0 0 0 .003 4" />
  <path
    fill-rule="evenodd"
    d="M12.952 4.092a3 3 0 0 0-2.997 3.002l.02 25a3 3 0 0 0 3.003 2.998l4.75-.004a1.3 1.3 0 0 0 .25-.026l.007 9.025 12-.01-.007-9.024q.12.024.25.024l4.75-.003a3 3 0 0 0 2.997-3.003l-.02-25a3 3 0 0 0-3.003-2.998zm20.004 3.983-18 .015.014 18 18-.015zM15.973 29.59a1 1 0 0 1 1-1l4-.004a1 1 0 0 1 .001 2l-4 .003a1 1 0 0 1-1-.999m11-1.009a1 1 0 1 0 .001 2l4-.003a1 1 0 1 0-.002-2zm1.003 4.5-8 .006.008 9 8-.007z"
    clip-rule="evenodd"
  />
</svg>
