<svg
  xmlns="http://www.w3.org/2000/svg"
  width="24"
  height="24"
  viewBox="0 0 24 24"
  fill="none"
  stroke="currentColor"
  stroke-width="2"
  stroke-linecap="round"
  stroke-linejoin="round"
>
  <path
    fill-rule="evenodd"
    d="m14.956 8.211 18-.015.014 18-18 .015zm13.008 9.847c.002 2.133-1.757 3.81-3.997 3.812s-4.001-1.673-4.003-3.806 3.994-6.86 3.994-6.86 4.004 4.873 4.006 6.854"
    clip-rule="evenodd"
  />
  <path d="M16.984 27.986a1 1 0 0 0 .001 2l4-.003a1 1 0 1 0-.001-2z" />
  <path d="M25.985 28.979a1 1 0 0 1 .999-1.001l4-.003a1 1 0 1 1 .001 2l-4 .003a1 1 0 0 1-1-1" />
  <path d="M23.982 40.204a2 2 0 1 0-.003-4 2 2 0 0 0 .003 4" />
  <path
    fill-rule="evenodd"
    d="m12.978 35.213 5-.005.007 9 12-.01-.007-9 5-.003a3 3 0 0 0 2.997-3.003l-.02-25a3 3 0 0 0-3.002-2.997l-22 .018a3 3 0 0 0-2.998 3.002l.02 25a3 3 0 0 0 3.003 2.998M34.954 6.195l-22 .018a1 1 0 0 0-.999 1l.02 25a1 1 0 0 0 1.001 1l5-.005-.001-2 12-.01.001 2 5-.003a1 1 0 0 0 1-1.001l-.02-25a1 1 0 0 0-1.002-1M27.976 33.2l-8 .007.008 9 8-.007z"
    clip-rule="evenodd"
  />
</svg>
