<svg
  xmlns="http://www.w3.org/2000/svg"
  width="24"
  height="24"
  viewBox="0 0 24 24"
  fill="none"
  stroke="currentColor"
  stroke-width="2"
  stroke-linecap="round"
  stroke-linejoin="round"
>
  <path d="M13 9.5a3.5 3.5 0 1 0 7 0 3.5 3.5 0 0 0-7 0" />
  <path
    fill-rule="evenodd"
    d="M29.449 16.05A2 2 0 0 0 29 16h-9v12h-7V16h-1a6 6 0 0 0-1 11.917V40a2 2 0 1 0 4 0v-9h3v9a2 2 0 1 0 4 0V20h7c.477 0 .914-.166 1.258-.445l1.998 8.655a4 4 0 0 0-2.998 4.797l1.05 8.994 2.824-.652-1.03-4.914 1.958-.41 1.021 4.874 6.92-1.597-2.999-8.544a4 4 0 0 0-4.797-2.998L30.38 11.196a1 1 0 0 0-1.95.45zM9 22a2 2 0 0 1 2-2v4a2 2 0 0 1-2-2m25.655 7.709-1.95.45a2 2 0 0 0-1.498 2.398l5.846-1.35a2 2 0 0 0-2.398-1.498"
    clip-rule="evenodd"
  />
  <path d="M18 16v3h-3v-3z" />
</svg>
