<svg
  xmlns="http://www.w3.org/2000/svg"
  width="24"
  height="24"
  viewBox="0 0 24 24"
  fill="none"
  stroke="currentColor"
  stroke-width="2"
  stroke-linecap="round"
  stroke-linejoin="round"
>
  <path
    fill-rule="evenodd"
    d="M13.07 26.285c.962 1.176 3.41 5.533 3.93 7.715h14c.52-2.18 2.965-6.537 3.927-7.712a13.57 13.57 0 0 0 2.982-7.015 13.47 13.47 0 0 0-1.289-7.495 13.8 13.8 0 0 0-5.164-5.671A14.2 14.2 0 0 0 24.002 4c-2.637 0-5.221.73-7.454 2.105a13.8 13.8 0 0 0-5.166 5.67 13.47 13.47 0 0 0-1.292 7.493c.299 2.567 1.332 5 2.98 7.017M25 12l-6 9h4v6l6-9h-4z"
    clip-rule="evenodd"
  />
  <path d="M17 37a1 1 0 0 1 1-1h12a1 1 0 1 1 0 2H18a1 1 0 0 1-1-1" />
  <path d="M31 40H17v2a2 2 0 0 0 2 2h10a2 2 0 0 0 2-2z" />
</svg>
