<svg
  xmlns="http://www.w3.org/2000/svg"
  width="24"
  height="24"
  viewBox="0 0 24 24"
  fill="none"
  stroke="currentColor"
  stroke-width="2"
  stroke-linecap="round"
  stroke-linejoin="round"
>
  <path d="M14.5 13a3.5 3.5 0 1 0 0-7 3.5 3.5 0 0 0 0 7" />
  <path d="M18.5 15a1.5 1.5 0 0 1 .367.046c1.113.28 1.862.959 2.333 1.886.412.81.613 1.82.78 2.822l1 6a1.5 1.5 0 1 1-2.96.493l-1-6a15 15 0 0 0-.265-1.309L18.5 22c0 1.606 1.703 10.36 2.298 13.37a.99.99 0 0 1-.829 1.173c-4.12.599-6.817.618-10.939.004a.99.99 0 0 1-.823-1.177c.6-2.962 2.293-11.5 2.293-13.37l-.255-3.061c-.087.327-.172.752-.265 1.309l-1 6a1.5 1.5 0 1 1-2.96-.493l1-6c.168-1.003.369-2.011.78-2.823.472-.926 1.22-1.605 2.334-1.885q.179-.046.364-.046H18.5" />
  <path d="m10.631 38.112.377 3.012a1 1 0 0 0 1.962.119l.72-2.88c-.992-.037-2-.121-3.059-.252" />
  <path d="m15.316 38.385.714 2.857a1 1 0 0 0 1.962-.118l.365-2.913a35 35 0 0 1-3.041.174" />
  <path
    fill-rule="evenodd"
    d="M32 24v-2h-1a4 4 0 0 1-4-4h2a2 2 0 0 0 2 2h1v-4h-1a4 4 0 0 1 0-8h1V6h2v2h1a4 4 0 0 1 4 4h-2a2 2 0 0 0-2-2h-1v4h1a4 4 0 0 1 0 8h-1v2zm3-4h-1v-4h1a2 2 0 1 1 0 4m-4-10h1v4h-1a2 2 0 1 1 0-4"
    clip-rule="evenodd"
  />
  <path
    fill-rule="evenodd"
    d="M24 35c0-1.306.835-2.417 2-2.83V26h2v1h10v-1h2v6.17c1.165.413 2 1.524 2 2.83v7h-2v-3H26v3h-2zm14-6h-2v3h2zm-4 0h-2v3h2zm-4 0h-2v3h2zm-3 5a1 1 0 0 0-1 1v2h14v-2a1 1 0 0 0-1-1z"
    clip-rule="evenodd"
  />
</svg>
