<svg
  xmlns="http://www.w3.org/2000/svg"
  width="24"
  height="24"
  viewBox="0 0 24 24"
  fill="none"
  stroke="currentColor"
  stroke-width="2"
  stroke-linecap="round"
  stroke-linejoin="round"
>
  <path d="M6.816 12.724c-.8.729-1.051 1.617-.56 2.405a15.6 15.6 0 0 0 2.004 2.547c-.552.044-1.04.236-1.403.586a1.9 1.9 0 0 0-.353.466 17.4 17.4 0 0 1-1.945-2.541c-1.202-1.926-.284-3.855.911-4.942.608-.553 1.36-.974 2.126-1.152.756-.176 1.662-.139 2.387.442 1.58 1.266 2.385 1.434 2.918 1.48.1.01.214.011.342.014.564.012 1.384.03 2.297.616l-1.08 1.683c-.409-.262-.601-.268-1.046-.282a12 12 0 0 1-.687-.038c-1.02-.09-2.189-.464-3.995-1.912-.082-.066-.283-.148-.683-.055-.39.091-.843.328-1.233.683" />
  <path
    fill-rule="evenodd"
    d="M12.895 20.143c1.68 1.549 2.149 3.665 1.047 4.728s-3.358.668-5.039-.881-2.149-3.666-1.046-4.728 3.358-.668 5.038.88m-1.44 1.388c.589.543.897 1.126.992 1.557.053.239.034.365.017.42-.058.018-.192.039-.447-.006-.459-.08-1.085-.357-1.674-.9s-.896-1.127-.992-1.557c-.053-.239-.034-.366-.016-.42.057-.018.192-.039.446.006.459.08 1.085.357 1.674.9m.994 2.01v.002l.005-.009-.002.003zm.042-.043q.007-.005.009-.005 0 0-.01.006m-3.144-2.903.003-.005-.005.009zm-.04.04-.008.004z"
    clip-rule="evenodd"
  />
  <path d="M41.744 15.129c.491-.788.24-1.676-.56-2.405-.39-.355-.842-.592-1.233-.683-.4-.093-.602-.01-.683.055-1.806 1.448-2.976 1.823-3.995 1.912-.29.025-.508.032-.687.038-.445.014-.637.02-1.047.282l-1.08-1.683c.914-.586 1.734-.604 2.298-.616q.193-.002.342-.014c.533-.046 1.339-.214 2.918-1.48.724-.58 1.63-.618 2.387-.442.766.178 1.518.599 2.126 1.152 1.194 1.087 2.113 3.016.911 4.942a17.4 17.4 0 0 1-1.985 2.585 1.9 1.9 0 0 0-.375-.51c-.35-.338-.818-.528-1.346-.581.644-.667 1.371-1.53 2.01-2.552" />
  <path
    fill-rule="evenodd"
    d="M35.043 20.143c-1.68 1.549-2.15 3.665-1.047 4.728s3.358.668 5.038-.881 2.15-3.666 1.047-4.728-3.358-.668-5.039.88m1.44 1.388c-.59.543-.897 1.126-.992 1.557-.053.239-.034.365-.017.42.058.018.192.039.446-.006.46-.08 1.085-.357 1.674-.9s.897-1.127.992-1.557c.053-.239.034-.366.017-.42-.058-.018-.192-.039-.447.006-.459.08-1.085.357-1.673.9m-.997 2.006.003.006-.005-.009zm-.044-.041.005.003-.003-.002-.004-.002q-.002-.001-.002-.002m.004.003-.003-.002zm3.146-2.906q-.001 0 .005.009zm.042.044.009.005z"
    clip-rule="evenodd"
  />
  <path
    fill-rule="evenodd"
    d="M18.012 12.474C19.335 11.518 21.298 11 24.01 11c2.698 0 4.66.472 5.982 1.364 1.38.93 1.962 2.247 2.005 3.624.042 1.323-.41 2.67-1.003 3.82a12.3 12.3 0 0 1-2.127 2.954c-.46.462-.79 1.228-.994 2.339-.2 1.098-.254 2.398-.267 3.808-.004.442-.004.899-.004 1.36 0 .974 0 1.97-.038 2.902-.057 1.378-.2 2.75-.594 3.899-.074.216-.23.543-.575.754a1.23 1.23 0 0 1-1.044.106 1.9 1.9 0 0 1-.543-.307 5 5 0 0 1-.354-.317l-.216-.216c-.092-.093-.17-.171-.25-.244a7 7 0 0 0-.305.259c-.084.073-.177.155-.292.252-.197.165-.56.468-.973.587-.243.07-.61.107-.981-.09a1.4 1.4 0 0 1-.64-.758c-.425-1.133-.646-2.534-.785-3.961-.112-1.162-.175-2.4-.236-3.592v-.002l-.043-.833c-.077-1.46-.169-2.8-.358-3.891-.2-1.146-.472-1.785-.74-2.055-.607-.61-1.283-1.598-1.794-2.722s-.903-2.482-.833-3.827c.072-1.384.637-2.751 2.004-3.739m5.789 24.22h-.002z"
    clip-rule="evenodd"
  />
</svg>
