<svg
  xmlns="http://www.w3.org/2000/svg"
  width="24"
  height="24"
  viewBox="0 0 24 24"
  fill="none"
  stroke="currentColor"
  stroke-width="2"
  stroke-linecap="round"
  stroke-linejoin="round"
>
  <path
    fill-rule="evenodd"
    d="M39 8H9a1 1 0 0 0-1 1v30a1 1 0 0 0 1 1h30a1 1 0 0 0 1-1V9a1 1 0 0 0-1-1M9 6a3 3 0 0 0-3 3v30a3 3 0 0 0 3 3h30a3 3 0 0 0 3-3V9a3 3 0 0 0-3-3z"
    clip-rule="evenodd"
  />
  <path
    fill-rule="evenodd"
    d="M17 10a2 2 0 0 0-2 2v24a2 2 0 0 0 2 2h14a2 2 0 0 0 2-2V12a2 2 0 0 0-2-2zm14 2H17v9h14zm-9.727 12.636a1.636 1.636 0 1 1-3.273 0 1.636 1.636 0 0 1 3.273 0M24 26.273A1.636 1.636 0 1 0 24 23a1.636 1.636 0 0 0 0 3.273m6-1.637a1.636 1.636 0 1 1-3.273 0 1.636 1.636 0 0 1 3.273 0m-10.364 6a1.636 1.636 0 1 0 0-3.272 1.636 1.636 0 0 0 0 3.272m6-1.636a1.636 1.636 0 1 1-3.273 0 1.636 1.636 0 0 1 3.273 0m2.728 1.636a1.636 1.636 0 1 0 0-3.272 1.636 1.636 0 0 0 0 3.272M30 33.364a1.636 1.636 0 1 1-3.273 0 1.636 1.636 0 0 1 3.273 0m-10.364-1.637a1.636 1.636 0 1 0 0 3.273H24a1.636 1.636 0 0 0 0-3.273z"
    clip-rule="evenodd"
  />
</svg>
