<svg
  xmlns="http://www.w3.org/2000/svg"
  width="24"
  height="24"
  viewBox="0 0 24 24"
  fill="none"
  stroke="currentColor"
  stroke-width="2"
  stroke-linecap="round"
  stroke-linejoin="round"
>
  <path
    fill-rule="evenodd"
    d="M9 6a3 3 0 0 0-3 3v30a3 3 0 0 0 3 3h30a3 3 0 0 0 3-3V9a3 3 0 0 0-3-3zm8 4a2 2 0 0 0-2 2v24a2 2 0 0 0 2 2h14a2 2 0 0 0 2-2V12a2 2 0 0 0-2-2z"
    clip-rule="evenodd"
  />
  <path d="M17 12h14v9H17z" />
  <path d="M21.273 24.636a1.636 1.636 0 1 1-3.273 0 1.636 1.636 0 0 1 3.273 0" />
  <path d="M25.636 24.636a1.636 1.636 0 1 1-3.272 0 1.636 1.636 0 0 1 3.272 0" />
  <path d="M30 24.636a1.636 1.636 0 1 1-3.273 0 1.636 1.636 0 0 1 3.273 0" />
  <path d="M21.273 29A1.636 1.636 0 1 1 18 29a1.636 1.636 0 0 1 3.273 0" />
  <path d="M25.636 29a1.636 1.636 0 1 1-3.273 0 1.636 1.636 0 0 1 3.273 0" />
  <path d="M30 29a1.636 1.636 0 1 1-3.273 0A1.636 1.636 0 0 1 30 29" />
  <path d="M30 33.364a1.636 1.636 0 1 1-3.273 0 1.636 1.636 0 0 1 3.273 0" />
  <path d="M18 33.364c0-.904.733-1.637 1.636-1.637H24A1.636 1.636 0 1 1 24 35h-4.364A1.636 1.636 0 0 1 18 33.364" />
</svg>
