<svg
  xmlns="http://www.w3.org/2000/svg"
  width="24"
  height="24"
  viewBox="0 0 24 24"
  fill="none"
  stroke="currentColor"
  stroke-width="2"
  stroke-linecap="round"
  stroke-linejoin="round"
>
  <path
    fill-rule="evenodd"
    d="m38.815 6-9.126 9.126 2.622 1.748 4.482-4.481a1 1 0 0 1 1.414 1.414l-5.5 5.5-.007-.007-2.114 2.114A2 2 0 0 0 30 22.828v.456a2 2 0 0 1-.6 1.43l-3.65 3.573A6 6 0 0 1 21.551 30H12l15.7-15.7-.007-.007L35.986 6H9a3 3 0 0 0-3 3v30a3 3 0 0 0 3 3h30a3 3 0 0 0 3-3V9a3 3 0 0 0-3-3zM16.828 28h4.724a4 4 0 0 0 2.798-1.142L28 23.284v-.456A4 4 0 0 1 29.172 20l1.689-1.69-2.606-1.736zM20 34H10v2h10zm8 0v2h4v-2zm-6 0h4v2h-4zm16 0h-4v2h4zM26.707 22.707a1 1 0 0 0-1.414-1.414l-3 3a1 1 0 0 0 1.414 1.414z"
    clip-rule="evenodd"
  />
</svg>
