<svg
  xmlns="http://www.w3.org/2000/svg"
  width="24"
  height="24"
  viewBox="0 0 24 24"
  fill="none"
  stroke="currentColor"
  stroke-width="2"
  stroke-linecap="round"
  stroke-linejoin="round"
>
  <path
    fill-rule="evenodd"
    d="M26 8a2 2 0 1 0-4 0v2.114a14 14 0 0 0-9.64 6.078A14 14 0 0 0 22 37.827V40a2 2 0 1 0 4 0v-2.173q.366-.052.731-.126A14 14 0 0 0 33.9 33.87a2 2 0 0 0-2.829-2.829A10 10 0 0 1 26 33.768V14.172a10 10 0 0 1 5.071 2.727 2 2 0 1 0 2.829-2.828 14 14 0 0 0-7.9-3.957zm-4 6.172a10 10 0 0 0-6.315 4.243A10 10 0 0 0 22 33.768z"
    clip-rule="evenodd"
  />
</svg>
