<svg
  xmlns="http://www.w3.org/2000/svg"
  width="24"
  height="24"
  viewBox="0 0 24 24"
  fill="none"
  stroke="currentColor"
  stroke-width="2"
  stroke-linecap="round"
  stroke-linejoin="round"
>
  <path
    fill-rule="evenodd"
    d="M38.707 8.293a1 1 0 0 1 0 1.414L28.672 19.742c.807.007 1.644-.004 2.534-.016.776-.01 1.591-.02 2.46-.02 2.384 0 4.038.936 5.068 2.426.985 1.425 1.325 3.244 1.39 4.92.067 1.695-.143 3.37-.364 4.605a26 26 0 0 1-.42 1.933l-.007.022V39a1 1 0 0 1-1 1H34a1 1 0 0 1-1-1c0-.847.128-1.497.37-2.018.248-.536.58-.852.823-1.063l.146-.128c-1.718-.989-2.727-1.817-3.522-2.873-.424-.562-.768-1.164-1.124-1.831a86 86 0 0 1-.415-.792c-.134-.258-.274-.528-.427-.818L22 31.747v5.527c0 .638-.101 1.3-.521 1.83-.434.548-1.053.76-1.63.855-.57.093-1.264.096-2.029.084l-.476-.009-.3-.006A90 90 0 0 0 15 40c-.41 0-.844-.177-1.108-.595-.219-.347-.229-.72-.209-.957.041-.49.26-1.015.516-1.452a5 5 0 0 1 1.073-1.294c.413-.345.982-.677 1.653-.7v-.004a4 4 0 0 0-.018-.547 23 23 0 0 0-.116-.946c-.102-.762-.234-1.741-.277-2.798-.914-.392-1.643-.83-2.19-1.383-.7-.71-1.022-1.532-1.148-2.463-.12-.88-.069-1.913-.002-3.068l.02-.338c.047-.816.1-1.73.125-2.773-1.087.274-2.284.318-3.319.318-2.02 0-3-1.712-3.437-2.887a10 10 0 0 1-.454-1.715 10 10 0 0 1-.1-.726l-.004-.048-.002-.014v-.007L7 15.529l-.997.074a1 1 0 0 1 .674-1.02l.454-.156a882 882 0 0 0 2.996-1.032c.167-.515.476-1.003.802-1.401.513-.627 1.221-1.225 2.022-1.6.8-.373 1.792-.567 2.77-.188.991.384 1.737 1.266 2.217 2.558.77 2.075 1.63 3.497 2.571 4.487.93.978 1.976 1.572 3.19 1.937a12 12 0 0 0 2.271.429L37.293 8.293a1 1 0 0 1 1.414 0m-15.585 12.81q.534.159 1.09.27L22.086 23.5h-6.892c.06-1.043.132-2.293.139-3.777.235-.194.45-.42.637-.682.462-.647.697-1.441.697-2.366h-2c0 .576-.141.947-.325 1.204-.188.264-.478.485-.897.662-.878.37-2.11.459-3.445.459-.646 0-1.167-.524-1.563-1.585a7.6 7.6 0 0 1-.33-1.209l.763-.262a317 317 0 0 0 2.464-.854 1 1 0 0 0 .666-.943c0-.084.095-.42.477-.888.352-.43.831-.824 1.322-1.054s.895-.253 1.2-.135c.289.112.71.438 1.064 1.39.832 2.24 1.814 3.924 2.997 5.168 1.193 1.255 2.55 2.02 4.062 2.474m-2.436 8.973.814-.27V25.5h-6.396c-.004.42.01.777.054 1.093.082.605.26.992.59 1.327.365.37.987.748 2.105 1.17a1 1 0 0 1 .647.935c0 1.18.132 2.148.25 3.021.059.427.114.832.149 1.228.045.512.074 1.17-.178 1.717a1.66 1.66 0 0 1-.723.779c-.324.176-.674.23-.998.23-.046 0-.2.031-.444.236a3 3 0 0 0-.63.768l-.001.003q.644.009 1.19.022l.737.014c.782.013 1.306.002 1.674-.058.176-.029.277-.063.333-.09a.3.3 0 0 0 .044-.026l.002-.001.007-.006c.002-.003.088-.113.088-.588v-6.249a1 1 0 0 1 .686-.949m6.045-8.393L23.5 24.914v4.23l5.519-1.83a1 1 0 0 1 1.192.47c.327.598.612 1.146.862 1.626q.208.403.385.736c.343.644.63 1.135.956 1.569.63.835 1.481 1.555 3.402 2.612a1 1 0 0 1 .485.625c.15.577.177 1.134-.074 1.648-.191.39-.527.667-.676.79l-.014.011-.034.029c-.15.13-.242.227-.32.393a1.4 1.4 0 0 0-.066.177h2.216v-4.304l-3.241-7.05 1.817-.835 2.046 4.45c.128-.96.213-2.05.17-3.13-.059-1.518-.365-2.891-1.036-3.861-.626-.905-1.639-1.564-3.422-1.564-.806 0-1.6.01-2.373.02-1.17.015-2.29.029-3.318.006q-.632-.014-1.245-.05"
    clip-rule="evenodd"
  />
</svg>
