<svg
  xmlns="http://www.w3.org/2000/svg"
  width="24"
  height="24"
  viewBox="0 0 24 24"
  fill="none"
  stroke="currentColor"
  stroke-width="2"
  stroke-linecap="round"
  stroke-linejoin="round"
>
  <path d="M19 32V16h-3v16z" />
  <path d="M14 29V19h-3v4h-1v2h1v4z" />
  <path d="M29 16v16h3V16z" />
  <path d="M34 29h3v-4h1v-2h-1v-4h-3z" />
  <path d="M21 25h6v-2h-6z" />
  <path
    fill-rule="evenodd"
    d="M6 9a3 3 0 0 1 3-3h30a3 3 0 0 1 3 3v30a3 3 0 0 1-3 3H9a3 3 0 0 1-3-3zm2 0a1 1 0 0 1 1-1h30a1 1 0 0 1 1 1v30a1 1 0 0 1-1 1H9a1 1 0 0 1-1-1z"
    clip-rule="evenodd"
  />
</svg>
