<svg
  xmlns="http://www.w3.org/2000/svg"
  width="24"
  height="24"
  viewBox="0 0 24 24"
  fill="none"
  stroke="currentColor"
  stroke-width="2"
  stroke-linecap="round"
  stroke-linejoin="round"
>
  <path
    fill-rule="evenodd"
    d="M17 28.013c.503-.115 2 1.987 2 1.987h10s1.497-2.102 2-1.987c5.404 1.23 11 4.782 11 8.557V42H6v-5.43c0-3.775 5.596-7.327 11-8.557M32 34v-2h2v2h2v2h-2v2h-2v-2h-2v-2z"
    clip-rule="evenodd"
  />
  <path
    fill-rule="evenodd"
    d="M24 24a8 8 0 1 0 0-16 8 8 0 0 0 0 16m0 2c5.523 0 10-4.477 10-10S29.523 6 24 6s-10 4.477-10 10 4.477 10 10 10"
    clip-rule="evenodd"
  />
</svg>
