<svg
  xmlns="http://www.w3.org/2000/svg"
  width="24"
  height="24"
  viewBox="0 0 24 24"
  fill="none"
  stroke="currentColor"
  stroke-width="2"
  stroke-linecap="round"
  stroke-linejoin="round"
>
  <path d="m14.027 19.558.662.75zm21.766-.875-.662.75zM18.41 13.522l.565.825a1 1 0 0 0 .217-1.449zM16 10.5l-.539-.843a1 1 0 0 0-.243 1.466zm3.373-2.158.781-.624a1 1 0 0 0-1.32-.219zm2.409 3.02-.782.624a1 1 0 0 0 1.206.282zm2.762-1.294.424.906a1 1 0 0 0 .576-.906zm0-3.069V6a1 1 0 0 0-1 1zm4.304 0h1a1 1 0 0 0-1-1zm0 3.07h-1a1 1 0 0 0 .52.876zM13 20.03l-.862.506a1 1 0 0 0 1.416.326zm-4-2.667-.983-.186a1 1 0 0 0 .825 1.173zm.896-4.728.282-.96a1 1 0 0 0-1.265.774zM17 18.032l.37.929a1 1 0 0 0 .622-1.058zm14.584-.795.42.908zm-8.428 2.168-.897-.443-.527 1.068 1.143.334zm6.097-6.22-.42-.908zm9.417-1.39 1 .037.036-1.001-1.001-.035zm-.175 4.752-.034 1 .997.034.037-.997zm-10.292 3.787-.847-.533zm-1.34.444-.392.92zm-1.13 9.513.918-.397zm-.273-3.993.963.268zM13.364 18.81c-2.005 1.774-2.756 4.196-2.671 6.718.084 2.501.986 5.147 2.34 7.542 1.356 2.399 3.2 4.607 5.242 6.226C20.304 40.903 22.621 42 24.91 42v-2c-1.669 0-3.556-.817-5.393-2.272-1.822-1.445-3.502-3.448-4.743-5.644-1.244-2.2-2.012-4.532-2.082-6.625-.07-2.073.54-3.862 1.997-5.152zM24.91 42c2.283 0 4.66-1.092 6.764-2.707 2.12-1.629 4.062-3.862 5.485-6.32 2.797-4.83 3.817-11.04-.703-15.039l-1.325 1.498c3.41 3.016 2.946 7.964.297 12.54-1.3 2.243-3.07 4.274-4.972 5.734C28.538 39.18 26.584 40 24.91 40zm11.546-24.066a6.6 6.6 0 0 0-1.51-1.018c-.472-.239-.908-.429-1.613-.845l-1.016 1.723c.78.46 1.332.707 1.726.906.377.19.672.365 1.088.732zm-12.645.615c-1.49-.487-3.422-.963-5.283-1.07-1.814-.104-3.805.128-5.164 1.33l1.325 1.498c.745-.659 2.049-.927 3.725-.831 1.629.093 3.381.518 4.775.974zm-4.62-5.65-2.41-3.022-1.563 1.247 2.41 3.021zm-2.652-1.556 3.372-2.158L18.835 7.5 15.46 9.658zm2.052-2.377L21 11.987l1.563-1.247-2.409-3.02zm3.615 3.303 2.762-1.294-.848-1.811-2.763 1.294zm3.338-2.2V7h-2v3.07zm-1-2.069h4.304V6h-4.304zm3.304-1v3.07h2V7zm1 3.07-.48.876h-.002v-.001h-.001l.003.001.024.015q.038.021.117.071a6.675 6.675 0 0 1 1.69 1.579l1.603-1.194a8.7 8.7 0 0 0-2.392-2.178l-.055-.032-.017-.01-.006-.003-.002-.001h-.001v-.001zm-11.385 6.589a4.65 4.65 0 0 1 .952-1.775 4 4 0 0 1 .541-.524l.023-.017h.002-.003l-.001.002h-.002v.001l-.566-.824-.566-.825-.002.002-.003.002-.008.006-.022.015a3 3 0 0 0-.275.22 6 6 0 0 0-.633.637 6.65 6.65 0 0 0-1.363 2.54zM13 20.029l.862-.507-.002-.002-.002-.004-.025-.04-.062-.097a6 6 0 0 0-.223-.312 7.4 7.4 0 0 0-.862-.945c-.763-.703-1.936-1.492-3.528-1.747l-.316 1.975c1.094.175 1.921.72 2.487 1.242a5.4 5.4 0 0 1 .776.893l.035.055-.001-.002v-.001h-.001zm-3.017-2.48.895-4.728-1.965-.372-.896 4.728zm-.087-4.914-.283.96h.002l.01.003.049.015.195.063a18.913 18.913 0 0 1 2.939 1.25c.817.437 1.602.953 2.196 1.53.6.582.933 1.154 1.004 1.705l1.984-.258c-.152-1.167-.82-2.13-1.594-2.882-.78-.757-1.743-1.375-2.647-1.859a21 21 0 0 0-3.484-1.459l-.063-.02-.018-.005-.007-.002zm6.733 4.469a29 29 0 0 0-3.045 1.423 20 20 0 0 0-1.112.653l-.018.011-.005.004-.002.001c-.001 0-.001.001.553.833l.554.833.01-.006a6 6 0 0 1 .229-.144c.167-.101.419-.25.748-.428a27 27 0 0 1 2.83-1.323zm12.42 3.762c.914-1.452 1.88-2.224 2.955-2.721l-.84-1.815c-1.44.667-2.697 1.706-3.808 3.471zm-6.174-.502c1.24.363 2.688.947 3.596 1.334l.783-1.84c-.924-.394-2.46-1.016-3.818-1.413zm5.958-8.087c-2.927 1.355-4.913 3.322-6.574 6.685l1.793.885c1.482-3 3.154-4.613 5.62-5.755zm9.872-1.48c-3.753-.13-7.052.175-9.872 1.48l.84 1.815c2.396-1.11 5.322-1.423 8.963-1.297zm.79 5.787.174-4.751-1.998-.074-.175 4.752zm-7.49 1.56c1.297-.6 3.013-.716 6.456-.597l.069-1.999c-3.38-.117-5.572-.049-7.366.782zm-4.649 1.657a.13.13 0 0 1-.067.054c-.022.008-.032.004-.035.003l-.783 1.84c.975.415 2.054.002 2.578-.832zm-2.54 10.887.412.953 1.835-.794-.412-.953zm.332.624.28 4.104 1.995-.137-.28-4.103zm1.113.926 4.256-.494-.23-1.987-4.257.494zm.831-12.158-2.328 5.038 1.815.84 2.329-5.038zm-2.384 5.19-.212.76 1.927.536.212-.76zm.552-.643-4.353 1.968.824 1.822 4.353-1.968zm-3.712 1.906-4.336-1.022-.459 1.947 4.337 1.021zm-1.159.605-1.479 3.738 1.86.736 1.479-3.738zm6.262 2.756a5 5 0 0 1-.228-3.328l-1.927-.536a7 7 0 0 0 .32 4.658z" />
</svg>
