<svg
  xmlns="http://www.w3.org/2000/svg"
  width="24"
  height="24"
  viewBox="0 0 24 24"
  fill="none"
  stroke="currentColor"
  stroke-width="2"
  stroke-linecap="round"
  stroke-linejoin="round"
>
  <path d="M9 19.035C9 13.309 12.812 8 18.031 8c3.622 0 6.31 2.382 7.969 5.761C27.659 10.382 30.347 8 33.969 8 39.189 8 43 13.31 43 19.035 43 31.289 26 40 26 40s-11.451-5.513-15.557-14.556h10.142l1.612-2.865 1.883 6.59 4.41-5.669H34v-2h-6.49l-2.59 3.33-2.117-7.409-3.388 6.023H9.68q.32 1.028.763 2H6v-2h3.68c-.434-1.399-.68-2.87-.68-4.41" />
</svg>
