<svg
  xmlns="http://www.w3.org/2000/svg"
  width="24"
  height="24"
  viewBox="0 0 24 24"
  fill="none"
  stroke="currentColor"
  stroke-width="2"
  stroke-linecap="round"
  stroke-linejoin="round"
>
  <path d="M24.507 10.138a1 1 0 0 0-1.014 0L5.631 20.645l1.014 1.724L24 12.16 41.355 22.37l1.014-1.724L36 16.9V12a1 1 0 0 0-1-1h-3a1 1 0 0 0-1 1v1.957z" />
  <path
    fill-rule="evenodd"
    d="m24 14-14 8v14H5a1 1 0 1 0 0 2h36a1 1 0 1 0 0-2h-3V22zm4 22V25h6v11zm-3-11H14v6h11z"
    clip-rule="evenodd"
  />
</svg>
