<svg
  xmlns="http://www.w3.org/2000/svg"
  width="24"
  height="24"
  viewBox="0 0 24 24"
  fill="none"
  stroke="currentColor"
  stroke-width="2"
  stroke-linecap="round"
  stroke-linejoin="round"
>
  <path
    fill-rule="evenodd"
    d="M41.708 25.794 24.058 8.086 6.294 25.792a1 1 0 1 0 1.412 1.416L10 24.922V39a1 1 0 0 0 1 1h9a1 1 0 0 0 1-1v-8.74a1 1 0 0 1 1-1h4a1 1 0 0 1 1 1V39a1 1 0 0 0 1 1h9a1 1 0 0 0 1-1V24.907l2.292 2.3a1 1 0 1 0 1.416-1.413M36 22.9 24.053 10.914 12 22.928V38h7v-7.74a3 3 0 0 1 3-3h4a3 3 0 0 1 3 3V38h7z"
    clip-rule="evenodd"
  />
</svg>
