<svg
  xmlns="http://www.w3.org/2000/svg"
  width="24"
  height="24"
  viewBox="0 0 24 24"
  fill="none"
  stroke="currentColor"
  stroke-width="2"
  stroke-linecap="round"
  stroke-linejoin="round"
>
  <path d="M20 20h-4v3h4z" />
  <path d="M16 25h4v3h-4z" />
  <path d="M20 30h-4v3h4z" />
  <path d="M22 20h4v3h-4z" />
  <path d="M26 25h-4v3h4z" />
  <path d="M22 30h4v3h-4z" />
  <path d="M32 20h-4v3h4z" />
  <path d="M28 25h4v3h-4z" />
  <path d="M32 30h-4v3h4z" />
  <path d="M25 15v-3h3v-2h-3V7h-2v3h-3v2h3v3z" />
  <path
    fill-rule="evenodd"
    d="M17 6a2 2 0 0 1 2-2h10a2 2 0 0 1 2 2h8v2h-2v34h2a1 1 0 1 1 0 2H9a1 1 0 1 1 0-2h2V8h-1V6zm0 5h-4v31h4v-4h-1v-2h16v2h-1v4h4V11h-4v5a2 2 0 0 1-2 2H19a2 2 0 0 1-2-2zm0-2h-4V8h4zm2-3h10v10H19zm4 36h-4v-4h4zm6 0v-4h-4v4zm6-33V8h-4v1z"
    clip-rule="evenodd"
  />
</svg>
