<svg
  xmlns="http://www.w3.org/2000/svg"
  width="24"
  height="24"
  viewBox="0 0 24 24"
  fill="none"
  stroke="currentColor"
  stroke-width="2"
  stroke-linecap="round"
  stroke-linejoin="round"
>
  <path
    fill-rule="evenodd"
    d="M6 9a3 3 0 0 1 3-3h30a3 3 0 0 1 3 3v30a3 3 0 0 1-3 3H9a3 3 0 0 1-3-3zm13 11a3 3 0 1 1-6 0 3 3 0 1 1 6 0m-7 7.727c0-.118.047-.276.256-.486.218-.22.564-.442 1.019-.641.914-.4 2.028-.6 2.725-.6s1.81.2 2.725.6c.455.198.8.42 1.019.64.21.211.256.369.256.487V31h2v-3.273c0-.788-.37-1.425-.837-1.896-.459-.461-1.05-.807-1.637-1.064C18.358 24.257 16.971 24 16 24c-.972 0-2.358.257-3.526.767-.587.257-1.178.603-1.637 1.064-.467.471-.837 1.108-.837 1.896V31h2zm16.256-.486c-.21.21-.256.368-.256.486V31h-2v-3.273c0-.788.37-1.425.837-1.896.459-.461 1.05-.807 1.637-1.064C29.642 24.257 31.029 24 32 24s2.358.257 3.526.767c.587.257 1.178.603 1.637 1.064.468.471.837 1.108.837 1.896V31h-2v-3.273c0-.118-.047-.276-.256-.486-.218-.22-.564-.442-1.019-.641-.914-.4-2.028-.6-2.725-.6s-1.81.2-2.725.6c-.455.198-.8.42-1.019.64M32 23a3 3 0 1 0 0-6 3 3 0 1 0 0 6m-5-5a3 3 0 1 1-6 0 3 3 0 1 1 6 0m-4.754 7.166c.07-.079.168-.143.451-.17.151-.015.328-.017.554-.012l.202.005c.17.005.363.011.547.011s.377-.006.547-.01l.202-.006c.226-.005.403-.004.554.011.283.028.38.092.451.171l1.492-1.332c-.525-.588-1.18-.774-1.748-.83-.344-.033-.77-.021-1.12-.012-.142.004-.272.008-.378.008s-.236-.004-.378-.008c-.35-.01-.776-.02-1.12.013-.568.055-1.223.241-1.748.829z"
    clip-rule="evenodd"
  />
</svg>
