<svg
  xmlns="http://www.w3.org/2000/svg"
  width="24"
  height="24"
  viewBox="0 0 24 24"
  fill="none"
  stroke="currentColor"
  stroke-width="2"
  stroke-linecap="round"
  stroke-linejoin="round"
>
  <path d="M28.753 6.342A1 1 0 0 0 27 7v7a2 2 0 0 0 2 2h6a1 1 0 0 0 .753-1.658zM20.75 23h-1.5l.75-1.8zm6.808-18L37 15.387V40a3 3 0 0 1-3 3H14a3 3 0 0 1-3-3V8a3 3 0 0 1 3-3zm-5.712 10.23a2 2 0 0 0-3.692 0l-5 12a2 2 0 0 0 3.692 1.54l.737-1.77h4.834l.737 1.77a2 2 0 0 0 3.692-1.54l-.103-.246Q26.87 27 27 27h1v1a2 2 0 1 0 4 0v-1h1a2 2 0 1 0 0-4h-1v-1a2 2 0 1 0-4 0v1h-1c-.648 0-1.224.308-1.59.786zM15 31a2 2 0 1 0 0 4 2 2 0 1 0 0 4h12a2 2 0 0 0 .002-4H33a2 2 0 1 0 0-4z" />
</svg>
