<svg
  xmlns="http://www.w3.org/2000/svg"
  width="24"
  height="24"
  viewBox="0 0 24 24"
  fill="none"
  stroke="currentColor"
  stroke-width="2"
  stroke-linecap="round"
  stroke-linejoin="round"
>
  <path
    fill-rule="evenodd"
    d="M12 21a2 2 0 0 0-2 2v2a2 2 0 0 0 2 2h2a2 2 0 0 0 2-2v-2a2 2 0 0 0-2-2zm0 2v2h2v-2z"
    clip-rule="evenodd"
  />
  <path
    fill-rule="evenodd"
    d="M18 23a2 2 0 0 1 2-2h2a2 2 0 0 1 2 2v2a2 2 0 0 1-2 2h-2a2 2 0 0 1-2-2zm2 0h2v2h-2z"
    clip-rule="evenodd"
  />
  <path
    fill-rule="evenodd"
    d="M28 21a2 2 0 0 0-2 2v2a2 2 0 0 0 2 2h2a2 2 0 0 0 2-2v-2a2 2 0 0 0-2-2zm0 2v2h2v-2z"
    clip-rule="evenodd"
  />
  <path
    fill-rule="evenodd"
    d="M10 31a2 2 0 0 1 2-2h2a2 2 0 0 1 2 2v2a2 2 0 0 1-2 2h-2a2 2 0 0 1-2-2zm4 0v2h-2v-2z"
    clip-rule="evenodd"
  />
  <path
    fill-rule="evenodd"
    d="M20 29a2 2 0 0 0-2 2v2a2 2 0 0 0 2 2h2a2 2 0 0 0 2-2v-2a2 2 0 0 0-2-2zm2 2h-2v2h2z"
    clip-rule="evenodd"
  />
  <path d="M36 32.5a1 1 0 1 0-2 0v2.914l1.293 1.293a1 1 0 0 0 1.414-1.414L36 34.586z" />
  <path
    fill-rule="evenodd"
    d="M12 7a1 1 0 1 1 2 0v5a1 1 0 1 0 2 0V9h10V7a1 1 0 1 1 2 0v5a1 1 0 1 0 2 0V9h3a3 3 0 0 1 3 3v16.07A7.001 7.001 0 0 1 35 42a6.99 6.99 0 0 1-5.745-3H9a3 3 0 0 1-3-3V12a3 3 0 0 1 3-3h3zm16 28a7 7 0 0 1 6-6.93V18H8v18a1 1 0 0 0 1 1h19.29a7 7 0 0 1-.29-2m12 0a5 5 0 1 1-10 0 5 5 0 0 1 10 0"
    clip-rule="evenodd"
  />
</svg>
