<svg
  xmlns="http://www.w3.org/2000/svg"
  width="24"
  height="24"
  viewBox="0 0 24 24"
  fill="none"
  stroke="currentColor"
  stroke-width="2"
  stroke-linecap="round"
  stroke-linejoin="round"
>
  <path
    fill-rule="evenodd"
    d="M6 6h31v5h-2V8H8v23h21.387v2H6zm30 13a3 3 0 1 0 0-6 3 3 0 0 0 0 6m2.031 2.01c1.299 0 2.327.584 3 1.486.629.845.895 1.89.955 2.855.061.979-.08 2.005-.397 2.92-.3.87-.807 1.77-1.589 2.387V40.5a1.5 1.5 0 0 1-2.98.247L35.73 33h-.298l-1.458 7.776A1.5 1.5 0 0 1 31 40.5V26.233a63 63 0 0 0-.592.919l-.078.123-.02.032-.005.009a1.5 1.5 0 0 1-1.274.707h-5a1.5 1.5 0 1 1 0-3h4.177c.243-.376.563-.864.899-1.354.35-.511.736-1.052 1.08-1.476.167-.207.354-.423.542-.6.092-.087.22-.2.376-.3a1.7 1.7 0 0 1 .926-.282z"
    clip-rule="evenodd"
  />
</svg>
