<svg
  xmlns="http://www.w3.org/2000/svg"
  width="24"
  height="24"
  viewBox="0 0 24 24"
  fill="none"
  stroke="currentColor"
  stroke-width="2"
  stroke-linecap="round"
  stroke-linejoin="round"
>
  <path
    fill-rule="evenodd"
    d="M28 4h-9v40h9v-4h-4v-2h4v-3h-2v-2h2v-3h-2v-2h2v-3h-4v-2h4v-3h-2v-2h2v-3h-2v-2h2v-3h-4V8h4z"
    clip-rule="evenodd"
  />
  <path
    fill-rule="evenodd"
    d="M33 28a2 2 0 0 0-2 2v5h7v-5a2 2 0 0 0-2-2zm5 9h-7v5a2 2 0 0 0 2 2h3a2 2 0 0 0 2-2z"
    clip-rule="evenodd"
  />
  <path
    fill-rule="evenodd"
    d="M33 30v3h3v-3zm5 0a2 2 0 0 0-2-2h-3a2 2 0 0 0-2 2v5h7zm-7 7h7v5a2 2 0 0 1-2 2h-3a2 2 0 0 1-2-2zm5 2h-3v3h3z"
    clip-rule="evenodd"
  />
  <path
    fill-rule="evenodd"
    d="M13 11a3 3 0 0 0-3 3v3h6v-3a3 3 0 0 0-3-3m3 8h-6v21l3 4 3-4z"
    clip-rule="evenodd"
  />
</svg>
