<svg
  xmlns="http://www.w3.org/2000/svg"
  width="24"
  height="24"
  viewBox="0 0 24 24"
  fill="none"
  stroke="currentColor"
  stroke-width="2"
  stroke-linecap="round"
  stroke-linejoin="round"
>
  <path
    fill-rule="evenodd"
    d="M38 24c0 7.732-6.268 14-14 14s-14-6.268-14-14 6.268-14 14-14 14 6.268 14 14m2 0c0 8.837-7.163 16-16 16S8 32.837 8 24 15.163 8 24 8s16 7.163 16 16m-8.757 4.243a6 6 0 1 1 0-8.486l1.414-1.414a8 8 0 1 0 0 11.314zM15 21v10h2V21zm2.5-2.5a1.5 1.5 0 1 1-3 0 1.5 1.5 0 0 1 3 0"
    clip-rule="evenodd"
  />
</svg>
