<svg
  xmlns="http://www.w3.org/2000/svg"
  width="24"
  height="24"
  viewBox="0 0 24 24"
  fill="none"
  stroke="currentColor"
  stroke-width="2"
  stroke-linecap="round"
  stroke-linejoin="round"
>
  <path d="M28 24a4 4 0 1 1-8 0 4 4 0 0 1 8 0" />
  <path d="M42 19a3 3 0 1 1-6 0 3 3 0 0 1 6 0" />
  <path d="M12 19a3 3 0 1 1-6 0 3 3 0 0 1 6 0" />
  <path
    fill-rule="evenodd"
    d="M17.936 22.351a1 1 0 0 1-1.287.586l-8-3a1 1 0 0 1 .702-1.873l8 3a1 1 0 0 1 .585 1.287"
    clip-rule="evenodd"
  />
  <path d="M24 10.902a3 3 0 1 1 0-6 3 3 0 0 1 0 6" />
  <path
    fill-rule="evenodd"
    d="M23.902 17.5a1 1 0 0 1-1-1V7.902a1 1 0 1 1 2 0V16.5a1 1 0 0 1-1 1"
    clip-rule="evenodd"
  />
  <path
    fill-rule="evenodd"
    d="M39.929 18.629a1 1 0 0 1-.558 1.3l-7.5 3a1 1 0 0 1-.742-1.857l7.5-3a1 1 0 0 1 1.3.557"
    clip-rule="evenodd"
  />
  <path d="M17 38a3 3 0 1 1-6 0 3 3 0 0 1 6 0" />
  <path
    fill-rule="evenodd"
    d="M20.118 29.714a1 1 0 0 1 .168 1.404l-5.5 7a1 1 0 0 1-1.572-1.236l5.5-7a1 1 0 0 1 1.404-.168"
    clip-rule="evenodd"
  />
  <path d="M31.5 38a3 3 0 1 0 6 0 3 3 0 0 0-6 0" />
  <path
    fill-rule="evenodd"
    d="M28.382 29.714a1 1 0 0 0-.168 1.404l5.5 7a1 1 0 0 0 1.572-1.236l-5.5-7a1 1 0 0 0-1.404-.168"
    clip-rule="evenodd"
  />
</svg>
