<svg
  xmlns="http://www.w3.org/2000/svg"
  width="24"
  height="24"
  viewBox="0 0 24 24"
  fill="none"
  stroke="currentColor"
  stroke-width="2"
  stroke-linecap="round"
  stroke-linejoin="round"
>
  <path
    fill-rule="evenodd"
    d="M24 42c9.941 0 18-8.059 18-18S33.941 6 24 6 6 14.059 6 24s8.059 18 18 18m0 2c11.046 0 20-8.954 20-20S35.046 4 24 4 4 12.954 4 24s8.954 20 20 20"
    clip-rule="evenodd"
  />
  <path
    fill-rule="evenodd"
    d="M19.2 11.217C19.2 10 19.8 10 21.6 10h4.8c1.8 0 2.4 0 2.4 1.217s-1.2 1.826-1.2 1.826l2.4 9.13v13.392C30 36.91 28.925 38 27.6 38h-7.2c-1.325 0-2.4-1.09-2.4-2.435V22.174l2.4-9.13s-1.2-.61-1.2-1.827M24 23.553c-1.333-1.245-4 0-4 0V35a1 1 0 0 0 1 1h6a1 1 0 0 0 1-1V24.798s-2.667 0-4-1.245"
    clip-rule="evenodd"
  />
  <path
    fill-rule="evenodd"
    d="M10.293 9.793a1 1 0 0 1 1.414 0l5.5 5.5a1 1 0 0 1-1.414 1.414l-5.5-5.5a1 1 0 0 1 0-1.414"
    clip-rule="evenodd"
  />
  <path
    fill-rule="evenodd"
    d="m37.293 38.707-9-9 1.414-1.414 9 9z"
    clip-rule="evenodd"
  />
</svg>
