<svg
  xmlns="http://www.w3.org/2000/svg"
  width="24"
  height="24"
  viewBox="0 0 24 24"
  fill="none"
  stroke="currentColor"
  stroke-width="2"
  stroke-linecap="round"
  stroke-linejoin="round"
>
  <path d="M13.57 20.39a1 1 0 1 0 0-2 1 1 0 0 0 0 2" />
  <path d="M16.363 16.984a.5.5 0 1 1-1 0 .5.5 0 0 1 1 0" />
  <path d="M15.637 18.89a.5.5 0 1 0 0-1 .5.5 0 0 0 0 1" />
  <path d="M18.348 16.077a.7.7 0 1 1-1.4 0 .7.7 0 0 1 1.4 0" />
  <path d="M32.419 31.898a1 1 0 1 1-2 0 1 1 0 0 1 2 0" />
  <path d="M29.965 31.166a.453.453 0 1 0 0-.906.453.453 0 0 0 0 .906" />
  <path d="M27.274 29.039a.447.447 0 1 1-.894 0 .447.447 0 0 1 .894 0" />
  <path d="M28.316 30.712a.768.768 0 1 0 0-1.536.768.768 0 0 0 0 1.536" />
  <path d="M30.3 17.076a1 1 0 1 1-2 0 1 1 0 0 1 2 0" />
  <path d="M27.8 15.596a.5.5 0 1 0 0-1 .5.5 0 0 0 0 1" />
  <path d="M30.877 19.55a.7.7 0 1 1-1.4 0 .7.7 0 0 1 1.4 0" />
  <path d="M18.458 33.02a1 1 0 1 1-2 0 1 1 0 0 1 2 0" />
  <path d="M17.373 31.123a.453.453 0 1 0 0-.906.453.453 0 0 0 0 .906" />
  <path d="M16.168 29.627a.5.5 0 1 1-1 0 .5.5 0 0 1 1 0" />
  <path d="M18.868 35.836a.7.7 0 1 0 0-1.4.7.7 0 0 0 0 1.4" />
  <path
    fill-rule="evenodd"
    d="M24 44c11.046 0 20-8.954 20-20S35.046 4 24 4 4 12.954 4 24s8.954 20 20 20M9.693 22.308c1.18 1.527 4.627.841 7.698-1.533s4.606-5.536 3.426-7.063-4.628-.84-7.7 1.533c-3.07 2.374-4.604 5.536-3.424 7.063m21.694 5.542c3.287 1.984 5.151 4.918 4.165 6.551-.987 1.634-4.451 1.35-7.738-.634-3.286-1.985-5.15-4.918-4.164-6.552s4.45-1.35 7.737.635m1.019-11.848c1.645 3.519 1.562 7.034-.188 7.852s-4.5-1.37-6.147-4.889c-1.646-3.518-1.562-7.033.187-7.852 1.75-.818 4.502 1.371 6.148 4.89m-11.838 14.93c1.784 3.55 1.8 7.146.035 8.033-1.764.887-4.64-1.271-6.425-4.82-1.784-3.55-1.8-7.145-.036-8.032s4.642 1.27 6.426 4.82"
    clip-rule="evenodd"
  />
</svg>
