<svg
  xmlns="http://www.w3.org/2000/svg"
  width="24"
  height="24"
  viewBox="0 0 24 24"
  fill="none"
  stroke="currentColor"
  stroke-width="2"
  stroke-linecap="round"
  stroke-linejoin="round"
>
  <path d="M12 31v7a2 2 0 1 0 4 0v-7z" />
  <path d="M7 26v-6a3 3 0 0 1 3-3h6v12h-6a3 3 0 0 1-3-3" />
  <path d="M34 23v-1a3 3 0 0 0-3-3v7a3 3 0 0 0 3-3" />
  <path d="M18 30V15l9.463-6.022A1 1 0 0 1 29 9.822v25.356a1 1 0 0 1-1.537.844z" />
  <path
    fill-rule="evenodd"
    d="M40.832 17.445a1 1 0 0 1-.277 1.387l-3 2a1 1 0 1 1-1.11-1.664l3-2a1 1 0 0 1 1.387.277M36 24a1 1 0 0 1 1-1h4a1 1 0 1 1 0 2h-4a1 1 0 0 1-1-1m.168 3.445a1 1 0 0 1 1.387-.277l3 2a1 1 0 0 1-1.11 1.664l-3-2a1 1 0 0 1-.277-1.387"
    clip-rule="evenodd"
  />
</svg>
