<svg
  xmlns="http://www.w3.org/2000/svg"
  width="24"
  height="24"
  viewBox="0 0 24 24"
  fill="none"
  stroke="currentColor"
  stroke-width="2"
  stroke-linecap="round"
  stroke-linejoin="round"
>
  <path
    fill-rule="evenodd"
    d="M23.375 5.22a1 1 0 0 1 1.25 0L39.35 17H42v6H6v-6h2.65zM25 10v2h2v2h-2v2h-2v-2h-2v-2h2v-2z"
    clip-rule="evenodd"
  />
  <path
    fill-rule="evenodd"
    d="M24 25a4 4 0 0 0-4 4v8h-6v-4h-2v-8H8v8H6v4H4v6h40v-6h-2v-4h-2v-8h-4v8h-2v4h-6v-8a4 4 0 0 0-4-4m0 2a2 2 0 0 1 2 2v8h-4v-8a2 2 0 0 1 2-2"
    clip-rule="evenodd"
  />
</svg>
