<svg
  xmlns="http://www.w3.org/2000/svg"
  width="24"
  height="24"
  viewBox="0 0 24 24"
  fill="none"
  stroke="currentColor"
  stroke-width="2"
  stroke-linecap="round"
  stroke-linejoin="round"
>
  <path
    fill-rule="evenodd"
    d="M25.45 8.123a1 1 0 0 1-.5 1.323A5 5 0 0 0 22 13.99v.035a5 5 0 0 0 9.971.521 1 1 0 1 1 1.989.213 6.97 6.97 0 0 1-1.71 3.878 7 7 0 0 1 3.784 2.286 1 1 0 1 1-1.52 1.3 5 5 0 0 0-8.247 5.542 2.41 2.41 0 0 1 2.143.811q.38.441.69.897a2.4 2.4 0 0 1 .409 1.62c.455.283.82.718 1.007 1.265.223.652.392 1.283.533 1.833a2.4 2.4 0 0 1-.015 1.252c.262.23.478.52.624.863.102.237.172.322.19.34q.101.073.193.153.281-.11.594-.15.267-.03.626-.108a2.41 2.41 0 0 1 2.218.65c.429-.258.744-.642.9-1.115.2-.602.182-1.471-.392-2.584a1 1 0 0 1 1.778-.917c.407.79.64 1.566.709 2.302.61-.724 1.252-1.702 1.778-2.992a1 1 0 1 1 1.852.755c-.626 1.535-1.403 2.71-2.152 3.587.487.057 1 .177 1.554.37a1 1 0 0 1-.656 1.89c-.994-.346-1.702-.36-2.39-.216-.642.133-1.274.396-2.155.765l-.126.053a2.41 2.41 0 0 1-1.892 2.166q-.554.121-1.077.185a2.4 2.4 0 0 1-1.879-.582 2.41 2.41 0 0 1-2.273-.276c-.954-.673-1.495-1.584-1.836-2.38a2.4 2.4 0 0 1-.104-1.602 2.4 2.4 0 0 1-.743-1.214 19 19 0 0 0-.422-1.462 2.4 2.4 0 0 1-.118-1.04c-.275-.171-.52-.401-.715-.686a5 5 0 0 0-.357-.463 2.41 2.41 0 0 1-.262-2.793A4.98 4.98 0 0 0 21 27.512c-1.6 0-3.024.75-3.939 1.92a7 7 0 0 1-.212.29 4.98 4.98 0 0 0-.849 2.79c0 .953.266 1.84.727 2.597a1 1 0 0 1-1.708 1.04 6.97 6.97 0 0 1-.994-4.236 7.027 7.027 0 0 1-4.154.41 1 1 0 0 1 .404-1.959q.492.102 1.016.103c1.6 0 3.024-.75 3.939-1.92q.102-.149.212-.29a5 5 0 0 0-7.854-6.148 1 1 0 0 1-1.481-1.345 7 7 0 0 1 3.643-2.126 6.98 6.98 0 0 1-1.694-3.744 1 1 0 0 1 1.984-.251 5.001 5.001 0 0 0 9.96-.618v-.035a5 5 0 0 0-2.864-4.505 1 1 0 1 1 .855-1.808A7.03 7.03 0 0 1 21 10.4a7.03 7.03 0 0 1 3.128-2.778 1 1 0 0 1 1.322.501m-7.184 17.943A7 7 0 0 1 21 25.512c.97 0 1.894.197 2.734.554a6.973 6.973 0 0 1 1.724-5.229A7 7 0 0 1 21 17.615a7 7 0 0 1-4.459 3.222 6.97 6.97 0 0 1 1.725 5.229M21 22.012a.5.5 0 1 0 0 .998.5.5 0 0 0 0-.998m-2.5.499a2.5 2.5 0 1 1 5 0 2.5 2.5 0 0 1-5 0m9.416 10.369.12-.147.19-.004a.41.41 0 0 1 .398.279c.197.574.35 1.142.487 1.678a.41.41 0 0 1-.13.415l-.14.123-.187-.027a.41.41 0 0 1-.341-.306 21 21 0 0 0-.469-1.616.41.41 0 0 1 .072-.395m1.58 3.965-.184-.026-.143.123a.41.41 0 0 0-.108.474c.26.607.61 1.15 1.15 1.533a.41.41 0 0 0 .567-.087l.128-.17-.063-.203a.4.4 0 0 0-.155-.214c-.37-.261-.643-.654-.869-1.183a.41.41 0 0 0-.322-.247m3.098 1.95-.128.17.063.204c.058.185.243.309.443.285a10 10 0 0 0 .89-.153.412.412 0 0 0-.176-.805q-.439.095-.812.14a.4.4 0 0 0-.28.16m-5.474-7.547.19-.004.12-.148a.41.41 0 0 0 .02-.493 8 8 0 0 0-.552-.717.412.412 0 1 0-.623.54q.27.314.495.642a.41.41 0 0 0 .35.18m4.732 5.402-.003-.002z"
    clip-rule="evenodd"
  />
</svg>
