<svg
  xmlns="http://www.w3.org/2000/svg"
  width="24"
  height="24"
  viewBox="0 0 24 24"
  fill="none"
  stroke="currentColor"
  stroke-width="2"
  stroke-linecap="round"
  stroke-linejoin="round"
>
  <path
    fill-rule="evenodd"
    d="M9 24c0-8.284 6.716-15 15-15s15 6.716 15 15-6.716 15-15 15S9 32.284 9 24m15-13c-7.18 0-13 5.82-13 13s5.82 13 13 13 13-5.82 13-13-5.82-13-13-13m0 4a9 9 0 1 0 0 18 9 9 0 0 0 0-18m-11 9c0-6.075 4.925-11 11-11s11 4.925 11 11-4.925 11-11 11-11-4.925-11-11"
    clip-rule="evenodd"
  />
</svg>
