<svg
  xmlns="http://www.w3.org/2000/svg"
  width="24"
  height="24"
  viewBox="0 0 24 24"
  fill="none"
  stroke="currentColor"
  stroke-width="2"
  stroke-linecap="round"
  stroke-linejoin="round"
>
  <path d="M39.578 9.134c-4.61-4.856-10.98-2.675-14.14-1.105l6.086 4.43a1 1 0 0 1-1.177 1.617L23.53 9.113l-.03.02c-6.18-4.81-11.548-3.78-15.91 1.032-2.715 2.994-1.418 7.038-.05 11.301.83 2.588 1.685 5.256 1.685 7.82.213.47 2.356.848 5.383 1.105a2 2 0 0 0-.043 1.059l.03.13 2.781-1.001c1.706.091 3.555.15 5.42.174l-7.748 2.79.4 1.73 12.65-4.554c5.011-.137 9.18-.587 9.662-1.433 0-2.214 1.015-4.537 2.051-6.91 1.907-4.365 3.888-8.9-.233-13.242" />
  <path d="M33.095 32.92 16.3 38.966l-.4-1.73 17.585-6.33a2 2 0 0 1-.05.544z" />
  <path d="m17.013 40.835 15.547-5.597-.471 2.044-13.05 4.698a3 3 0 0 1-2.026-1.145" />
  <path d="M24.889 42h3.724a3 3 0 0 0 2.924-2.325l.017-.074z" />
</svg>
