<svg
  xmlns="http://www.w3.org/2000/svg"
  width="24"
  height="24"
  viewBox="0 0 24 24"
  fill="none"
  stroke="currentColor"
  stroke-width="2"
  stroke-linecap="round"
  stroke-linejoin="round"
>
  <path d="M22 13a4.5 4.5 0 1 0 0-9 4.5 4.5 0 0 0 0 9" />
  <path d="M35 25a3 3 0 0 0-3 3v.343a1 1 0 1 0 2 0V28a1 1 0 1 1 2 0v14.946a1 1 0 1 0 2 0V28a3 3 0 0 0-3-3" />
  <path d="M29.709 20.179 28 19.433l1.595.677z" />
  <path d="M30.935 21.241a5 5 0 0 0-1.226-1.062L36 22.928 36 22.832v.002c.095 1.1-.755 2.067-1.899 2.16-1.134.09-2.132-.714-2.241-1.801v-.002l-.015-.086a4 4 0 0 0-.115-.434 4.5 4.5 0 0 0-.795-1.43" />
  <path
    fill-rule="evenodd"
    d="m36 22.831-6.405-2.72A7 7 0 0 0 28 19.432V42a2 2 0 0 1-3.99.199l-1-10A2 2 0 0 1 23 32h-2q0 .1-.01.199l-1 10A2 2 0 0 1 16 42V27.919c-1.679-.223-3.09-.898-4.136-1.925A6.21 6.21 0 0 1 10 21.481 6.34 6.34 0 0 1 11.92 17C13.21 15.741 15.049 15 17.255 15h7.32c4.973 0 7.944 1.722 9.62 3.759a8.4 8.4 0 0 1 1.494 2.695c.146.44.26.893.309 1.353v.015l.002.006zm-21.169.362c.257.252.631.496 1.169.648V19.17c-.5.152-.864.389-1.123.641a2.41 2.41 0 0 0-.72 1.708c-.006.64.232 1.24.674 1.674"
    clip-rule="evenodd"
  />
</svg>
