<svg
  xmlns="http://www.w3.org/2000/svg"
  width="24"
  height="24"
  viewBox="0 0 24 24"
  fill="none"
  stroke="currentColor"
  stroke-width="2"
  stroke-linecap="round"
  stroke-linejoin="round"
>
  <path
    fill-rule="evenodd"
    d="M29.656 8.442 8.443 29.656a2 2 0 0 0 0 2.828l7.07 7.071a2 2 0 0 0 2.83 0l21.212-21.213a2 2 0 0 0 0-2.828l-7.07-7.072a2 2 0 0 0-2.83 0m-22.628 19.8a4 4 0 0 0 0 5.656L14.1 40.97a4 4 0 0 0 5.656 0L40.97 19.756a4 4 0 0 0 0-5.657l-7.071-7.07a4 4 0 0 0-5.657 0z"
    clip-rule="evenodd"
  />
  <path d="M16.928 24.706a1.25 1.25 0 1 1-1.768 1.768 1.25 1.25 0 0 1 1.768-1.768" />
  <path d="M19.403 22.231A1.25 1.25 0 1 1 17.635 24a1.25 1.25 0 0 1 1.768-1.768" />
  <path d="M21.878 19.756a1.25 1.25 0 1 1-1.768 1.768 1.25 1.25 0 0 1 1.768-1.768" />
  <path d="M24.353 17.281a1.25 1.25 0 1 1-1.769 1.768 1.25 1.25 0 0 1 1.769-1.768" />
  <path d="M26.827 14.806a1.25 1.25 0 1 1-1.767 1.768 1.25 1.25 0 0 1 1.767-1.768" />
  <path d="M29.302 12.332a1.25 1.25 0 1 1-1.767 1.767 1.25 1.25 0 0 1 1.767-1.767" />
  <path d="M32.484 15.514a1.25 1.25 0 1 1-1.768 1.767 1.25 1.25 0 0 1 1.768-1.767" />
  <path d="M14.453 27.18a1.25 1.25 0 1 1-1.768 1.769 1.25 1.25 0 0 1 1.768-1.768" />
  <path d="m11.625 30.01-.53 2.297-1.768-1.767z" />
  <path d="M23.292 31.07a1.25 1.25 0 1 1-1.768 1.768 1.25 1.25 0 0 1 1.768-1.768" />
  <path d="M25.767 28.595a1.25 1.25 0 1 1-1.768 1.768 1.25 1.25 0 0 1 1.768-1.768" />
  <path d="M28.242 26.12a1.25 1.25 0 1 1-1.768 1.768 1.25 1.25 0 0 1 1.768-1.768" />
  <path d="M30.717 23.645a1.25 1.25 0 1 1-1.768 1.768 1.25 1.25 0 0 1 1.767-1.768" />
  <path d="M33.191 21.17a1.25 1.25 0 1 1-1.767 1.768 1.25 1.25 0 0 1 1.767-1.768" />
  <path d="M35.666 18.696a1.25 1.25 0 1 1-1.768 1.767 1.25 1.25 0 0 1 1.768-1.768" />
  <path d="M31.777 9.857a1.25 1.25 0 1 1-1.768 1.768 1.25 1.25 0 0 1 1.768-1.768" />
  <path d="M38.141 16.22a1.25 1.25 0 1 1-1.767 1.768 1.25 1.25 0 0 1 1.767-1.767" />
  <path d="M34.96 13.039a1.25 1.25 0 1 1-1.769 1.767 1.25 1.25 0 0 1 1.768-1.767" />
  <path d="M20.817 33.545a1.25 1.25 0 1 1-1.767 1.767 1.25 1.25 0 0 1 1.767-1.767" />
  <path d="M18.342 36.02a1.25 1.25 0 1 1-1.768 1.767 1.25 1.25 0 0 1 1.768-1.767" />
  <path d="M15.16 32.838a1.25 1.25 0 1 1-1.768 1.767 1.25 1.25 0 0 1 1.768-1.767" />
  <path d="M17.635 30.363a1.25 1.25 0 1 1-1.768 1.768 1.25 1.25 0 0 1 1.768-1.768" />
</svg>
