<svg
  xmlns="http://www.w3.org/2000/svg"
  width="24"
  height="24"
  viewBox="0 0 24 24"
  fill="none"
  stroke="currentColor"
  stroke-width="2"
  stroke-linecap="round"
  stroke-linejoin="round"
>
  <path
    fill-rule="evenodd"
    d="M21.71 10.323c-.201-.112-.366-.134-.57-.064a1 1 0 0 0-.109.044l-.003.003-.014.008-.059.033-.013.007c-.137.094-.206.228-.253.436-.082.371-.049.873.044 1.46.103.652.45 1.578.944 2.195.241.303.464.464.642.53.143.054.313.07.568-.048.356-.168.608-.577.504-1.506-.1-.906-.525-1.866-.906-2.359-.274-.356-.536-.606-.775-.74m-1.896-1.865q.278-.175.627-.296c1.814-.623 3.115.698 3.761 1.534.635.822 1.211 2.17 1.357 3.476.098.881.009 1.963-.589 2.804 1.73-.04 3.13.134 4.465.304l.047.006c1.453.184 2.833.359 4.601.293.817-.03 1.512-.194 2.274-.372q.312-.076.645-.148c.994-.218 2.12-.393 3.382-.022.427.126.813.353 1.106.703.29.349.431.75.484 1.13.099.714-.1 1.458-.32 2.044-.454 1.208-1.25 2.394-1.54 2.801-.998 1.407-2.171 2.207-3.439 2.62-1.232.403-2.496.421-3.634.382a61 61 0 0 1-.966-.044c-.793-.04-1.51-.076-2.226-.024q-.464.031-.883.121.123.033.247.071c1.907.59 3.581 2.045 5.148 3.954.238.242.425.503.566.808.143.31.216.62.268.906.15.809-.08 1.617-.412 2.275a6.3 6.3 0 0 1-1.413 1.82c-.566.508-1.254.943-1.99 1.15-.747.21-1.622.202-2.398-.32-.412-.277-.66-.716-.77-.926a4 4 0 0 1-.119-.245c-.558-.561-.913-.835-1.206-.97-.2-.09-.414-.136-.75-.092l-.203.195c-.278.265-.67.627-1.128 1.022-.895.769-2.124 1.73-3.274 2.268-2.322 1.086-4.676 1.57-6.924 1.18-2.27-.393-4.312-1.655-6.018-3.835-4.28-5.47-2.724-13.31.822-18.287 1.523-2.138 4.217-4.244 6.427-5.772a59 59 0 0 1 3.975-2.514m5.027 23.933.223-.226.308-.071c.85-.195 1.626-.177 2.41.181q.172.078.338.175c.187-.418.466-.817.756-1.16.406-.48.917-.948 1.465-1.325.235-.162.49-.316.758-.448-.869-.79-1.702-1.304-2.521-1.558-1.248-.385-2.64-.216-4.368.89l-.012.008-4.95 3-.133.04-.005.002-.014.004-.048.014-.168.046c-.14.037-.334.085-.558.131-.416.086-1.044.188-1.602.136-.694-.065-1.35-.204-1.967-.511-.626-.312-1.147-.762-1.62-1.359-.961-1.213-1.07-2.327-1.091-3.596-.021-1.21.236-2.19.725-3.088.47-.86 1.135-1.61 1.842-2.368 1.408-1.511 3.618-3.19 5.341-4.413q.09-.07.188-.133.223-.158.436-.305a4.5 4.5 0 0 1-.592-.617c-.776-.971-1.251-2.277-1.403-3.24-.035-.222-.07-.475-.093-.746-.443.286-.922.604-1.418.947-2.194 1.517-4.606 3.44-5.888 5.24-3.233 4.537-4.316 11.224-.881 15.613 1.418 1.811 3.005 2.74 4.676 3.03 1.693.293 3.593-.05 5.643-1.009.867-.405 1.907-1.198 2.777-1.947a28 28 0 0 0 1.345-1.236l.078-.077.019-.019zm5.238 1.953q.024.058.06.125.05.093.085.142c.11.059.282.091.572.01.335-.095.738-.325 1.13-.676.388-.348.711-.766.914-1.168.21-.419.238-.712.21-.86a1.6 1.6 0 0 0-.1-.375.7.7 0 0 0-.155-.205c-.008-.008-.01-.01-.027-.014a.5.5 0 0 0-.21.007c-.25.045-.598.196-.993.467-.384.265-.75.6-1.033.935-.301.356-.432.62-.462.73-.024.09-.036.302-.02.58.008.118.02.225.029.302"
    clip-rule="evenodd"
  />
</svg>
