<svg
  xmlns="http://www.w3.org/2000/svg"
  width="24"
  height="24"
  viewBox="0 0 24 24"
  fill="none"
  stroke="currentColor"
  stroke-width="2"
  stroke-linecap="round"
  stroke-linejoin="round"
>
  <path
    fill-rule="evenodd"
    d="M8.999 6h2S7.881 21.506 8 25.004C8.148 29.402 12 42 12 42h-2S6.147 29.339 6.002 25.07C5.901 22.06 9 6 9 6"
    clip-rule="evenodd"
  />
  <path
    fill-rule="evenodd"
    d="M39.001 6h-2s3.118 15.506 3 19.004C39.852 29.402 36 42 36 42h2s3.853-12.661 3.998-16.93C42.099 22.06 39 6 39 6"
    clip-rule="evenodd"
  />
  <path
    fill-rule="evenodd"
    d="M23 23v10a1 1 0 1 0 2 0V23h2v10a3 3 0 1 1-6 0V23z"
    clip-rule="evenodd"
  />
  <path
    fill-rule="evenodd"
    d="M20 25v1a1 1 0 0 0 1 1v2a3 3 0 0 1-3-3v-1z"
    clip-rule="evenodd"
  />
  <path
    fill-rule="evenodd"
    d="M28 26v-1h2v1a3 3 0 0 1-3 3v-2a1 1 0 0 0 1-1"
    clip-rule="evenodd"
  />
  <path fill-rule="evenodd" d="M23 42v-7h2v7z" clip-rule="evenodd" />
</svg>
