<svg
  xmlns="http://www.w3.org/2000/svg"
  width="24"
  height="24"
  viewBox="0 0 24 24"
  fill="none"
  stroke="currentColor"
  stroke-width="2"
  stroke-linecap="round"
  stroke-linejoin="round"
>
  <path d="M17 24c3.867 0 7-3.133 7-7s-3.133-7-7-7-7 3.133-7 7 3.133 7 7 7" />
  <path d="M39 20.5c0 3.039-2.461 5.5-5.5 5.5a5.5 5.5 0 0 1-5.5-5.5c0-3.039 2.461-5.5 5.5-5.5s5.5 2.461 5.5 5.5" />
  <path d="M17 26c2.734 0 7.183.851 10.101 2.545C28.293 29.758 29 31.081 29 32.4V38H4v-5.6c0-4.256 8.661-6.4 13-6.4" />
  <path d="M44 38H31v-5.6c0-1.416-.511-2.72-1.324-3.883 1.541-.344 3.058-.517 4.217-.517C37.62 28 44 29.787 44 33.333z" />
</svg>
