<svg
  xmlns="http://www.w3.org/2000/svg"
  width="24"
  height="24"
  viewBox="0 0 24 24"
  fill="none"
  stroke="currentColor"
  stroke-width="2"
  stroke-linecap="round"
  stroke-linejoin="round"
>
  <path
    fill-rule="evenodd"
    d="M16 26c5.523 0 10-4.477 10-10S21.523 6 16 6 6 10.477 6 16s4.477 10 10 10m4.304-10.692a1 1 0 0 0-.762-1.849l-7.846 3.233a1 1 0 1 0 .763 1.85z"
    clip-rule="evenodd"
  />
  <path
    fill-rule="evenodd"
    d="M32 42c5.523 0 10-4.477 10-10s-4.477-10-10-10-10 4.477-10 10 4.477 10 10 10m3.91-8.075a1 1 0 1 0 .449-1.949l-8.27-1.901a1 1 0 1 0-.448 1.949z"
    clip-rule="evenodd"
  />
</svg>
