<svg
  xmlns="http://www.w3.org/2000/svg"
  width="24"
  height="24"
  viewBox="0 0 24 24"
  fill="none"
  stroke="currentColor"
  stroke-width="2"
  stroke-linecap="round"
  stroke-linejoin="round"
>
  <path
    fill-rule="evenodd"
    d="M16.505 12.025c5.132 0 5.356 6.118 5.333 9.773q.09-.039.18-.088c.25-.137.483-.334.658-.623.174-.288.324-.723.324-1.393V6.002h2v13.69c0 .67.15 1.105.325 1.393s.408.485.658.622q.07.04.14.07c-.023-3.654.203-9.768 5.333-9.768 7.45 0 12.772 26.006 9.58 28.66-3.194 2.654-9.58 1.061-12.773-2.123-2.578-2.571-2.355-8.579-2.195-12.891.023-.634.045-1.23.057-1.774a4.4 4.4 0 0 1-1.107-.422A3.8 3.8 0 0 1 24 22.65c-.314.358-.67.621-1.018.813a4.4 4.4 0 0 1-1.147.43c.011.546.034 1.144.057 1.778.16 4.313.383 10.321-2.195 12.892-3.193 3.185-9.579 4.777-12.772 2.123s2.129-28.66 9.58-28.66m17.537 4.974a2 2 0 1 1-3.998-.002 2 2 0 0 1 3.998.002m-20.04.004a2 2 0 1 0 4-.003 2 2 0 0 0-4 .003m-5.013 20a2 2 0 1 0 4-.003 2 2 0 0 0-4 .003m8.015-3.001a2 2 0 1 1-.004-4 2 2 0 0 1 .004 4m-7.002-5.999a2 2 0 1 0 4-.003 2 2 0 0 0-4 .003m7.002-3.001a2 2 0 1 1-.004-4 2 2 0 0 1 .004 4m20.022 13.995a2 2 0 1 0 .001-3.998 2 2 0 0 0-.001 3.998m-3.996-6.998a2 2 0 1 1-3.999-.002 2 2 0 0 1 3.999.002m3.003-2.002a2 2 0 1 0 .002-3.998 2 2 0 0 0-.002 3.998m-2.996-6.998a2 2 0 1 1-3.998-.002 2 2 0 0 1 3.998.002"
    clip-rule="evenodd"
  />
</svg>
