<svg
  xmlns="http://www.w3.org/2000/svg"
  width="24"
  height="24"
  viewBox="0 0 24 24"
  fill="none"
  stroke="currentColor"
  stroke-width="2"
  stroke-linecap="round"
  stroke-linejoin="round"
>
  <path
    fill-rule="evenodd"
    d="M18 4a1 1 0 0 0-1 1v4a1 1 0 0 0 1 1h2v4a7 7 0 0 0-7 7v20a3 3 0 0 0 3 3h16a3 3 0 0 0 3-3V21a7 7 0 0 0-7-7v-4h2a1 1 0 0 0 1-1V5a1 1 0 0 0-1-1zm4 11v-5h4v5a1 1 0 0 0 1 1h1a5 5 0 0 1 4.9 4H15.1a5 5 0 0 1 4.9-4h1a1 1 0 0 0 1-1m6.243 15.536-.707-.707-2.122 2.122 2.122 2.121.707-.707 1.414 1.414-2.829 2.829-1.414-1.415.707-.707L24 33.365l-2.12 2.12.706.708-1.414 1.414-.707-.707-1.415-1.414-.707-.707 1.414-1.415.708.708 2.12-2.121-2.12-2.122-.708.707-1.414-1.414.707-.707 1.414-1.414.708-.707 1.414 1.414-.707.707L24 30.537l2.122-2.122-.708-.708 1.414-1.414 2.829 2.828z"
    clip-rule="evenodd"
  />
</svg>
