<svg
  xmlns="http://www.w3.org/2000/svg"
  width="24"
  height="24"
  viewBox="0 0 24 24"
  fill="none"
  stroke="currentColor"
  stroke-width="2"
  stroke-linecap="round"
  stroke-linejoin="round"
>
  <path
    fill-rule="evenodd"
    d="M8 8v7h7V8zM7 6a1 1 0 0 0-1 1v9a1 1 0 0 0 1 1h9a1 1 0 0 0 1-1V7a1 1 0 0 0-1-1zm26 27v7h7v-7zm-1-2a1 1 0 0 0-1 1v9a1 1 0 0 0 1 1h9a1 1 0 0 0 1-1v-9a1 1 0 0 0-1-1zm-1.609-2.023-3.184-3.184-1.414 1.414 3.184 3.184zm-8.714-8.714 3.977 3.977-1.414 1.415-3.977-3.978v4.218h-2v-7.632h7.632v2z"
    clip-rule="evenodd"
  />
</svg>
