<svg
  xmlns="http://www.w3.org/2000/svg"
  width="24"
  height="24"
  viewBox="0 0 24 24"
  fill="none"
  stroke="currentColor"
  stroke-width="2"
  stroke-linecap="round"
  stroke-linejoin="round"
>
  <path
    fill-rule="evenodd"
    d="M6 9a3 3 0 0 1 3-3h30a3 3 0 0 1 3 3v30a3 3 0 0 1-3 3H9a3 3 0 0 1-3-3zm22.5 5.5a4.5 4.5 0 1 1-9 0 4.5 4.5 0 0 1 9 0M13 22a1 1 0 0 1 1-1h20a1 1 0 0 1 1 1v15a1 1 0 0 1-1 1h-5c0-.597-.273-1.14-.57-1.556a5.7 5.7 0 0 0-1.18-1.189c-.629-.48-1.425-.914-2.25-1.123v-2.985h1.4c.99 0 2.237.395 3.312.848a19 19 0 0 1 1.76.855l.022.013.005.002L32 32c.501-.865.501-.865.5-.866l-.003-.002-.01-.005-.032-.018a13 13 0 0 0-.535-.288 21 21 0 0 0-1.432-.67c-1.125-.473-2.679-1.005-4.088-1.005H25V27h.8c.749 0 1.685.215 2.485.457a17 17 0 0 1 1.311.458l.016.007.004.001L30 27l.384-.923-.003-.002-.007-.003-.025-.01-.088-.035q-.114-.046-.317-.121c-.267-.1-.643-.23-1.079-.363-.85-.258-2.014-.543-3.065-.543H25v-2h-2v2h-1.1c-1.2 0-2.292.284-3.069.556a11 11 0 0 0-1.206.511l-.076.04-.023.012-.007.004-.003.002s-.002 0 .484.875l.485.874.007-.003.046-.024q.065-.034.198-.097c.177-.082.437-.194.758-.306C20.142 27.216 21 27 21.9 27H23v2.146h-1.8c-1.61 0-3.065.53-4.088 1.028a12 12 0 0 0-1.584.932l-.097.07-.028.022-.009.006-.003.003h-.001c0 .001-.001.002.61.793s.611.792.61.792l.014-.01.065-.047a9.941 9.941 0 0 1 1.3-.763c.876-.428 2.02-.825 3.211-.825H23v3.017a6.9 6.9 0 0 0-2.273 1.134 5.5 5.5 0 0 0-1.166 1.162c-.297.413-.561.947-.561 1.54h-5a1 1 0 0 1-1-1zm13.97 15.899A.4.4 0 0 1 27 38h-6c0-.002.002-.034.028-.1.028-.07.077-.162.158-.274.163-.227.416-.483.744-.73.658-.495 1.46-.84 2.104-.896.553.013 1.325.328 2.002.845.332.253.595.521.766.761.085.119.138.218.168.293"
    clip-rule="evenodd"
  />
</svg>
