<svg
  xmlns="http://www.w3.org/2000/svg"
  width="24"
  height="24"
  viewBox="0 0 24 24"
  fill="none"
  stroke="currentColor"
  stroke-width="2"
  stroke-linecap="round"
  stroke-linejoin="round"
>
  <path
    fill-rule="evenodd"
    d="M27.5 10.5a4.5 4.5 0 1 1 6.953 3.774l1.436-.24a2.5 2.5 0 0 1 2.572 1.209l3.2 5.5a2.5 2.5 0 0 1-.211 2.822l-2.499 3.113.021.089c.33 1.372.622 2.81.882 4.087l.015.073.102.498c.297 1.45.536 2.557.734 3.12.404 1.144-.263 2.558-1.62 2.727-3.98.495-8.577.508-12.554-.01-1.284-.167-1.967-1.474-1.61-2.603l.32-1.006c.433-1.35 1.043-3.255 1.492-4.818l-.929-1.173a2.5 2.5 0 0 1-1.716 1.459 47 47 0 0 1-3.657.747v3.392q.008.047.013.095l.734 5.833a2.5 2.5 0 0 1-4.937.775l-.11-.583-.11.583a2.5 2.5 0 0 1-4.937-.775l.733-5.833q.006-.048.014-.095v-3.37a52 52 0 0 1-3.892-.763 2.5 2.5 0 0 1 1.122-4.872c1.67.384 3.077.65 4.364.806a4 4 0 1 1 5.126.02c1.288-.15 2.695-.417 4.361-.82a3 3 0 0 1 .28-.051 2.5 2.5 0 0 1 .072-2.078l2.473-4.945a3.5 3.5 0 0 1 2.555-1.887l2.61-.435A4.5 4.5 0 0 1 27.5 10.5M32 8a2.5 2.5 0 1 0 0 5 2.5 2.5 0 0 0 0-5m-.342 19.31a2.5 2.5 0 0 0-.448-.874l-1.189-1.502 2.98-1.49-2.909-.97a.5.5 0 0 1-.341-.474v-2a.5.5 0 1 1 1 0v1.64l3.616 1.205.371.193a1 1 0 0 1 .407.394l-.795.99c-.296.37-.47.796-.528 1.233l-.132.159c-.49.587-.833.98-1.134 1.233-.282.237-.426.264-.515.264zm-3.27 3.024-.034.076c-.408 1.356-.873 2.808-1.215 3.878l-.311.973-.003.011v.012c3.785.488 8.187.477 11.989.006a.1.1 0 0 0 .005-.08c-.256-.725-.523-1.996-.807-3.384l-.116-.568-.002-.01c-.18-.883-.372-1.824-.579-2.761a3.279 3.279 0 0 1-2.828-.537 7 7 0 0 1-.645.628c-.481.405-1.067.733-1.801.733h-.124l-.538-.011a2.498 2.498 0 0 1-2.99 1.035m-.046-6.72A2.5 2.5 0 0 1 27.75 22v-2a2.5 2.5 0 0 1 5 0v.198l.263.088a3 3 0 0 1 4.344-2.962l-.626-1.075a.5.5 0 0 0-.514-.242l-7.598 1.266a1.5 1.5 0 0 0-1.095.809l-2.472 4.944a.5.5 0 0 0 .055.534l3.75 4.738a.5.5 0 0 0 .784-.62l-2.286-2.89.45-.614q.228-.31.536-.56m10.655-3.472a3 3 0 0 1-1.937 2.666q.136.343.186.698l.06.428-1.396 1.74a.5.5 0 0 0 .78.626l3.2-3.987a.5.5 0 0 0 .042-.564zM36.001 19a1 1 0 1 0 0 2 1 1 0 0 0 0-2m-12.015 7.573a.5.5 0 0 0-.604-.368c-2.906.703-5.149 1.032-7.38 1.023-2.233-.008-4.478-.354-7.39-1.024a.5.5 0 0 0-.224.974c1.686.389 3.168.673 4.566.848l.877.109v5.323l-.022.103-.008.043-.733 5.834a.5.5 0 0 0 .987.155l1.093-5.795h1.965l1.093 5.795a.5.5 0 0 0 .987-.155l-.733-5.834-.007-.043-.022-.103v-5.333l.87-.114c1.324-.173 2.73-.45 4.317-.834a.5.5 0 0 0 .368-.604M14 22a2 2 0 1 1 4 0 2 2 0 0 1-4 0"
    clip-rule="evenodd"
  />
  <path d="M31.844 39.426a36 36 0 0 1-3.344-.275V40.5a1.5 1.5 0 0 0 2.948.39z" />
  <path d="m35.141 39.37.41 1.52a1.5 1.5 0 0 0 2.949-.39V39a42 42 0 0 1-3.359.37" />
</svg>
