<svg
  xmlns="http://www.w3.org/2000/svg"
  width="24"
  height="24"
  viewBox="0 0 24 24"
  fill="none"
  stroke="currentColor"
  stroke-width="2"
  stroke-linecap="round"
  stroke-linejoin="round"
>
  <path d="M16 20v3h16v-3z" />
  <path d="M16 28v-3h4v3z" />
  <path d="M16 30v3h4v-3z" />
  <path d="M22 30v3h4v-3z" />
  <path d="M28 30v3h4v-3z" />
  <path d="M28 28v-3h4v3z" />
  <path d="M26 28h-4v-3h4z" />
  <path
    fill-rule="evenodd"
    d="M30 4H11a1 1 0 0 0-1 1v38a1 1 0 0 0 1 1h26a1 1 0 0 0 1-1V12h-7a1 1 0 0 1-1-1zM14 19a1 1 0 0 1 1-1h18a1 1 0 0 1 1 1v15a1 1 0 0 1-1 1H15a1 1 0 0 1-1-1z"
    clip-rule="evenodd"
  />
  <path d="M37.414 10H32V4.586z" />
</svg>
