<svg
  xmlns="http://www.w3.org/2000/svg"
  width="24"
  height="24"
  viewBox="0 0 24 24"
  fill="none"
  stroke="currentColor"
  stroke-width="2"
  stroke-linecap="round"
  stroke-linejoin="round"
>
  <path d="M20.45 18.777 24 11.512l3.55 7.265.898-.44-.899.44c.289.59.849 1.004 1.503 1.1l7.946 1.167v.001l.002.008-.003.004-5.753 5.665a2.01 2.01 0 0 0-.57 1.77l1.358 7.998v.003l-7.1-3.77a1.99 1.99 0 0 0-1.864 0l-7.1 3.77v-.003l1.358-7.999a2.01 2.01 0 0 0-.57-1.77l-5.753-5.664-.003-.003q0-.005.002-.009v-.002l7.946-1.166a2 2 0 0 0 1.503-1.1Z" />
</svg>
