<svg
  xmlns="http://www.w3.org/2000/svg"
  width="24"
  height="24"
  viewBox="0 0 24 24"
  fill="none"
  stroke="currentColor"
  stroke-width="2"
  stroke-linecap="round"
  stroke-linejoin="round"
>
  <path d="m23.06 30.426.464.886-.464-.886-4.904 2.569-.013.005-.014-.007-.01-.008.002-.01.937-5.44a2.02 2.02 0 0 0-.584-1.79l-3.967-3.853-.007-.008a.04.04 0 0 1 .008-.021h.002l.01-.003 5.484-.794a2.02 2.02 0 0 0 1.523-1.103l-.896-.444.896.444 2.452-4.951.005-.008v-.001L24 15l.016.003.005.009 2.452 4.95.896-.443-.896.444a2.02 2.02 0 0 0 1.523 1.103l5.484.794.01.002.002.001.006.011.002.01-.007.008-3.968 3.853a2.02 2.02 0 0 0-.582 1.79l.936 5.44v.006l.001.004-.009.008-.014.007h-.003l-.01-.005-4.904-2.57-.464.886.464-.885a2.03 2.03 0 0 0-1.88 0Z" />
</svg>
