<svg
  xmlns="http://www.w3.org/2000/svg"
  width="24"
  height="24"
  viewBox="0 0 24 24"
  fill="none"
  stroke="currentColor"
  stroke-width="2"
  stroke-linecap="round"
  stroke-linejoin="round"
>
  <path
    fill-rule="evenodd"
    d="M26.185 36.649A4 4 0 1 0 28 40.03l.223-4.018h1.553L30 40.03a4 4 0 1 0 1.815-3.381L29.998 4 29 4.056 28.002 4zm3.48-2.637L29 22.056l-.665 11.956zM30 18.036a1 1 0 1 1-1.999-.001 1 1 0 0 1 1.999.001M22 40a2 2 0 1 1 4 0 2 2 0 0 1-4 0m12-2a2 2 0 1 0 0 4 2 2 0 0 0 0-4"
    clip-rule="evenodd"
  />
  <path d="M15 15V4s-3.478 2.26-3.948 10.998C10.993 16.101 11.895 17 13 17a2 2 0 0 0 2-2" />
  <path d="M12 20.5a1.5 1.5 0 0 1 3 0v.086l-3 3z" />
  <path d="M12 26.414v1.672l3-3v-1.672z" />
  <path d="M12 32.586v-1.672l3-3v1.672z" />
  <path d="M12 35.414V42.5a1.5 1.5 0 0 0 3 0V32.414z" />
</svg>
