<svg
  xmlns="http://www.w3.org/2000/svg"
  width="24"
  height="24"
  viewBox="0 0 24 24"
  fill="none"
  stroke="currentColor"
  stroke-width="2"
  stroke-linecap="round"
  stroke-linejoin="round"
>
  <path
    fill-rule="evenodd"
    d="M6.818 13.364A1.157 1.157 0 0 0 8.455 15l.818-.818 4.09 4.09-3.272 3.273a1.157 1.157 0 1 0 1.636 1.636l1.636-1.636 13.91 13.91a5.79 5.79 0 0 0 6.204 1.296l1.16 1.159a2.31 2.31 0 0 0 2.235.599l2.673 2.673a1.157 1.157 0 1 0 1.637-1.636l-2.674-2.674a2.31 2.31 0 0 0-.6-2.235l-1.158-1.159a5.79 5.79 0 0 0-1.295-6.205l-13.91-13.91 1.637-1.636a1.157 1.157 0 1 0-1.637-1.637l-3.272 3.273-4.09-4.09.817-.818a1.157 1.157 0 1 0-1.636-1.637zm10.04 1.413-4.09-4.09-2.08 2.08 4.09 4.09zm3.273 0-5.354 5.354 4.406 4.406 5.354-5.353zm.689 11.397 2.454 2.454 1.637 1.637 1.636 1.636 1.636 1.636.504.504a3.79 3.79 0 0 0 4.062.847l2.139-2.139a3.79 3.79 0 0 0-.848-4.062l-7.867-7.867zm15.702 9.909-.027-.032-.824-.824a6 6 0 0 1-.445.444l.824.825q.015.015.032.027a1.16 1.16 0 0 1 .44-.44"
    clip-rule="evenodd"
  />
  <path d="m9.273 12.767-.707.707-.819.82a.157.157 0 0 1-.222-.223l6.546-6.546-.707-.707.707.707a.157.157 0 1 1 .222.222l-.818.818-.707.707-.707.707-2.08 2.081zm4.798 6.212.707-.707.707-.707 2.08-2.081.708-.707.707-.707 3.273-3.273a.157.157 0 1 1 .222.222l-1.637 1.637-.707.707-.707.707-5.354 5.354-.707.707-.707.707-1.636 1.636a.157.157 0 0 1-.222-.222zm7.79 9.65-2.616-2.616.137-.136-.907-.694a5 5 0 0 1 .277.196l.68.447.576-.576 5.242-5.242.576-.576-.447-.68a5 5 0 0 0-.196-.277l.694.907.136-.137 8.734 8.735a4.79 4.79 0 0 1 1.072 5.133l-.239.61.463.462 1.159 1.159c.343.343.458.829.34 1.27l-.148.557.407.408 2.674 2.673a.157.157 0 1 1-.222.223L37.58 37.8l-.408-.407-.558.148a1.31 1.31 0 0 1-1.27-.34l-1.16-1.158-.462-.463-.61.239a4.79 4.79 0 0 1-4.923-.875l2.56-2.56a2.157 2.157 0 0 0 0-3.05l-.707.707.707-.707a2.157 2.157 0 0 0-3.05 0L25.132 31.9l-.222-.222 2.566-2.566a2.157 2.157 0 1 0-3.051-3.05z" />
</svg>
