<svg
  xmlns="http://www.w3.org/2000/svg"
  width="24"
  height="24"
  viewBox="0 0 24 24"
  fill="none"
  stroke="currentColor"
  stroke-width="2"
  stroke-linecap="round"
  stroke-linejoin="round"
>
  <path d="M32.485 5.515a12 12 0 0 1 0 16.97L33.9 23.9a14 14 0 0 0 0-19.8z" />
  <path
    fill-rule="evenodd"
    d="M13 26a3 3 0 0 0-3 3v12a3 3 0 0 0 3 3h22a3 3 0 0 0 3-3V29a3 3 0 0 0-3-3zm7 6.25c0-.69-.56-1.25-1.25-1.25h-1.5a1.25 1.25 0 0 0-1.18.833 1 1 0 1 1-1.885-.666A3.25 3.25 0 0 1 17.25 29h1.5a3.25 3.25 0 0 1 2.182 5.658L17.474 38H21a1 1 0 1 1 0 2h-6a1 1 0 0 1-.695-1.72l5.25-5.072.028-.026c.257-.23.417-.562.417-.932m12.674-1.888a1 1 0 1 1-1.333 1.49 3.505 3.505 0 1 0-.334 5.487v-1.875h-2.002a1 1 0 0 1 0-2h3.002a1 1 0 0 1 1 1v3.357a1 1 0 0 1-.333.745 5.503 5.503 0 1 1 0-8.204"
    clip-rule="evenodd"
  />
  <path d="M29.543 11.704a6 6 0 0 0-1.3-1.947l1.414-1.414a8 8 0 0 1 0 11.314l-1.414-1.414a6 6 0 0 0 1.3-6.539" />
  <path d="M18.457 11.704a6 6 0 0 1 1.3-1.947l-1.414-1.414a8 8 0 0 0 0 11.314l1.414-1.414a6 6 0 0 1-1.3-6.539" />
  <path d="M15.515 5.515a12 12 0 0 0 0 16.97L14.1 23.9a14 14 0 0 1 0-19.8z" />
  <path d="M24 16a2 2 0 1 0 0-4 2 2 0 0 0 0 4" />
</svg>
