<svg
  xmlns="http://www.w3.org/2000/svg"
  width="24"
  height="24"
  viewBox="0 0 24 24"
  fill="none"
  stroke="currentColor"
  stroke-width="2"
  stroke-linecap="round"
  stroke-linejoin="round"
>
  <path
    fill-rule="evenodd"
    d="M6 11a1 1 0 0 1 1-1h34a1 1 0 1 1 0 2H7a1 1 0 0 1-1-1"
    clip-rule="evenodd"
  />
  <path
    fill-rule="evenodd"
    d="M6 24a1 1 0 0 1 1-1h34a1 1 0 1 1 0 2H7a1 1 0 0 1-1-1"
    clip-rule="evenodd"
  />
  <path
    fill-rule="evenodd"
    d="M6 37a1 1 0 0 1 1-1h34a1 1 0 1 1 0 2H7a1 1 0 0 1-1-1"
    clip-rule="evenodd"
  />
</svg>
