<svg
  xmlns="http://www.w3.org/2000/svg"
  width="24"
  height="24"
  viewBox="0 0 24 24"
  fill="none"
  stroke="currentColor"
  stroke-width="2"
  stroke-linecap="round"
  stroke-linejoin="round"
>
  <path d="M23 22.922c0-.526.474-.922 1-.922s1 .396 1 .922V41a1 1 0 1 1-2 0z" />
  <path
    fill-rule="evenodd"
    d="M20 16a4 4 0 0 1 3-3.874V7a1 1 0 1 1 2 0v5.126A4.002 4.002 0 0 1 24 20a4 4 0 0 1-4-4m4 2a2 2 0 1 0 0-4 2 2 0 0 0 0 4"
    clip-rule="evenodd"
  />
  <path
    fill-rule="evenodd"
    d="M16 32a4 4 0 1 1-4.992-3.876A1 1 0 0 1 11 28V7a1 1 0 1 1 2 0v21q0 .063-.008.124A4 4 0 0 1 16 32m-2 0a2 2 0 1 1-4 0 2 2 0 0 1 4 0"
    clip-rule="evenodd"
  />
  <path d="M36 42a1 1 0 0 1-1-1v-7.078c0-.526.474-.922 1-.922s1 .396 1 .922V41a1 1 0 0 1-1 1" />
  <path
    fill-rule="evenodd"
    d="M36 6a1 1 0 0 0-1 1v16.126A4.002 4.002 0 0 0 36 31a4 4 0 0 0 1-7.874V7a1 1 0 0 0-1-1m0 19a2 2 0 1 0 0 4 2 2 0 0 0 0-4"
    clip-rule="evenodd"
  />
  <path d="M11 41a1 1 0 1 0 2 0v-2.078c0-.526-.474-.922-1-.922s-1 .396-1 .922z" />
</svg>
