<svg
  xmlns="http://www.w3.org/2000/svg"
  width="24"
  height="24"
  viewBox="0 0 24 24"
  fill="none"
  stroke="currentColor"
  stroke-width="2"
  stroke-linecap="round"
  stroke-linejoin="round"
>
  <path
    fill-rule="evenodd"
    d="M24 27a8 8 0 1 0 0-16 8 8 0 0 0 0 16m0-2a6 6 0 1 0 0-12 6 6 0 0 0 0 12"
    clip-rule="evenodd"
  />
  <path
    fill-rule="evenodd"
    d="M44 24c0 11.046-8.954 20-20 20S4 35.046 4 24 12.954 4 24 4s20 8.954 20 20M33.63 39.21A17.9 17.9 0 0 1 24 42a17.9 17.9 0 0 1-9.831-2.92q-.36-.45-.73-.93A2.14 2.14 0 0 1 13 36.845c0-1.077.774-1.98 1.809-2.131 6.845-1 11.558-.914 18.412.035A2.08 2.08 0 0 1 35 36.818c0 .48-.165.946-.463 1.31q-.461.561-.907 1.082m3.355-2.744c-.16-1.872-1.581-3.434-3.49-3.698-7.016-.971-11.92-1.064-18.975-.033-1.92.28-3.335 1.856-3.503 3.733A17.94 17.94 0 0 1 6 24c0-9.941 8.059-18 18-18s18 8.059 18 18a17.94 17.94 0 0 1-5.015 12.466"
    clip-rule="evenodd"
  />
</svg>
