<svg
  xmlns="http://www.w3.org/2000/svg"
  width="24"
  height="24"
  viewBox="0 0 24 24"
  fill="none"
  stroke="currentColor"
  stroke-width="2"
  stroke-linecap="round"
  stroke-linejoin="round"
>
  <path
    fill-rule="evenodd"
    d="M8.978 8.354a49.1 49.1 0 0 1 30.045.002c2.483.799 3.58 3.548 2.644 5.875l-6.362 15.81-.07.174c-.227.57-.48 1.206-.868 1.693-.503.634-1.184.986-2.112 1.086a1 1 0 1 1-.214-1.988c.476-.052.637-.187.76-.342.197-.247.343-.61.631-1.327l6.38-15.853c.542-1.35-.123-2.813-1.401-3.224a47.1 47.1 0 0 0-28.821-.002c-1.278.411-1.944 1.874-1.401 3.224l6.38 15.862c.286.712.431 1.072.626 1.319.123.155.283.29.76.341a1 1 0 1 1-.217 1.989c-.927-.101-1.607-.454-2.11-1.088-.385-.486-.638-1.12-.865-1.69l-.07-.176-6.36-15.81c-.936-2.328.162-5.077 2.645-5.875m9.664 3.712A14 14 0 0 1 33.9 15.1a1 1 0 0 1-1.415 1.415 12 12 0 0 0-16.97 0A1 1 0 0 1 14.1 15.1c1.3-1.3 2.844-2.33 4.542-3.034m-.632 4.927a10 10 0 0 1 12.008.02 1 1 0 0 1-1.204 1.598 8 8 0 0 0-9.606-.017 1 1 0 1 1-1.198-1.601m.99 6.07v1.808l.149-.057C20.253 24.399 21.872 24 24 24s3.747.4 4.851.814l.149.057v-1.807a8 8 0 0 0-.851-.378C27.253 22.351 25.872 22 24 22s-3.253.35-4.149.686a8 8 0 0 0-.851.378m11-.563.6-.8a1 1 0 0 1 .4.8v4.289a5 5 0 0 1-.84 2.773l-.656.985A3 3 0 0 0 29 32.211v3.768a5 5 0 0 1-4 4.9V41a.992.992 0 0 0 1.499.853l2.118-1.257a4.394 4.394 0 0 1 5.986 1.475l.249.405a1 1 0 0 1-1.704 1.048l-.249-.404a2.394 2.394 0 0 0-3.261-.804l-2.118 1.257C25.525 44.757 23 43.32 23 41v-.121a5 5 0 0 1-4-4.9v-3.768a3 3 0 0 0-.504-1.664l-.656-.985A5 5 0 0 1 17 26.79V22.5a1 1 0 0 1 .4-.8l.6.8-.6-.8.003-.002.005-.004.01-.007a2 2 0 0 1 .127-.088c.08-.052.194-.123.34-.205a9 9 0 0 1 1.264-.58C20.253 20.399 21.872 20 24 20s3.747.4 4.851.814a9 9 0 0 1 1.264.58 6 6 0 0 1 .467.293l.01.007.005.004h.001l.002.002zm-1.012 4.558a8 8 0 0 0-.84-.372C27.254 26.351 25.873 26 24 26s-3.253.35-4.149.686a8 8 0 0 0-.839.372c.045.497.213.977.492 1.395l.656.985A5 5 0 0 1 21 32.21v3.768a3 3 0 1 0 6 0v-3.768a5 5 0 0 1 .84-2.773l.656-.985a3 3 0 0 0 .492-1.395M24 31a1 1 0 0 1 1 1v4a1 1 0 1 1-2 0v-4a1 1 0 0 1 1-1"
    clip-rule="evenodd"
  />
</svg>
