<svg
  xmlns="http://www.w3.org/2000/svg"
  width="24"
  height="24"
  viewBox="0 0 24 24"
  fill="none"
  stroke="currentColor"
  stroke-width="2"
  stroke-linecap="round"
  stroke-linejoin="round"
>
  <path
    fill-rule="evenodd"
    d="M24 4a1 1 0 0 1 1 1v1.016c9.157.501 16.494 7.838 16.995 16.995.016.293-.34.343-.558.147a7.18 7.18 0 0 0-4.822-1.85 7.2 7.2 0 0 0-5.433 2.47.66.66 0 0 1-.497.233.66.66 0 0 1-.453-.187A8.98 8.98 0 0 0 25 21.364V39.5a2.5 2.5 0 0 0 5 0V38a1 1 0 0 1 2 0v1.5a4.5 4.5 0 1 1-9 0V21.36a8.98 8.98 0 0 0-5.272 2.474.62.62 0 0 1-.429.177.63.63 0 0 1-.47-.22 7.2 7.2 0 0 0-5.444-2.483c-1.854 0-3.545.7-4.822 1.85-.218.196-.574.146-.557-.147.5-9.157 7.837-16.494 16.994-16.995V5a1 1 0 0 1 1-1"
    clip-rule="evenodd"
  />
</svg>
