<svg
  xmlns="http://www.w3.org/2000/svg"
  width="24"
  height="24"
  viewBox="0 0 24 24"
  fill="none"
  stroke="currentColor"
  stroke-width="2"
  stroke-linecap="round"
  stroke-linejoin="round"
>
  <path d="M40.5 9a1.5 1.5 0 1 0 0-3 1.5 1.5 0 0 0 0 3" />
  <path d="M40.5 14a1.5 1.5 0 1 0 0-3 1.5 1.5 0 0 0 0 3" />
  <path d="M42 17.5a1.5 1.5 0 1 1-3 0 1.5 1.5 0 0 1 3 0" />
  <path d="M40.5 22.35a1 1 0 1 0 0-2 1 1 0 0 0 0 2" />
  <path d="M36.687 7.922a1.5 1.5 0 1 1-2.97.42 1.5 1.5 0 0 1 2.97-.42" />
  <path d="M36.113 14.568a1.5 1.5 0 1 0-.42-2.97 1.5 1.5 0 0 0 .42 2.97" />
  <path d="M38.089 17.824a1.5 1.5 0 1 1-2.97.42 1.5 1.5 0 0 1 2.97-.42" />
  <path d="M37.515 24.47a1.5 1.5 0 1 0-.42-2.97 1.5 1.5 0 0 0 .42 2.97" />
  <path d="M30.045 9.63a1.5 1.5 0 1 1-2.736 1.23 1.5 1.5 0 0 1 2.736-1.23" />
  <path d="M31.341 16.174a1.5 1.5 0 1 0-1.23-2.736 1.5 1.5 0 0 0 1.23 2.736" />
  <path d="M34.144 18.752a1.5 1.5 0 1 1-2.736 1.23 1.5 1.5 0 0 1 2.736-1.23" />
  <path d="M34.575 23.588a1 1 0 1 0-.82-1.824 1 1 0 0 0 .82 1.824" />
  <path
    fill-rule="evenodd"
    d="M23.025 12.91a1.5 1.5 0 0 1-.35 2.251l1.532 1.749a1.5 1.5 0 1 1 1.863 2.138q.7.806 1.41 1.624a1.5 1.5 0 1 1 1.87 2.163l1.392 1.616a1.5 1.5 0 1 1 1.872 2.178l.007.008a18 18 0 0 0-8.51 13.367C23.99 41.102 23.105 42 22.001 42H8c-1.105 0-2.007-.896-1.945-1.999a36 36 0 0 1 14.623-27.008q.099-.134.231-.248a1.5 1.5 0 0 1 2.115.166m2.07 8.83-.723.69a27 27 0 0 0-1.56 1.622l-.663.748-1.497-1.326.663-.748a29 29 0 0 1 1.676-1.742l.724-.69zm-4.452 5.069-.535.845a29.7 29.7 0 0 0-2.114 3.986l-.4.916-1.833-.8.4-.917a31.7 31.7 0 0 1 2.258-4.255l.534-.845zm-3.886 8.128-.262.965q-.296 1.087-.513 2.203l-.192.981-1.963-.383.192-.982q.231-1.186.546-2.343l.262-.965z"
    clip-rule="evenodd"
  />
  <path d="M27.562 13.691a.868.868 0 1 1-1.737 0 .868.868 0 0 1 1.737 0" />
  <path d="M29.287 18.902a.868.868 0 1 0 0-1.736.868.868 0 0 0 0 1.736" />
  <path d="M34.579 15.921a.868.868 0 1 1-1.736 0 .868.868 0 0 1 1.736 0" />
  <path d="M38.466 16a.868.868 0 1 0 0-1.736.868.868 0 0 0 0 1.736" />
  <path d="M33.578 11.36a.868.868 0 1 1-1.737 0 .868.868 0 0 1 1.737 0" />
  <path d="M38.132 11a.868.868 0 1 0 0-1.736.868.868 0 0 0 0 1.736" />
</svg>
