<svg
  xmlns="http://www.w3.org/2000/svg"
  width="24"
  height="24"
  viewBox="0 0 24 24"
  fill="none"
  stroke="currentColor"
  stroke-width="2"
  stroke-linecap="round"
  stroke-linejoin="round"
>
  <path d="M35.434 6h1.86c3.127 7.848 4.714 14.106 4.706 19.852-.008 5.614-1.538 10.66-4.504 16.148h-1.982c3.192-5.658 4.764-10.635 4.772-16.151C40.293 20.288 38.71 14.09 35.434 6" />
  <path d="M10.705 6h1.86c-3.277 8.09-4.858 14.288-4.85 19.849.007 5.516 1.579 10.493 4.771 16.151h-1.982C7.538 36.511 6.008 31.466 6 25.852 5.992 20.106 7.579 13.848 10.705 6" />
  <path d="M23.143 31.546V42h1.714V31.546l7.022-7.373-1.212-1.273-6.667 7-6.667-7-1.212 1.273z" />
  <path d="M23 26v3a1 1 0 1 0 2 0v-3a1 1 0 0 0-2 0" />
</svg>
