<svg
  xmlns="http://www.w3.org/2000/svg"
  width="24"
  height="24"
  viewBox="0 0 24 24"
  fill="none"
  stroke="currentColor"
  stroke-width="2"
  stroke-linecap="round"
  stroke-linejoin="round"
>
  <path
    fill-rule="evenodd"
    d="M23.176 6H24v16.5c0 1.398.564 1.942 1.004 2.199q.062.036.125.067a38 38 0 0 0 .01-1.712c-.01-.925-.022-2.087.067-3.29a10 10 0 0 0 1.928 2.506q.001.368.005.715.005.414.005.79c0 .838-.033 1.724-.068 2.653-.058 1.563-.12 3.248-.038 5.034.063 1.353.21 2.594.484 3.633.278 1.054.649 1.75 1.051 2.163 1.182 1.216 3.049 2.197 4.946 2.576 1.863.372 3.333.096 4.19-.564l.01-.023c.054-.14.121-.385.176-.758.11-.749.138-1.793.064-3.08-.147-2.562-.682-5.81-1.527-9.007a51 51 0 0 0-.45-1.598 10 10 0 0 0 1.91-.59c2.12 7.062 2.846 15.099 1.222 16.49-2.994 2.566-8.98 1.027-11.974-2.051-2.29-2.355-2.223-7.69-2.082-11.79a4.3 4.3 0 0 1-1.062-.437 3.8 3.8 0 0 1-.996-.834c-.297.352-.64.626-.996.834-.377.22-.748.354-1.062.437.141 4.1.208 9.435-2.082 11.79-2.993 3.078-8.98 4.617-11.974 2.052S8.882 13 15.866 13c5.1 0 5.03 6.643 4.995 10.054q-.004.391-.005.72 0 .463.015.992.063-.03.125-.067c.44-.257 1.004-.801 1.004-2.199V6h1.176m-7.31 9c.843 0 1.308.269 1.64.622.394.418.732 1.102.97 2.083.417 1.714.4 3.688.385 5.28q-.004.415-.005.79c0 .838.033 1.724.068 2.653.058 1.563.12 3.248.038 5.034-.062 1.353-.21 2.594-.484 3.633-.278 1.054-.649 1.75-1.051 2.163-1.182 1.216-3.048 2.197-4.946 2.576-1.863.372-3.333.096-4.19-.564l-.01-.023a3.7 3.7 0 0 1-.176-.758c-.11-.749-.138-1.793-.064-3.08.147-2.562.682-5.81 1.527-9.007.849-3.21 1.977-6.242 3.254-8.423.64-1.093 1.266-1.885 1.84-2.382.57-.494.965-.597 1.205-.597m-7.55 24.327.004.005v-.001zm29.367 0-.003.005.001-.002z"
    clip-rule="evenodd"
  />
  <path
    fill-rule="evenodd"
    d="M31.243 10.828A5 5 0 0 1 33 10.1V9a1 1 0 1 1 0-2h2a1 1 0 1 1 0 2v1.1c.638.13 1.233.38 1.757.728l.829-.828A1 1 0 0 1 39 8.586L40.414 10A1 1 0 1 1 39 11.414l-.828.829c.347.524.598 1.119.728 1.757H40a1 1 0 1 1 2 0v2a1 1 0 1 1-2 0h-1.1a5 5 0 0 1-.728 1.757l.828.829A1 1 0 1 1 40.414 20L39 21.414A1 1 0 0 1 37.586 20l-.829-.828A5 5 0 0 1 35 19.9V21a1 1 0 1 1 0 2h-2a1 1 0 1 1 0-2v-1.1a5 5 0 0 1-1.757-.728l-.829.828A1 1 0 0 1 29 21.414L27.586 20A1 1 0 0 1 29 18.586l.828-.829A5 5 0 0 1 29.1 16H28a1 1 0 1 1-2 0v-2a1 1 0 1 1 2 0h1.1c.13-.638.38-1.233.728-1.757L29 11.414A1 1 0 0 1 27.586 10l.698-.698.009-.01.01-.008.697-.698A1 1 0 0 1 30.414 10zM31 15a3 3 0 1 1 6 0 3 3 0 0 1-6 0"
    clip-rule="evenodd"
  />
</svg>
