<svg
  xmlns="http://www.w3.org/2000/svg"
  width="24"
  height="24"
  viewBox="0 0 24 24"
  fill="none"
  stroke="currentColor"
  stroke-width="2"
  stroke-linecap="round"
  stroke-linejoin="round"
>
  <path
    fill-rule="evenodd"
    d="M24 11c0 3.867-3.133 7-7 7s-7-3.133-7-7 3.133-7 7-7 7 3.133 7 7M4 25.4c0-4.256 8.661-6.4 13-6.4 2.696 0 7.06.828 9.98 2.475A13.01 13.01 0 0 0 20.152 31H4zM30 23a1 1 0 0 1 1-1h4a1 1 0 1 1 0 2h-1v2.07a6.97 6.97 0 0 1 3.192 1.324L38.586 26l-.293-.293a1 1 0 0 1 1.414-1.414l2 2a1 1 0 0 1-1.414 1.414L40 27.414l-1.394 1.394A6.97 6.97 0 0 1 39.93 32H42v-1a1 1 0 1 1 2 0v4a1 1 0 1 1-2 0v-1h-2.07a7 7 0 0 1-.922 2.594L41 38.586l.293-.293a1 1 0 0 1 1.414 1.414l-2 2a1 1 0 0 1-1.414-1.414l.293-.293-1.848-1.847A6.98 6.98 0 0 1 34 39.929V42h1a1 1 0 1 1 0 2h-4a1 1 0 1 1 0-2h1v-2.07a6.97 6.97 0 0 1-3.192-1.324L27.414 40l.293.293a1 1 0 0 1-1.414 1.414l-2-2a1 1 0 0 1 1.414-1.414l.293.293 1.394-1.394A6.97 6.97 0 0 1 26.07 34H24v1a1 1 0 1 1-2 0v-4a1 1 0 1 1 2 0v1h2.07a6.97 6.97 0 0 1 1.324-3.192L26 27.414l-.293.293a1 1 0 0 1-1.414-1.414l2-2a1 1 0 0 1 1.414 1.414l-.293.293 1.394 1.394A6.97 6.97 0 0 1 32 26.07V24h-1a1 1 0 0 1-1-1"
    clip-rule="evenodd"
  />
</svg>
