<svg
  xmlns="http://www.w3.org/2000/svg"
  width="24"
  height="24"
  viewBox="0 0 24 24"
  fill="none"
  stroke="currentColor"
  stroke-width="2"
  stroke-linecap="round"
  stroke-linejoin="round"
>
  <path d="m24.86 10.832-1.6 1.6-4.242-4.243 1.6-1.6a2 2 0 0 1 2.828 0l1.414 1.415a2 2 0 0 1 0 2.828" />
  <path d="M14.374 9.418h3.044l4.613 4.613v3.044a2 2 0 0 1-.586 1.414l-5.778 5.778a4 4 0 0 1-5.657 0L7.182 21.44a4 4 0 0 1 0-5.657l5.778-5.778a2 2 0 0 1 1.414-.586" />
  <path d="m31.385 11.75.118-.12.458.468z" />
  <path d="m31.963 12.1-.46-.47a4.39 4.39 0 0 1 6.05-.095 4.36 4.36 0 0 1 .804 5.413 5.46 5.46 0 0 1-.995 6.473 5.52 5.52 0 0 1-6.509.905 4.4 4.4 0 0 1-2.792.53 4.4 4.4 0 0 1-3.002-1.865 4.36 4.36 0 0 1 .661-5.674l-2.091-3.504 1.717-1.025 2.56 4.288a1 1 0 0 1-.378 1.389 2.38 2.38 0 0 0-1.163 1.52 2.35 2.35 0 0 0 .345 1.878 2.37 2.37 0 0 0 1.633 1.013 2.4 2.4 0 0 0 1.855-.518 1 1 0 0 1 1.224-.035 3.52 3.52 0 0 0 4.538-.329 3.466 3.466 0 0 0 .388-4.498 1 1 0 0 1 .05-1.231 2.355 2.355 0 0 0-.201-3.259 2.39 2.39 0 0 0-3.294.052v.001q-.232.227-.392.508a1 1 0 0 1-1.388.362l-4.28-2.591 1.036-1.711 4.25 2.642.03-.05z" />
  <path d="M21.062 28a7.97 7.97 0 0 1 2.03-4.394q.145.263.315.513a6.38 6.38 0 0 0 4.373 2.717 6.4 6.4 0 0 0 3.073-.316 7.52 7.52 0 0 0 5.698-.168c.185.526.316 1.078.387 1.648H40v-.2a1 1 0 0 1 2 0v2.4a1 1 0 0 1-2 0V30h-3.062a7.96 7.96 0 0 1-1.618 3.906l1.88 1.88.493-.493a1 1 0 0 1 1.414 1.414l-2.4 2.4a1 1 0 0 1-1.414-1.414l.493-.493-1.88-1.88A7.96 7.96 0 0 1 30 36.938V40h.2a1 1 0 0 1 0 2h-2.4a1 1 0 0 1 0-2h.2v-3.062a7.97 7.97 0 0 1-4.127-1.797L21.714 37.3l.393.393a1 1 0 0 1-1.414 1.414l-2.4-2.4a1 1 0 0 1 1.414-1.414l.593.593 2.209-2.209A7.96 7.96 0 0 1 21.062 30H18v.2a1 1 0 0 1-2 0v-2.4a1 1 0 0 1 2 0v.2z" />
  <path d="M11 32a1 1 0 0 1 1 1v1.17q.15.054.293.122l.828-.828a1 1 0 0 1 1.414 1.415l-.827.828q.068.143.121.293H15a1 1 0 1 1 0 2h-1.17q-.054.15-.122.293l.828.828a1 1 0 0 1-1.415 1.414l-.828-.827a3 3 0 0 1-.293.121V41a1 1 0 1 1-2 0v-1.17a3 3 0 0 1-.293-.121l-.828.828a1 1 0 0 1-1.414-1.415l.827-.828A3 3 0 0 1 8.171 38H7a1 1 0 1 1 0-2h1.17q.054-.15.122-.294l-.827-.827a1 1 0 1 1 1.414-1.415l.828.828q.143-.068.293-.121V33a1 1 0 0 1 1-1" />
</svg>
