<svg
  xmlns="http://www.w3.org/2000/svg"
  width="24"
  height="24"
  viewBox="0 0 24 24"
  fill="none"
  stroke="currentColor"
  stroke-width="2"
  stroke-linecap="round"
  stroke-linejoin="round"
>
  <path
    fill-rule="evenodd"
    d="M26.5 15a4.5 4.5 0 1 0 0-9 4.5 4.5 0 0 0 0 9m0-2a2.5 2.5 0 1 0 0-5 2.5 2.5 0 0 0 0 5"
    clip-rule="evenodd"
  />
  <path d="M29.059 19.107c.584 0 1.058-.472 1.058-1.054 0-.581-.474-1.053-1.058-1.053S28 17.472 28 18.053c0 .582.474 1.054 1.059 1.054" />
  <path d="M34.5 42c4.142 0 7.5-1.12 7.5-2.5 0-.958-1.618-1.79-3.993-2.21.108-.214.169-.455.169-.71 0-.873-.711-1.58-1.588-1.58a1.584 1.584 0 0 0-1.53 2.007Q34.783 37 34.5 37c-4.142 0-7.5 1.12-7.5 2.5s3.358 2.5 7.5 2.5" />
  <path d="M33.176 23.58c0 .873-.711 1.58-1.588 1.58A1.584 1.584 0 0 1 30 23.58c0-.873.71-1.58 1.588-1.58.877 0 1.588.707 1.588 1.58" />
  <path d="M36.059 30.107c.584 0 1.058-.472 1.058-1.054 0-.581-.474-1.053-1.058-1.053S35 28.472 35 29.053c0 .582.474 1.054 1.059 1.054" />
  <path d="M32.117 32.053c0 .582-.474 1.054-1.058 1.054A1.056 1.056 0 0 1 30 32.053c0-.581.474-1.053 1.059-1.053.584 0 1.058.472 1.058 1.053" />
  <path
    fill-rule="evenodd"
    d="M21.609 14.436a3 3 0 0 0-1.857-3.082 1 1 0 0 0-.201-.074l-.074-.024a5 5 0 0 0-.375-.101 6 6 0 0 0-1.096-.148c-.886-.04-2.011.082-3.286.584-2.557 1.006-5.372 3.387-8.14 8.18-.58 1.007-.633 2.049-.548 2.828.085.78.328 1.506.585 2.112.513 1.209 1.296 2.418 2.016 3.414a39 39 0 0 0 2.339 2.905l.449 8.135a3 3 0 1 0 5.99-.33l-.507-9.198a3 3 0 0 0-.822-1.903l-.006-.006-.003-.003-.04-.042-.166-.18a36 36 0 0 1-2.372-2.894 22 22 0 0 1-.302-.427q.714-.9 1.576-1.756l-.05.5a3 3 0 0 0 .77 2.328l4.38 4.788a3 3 0 1 0 4.428-4.05l-3.474-3.797zm-6.157-.984c1-.393 1.842-.476 2.461-.447.308.015.557.056.74.098a3 3 0 0 1 .261.073 1 1 0 0 0 .149.06 1 1 0 0 1 .556.999l-.83 8.204a1 1 0 0 0 .256.776l3.776 4.127a1 1 0 0 1-1.476 1.35l-4.38-4.788a1 1 0 0 1-.257-.776l.307-3.025a1 1 0 0 0-1.61-.89 22.2 22.2 0 0 0-4.242 4.331 1 1 0 0 0-.042 1.128c.229.363.483.735.753 1.109a37.934 37.934 0 0 0 2.698 3.267l.045.048.002.003.011.011.002.001v.002a1 1 0 0 1 .275.634l.508 9.198a1 1 0 1 1-1.997.11l-.469-8.484a1 1 0 0 0-.254-.613 40 40 0 0 1-2.441-3.005c-.688-.95-1.37-2.018-1.796-3.024-.214-.502-.381-1.03-.438-1.547s-.007-1.091.292-1.61c2.627-4.55 5.14-6.533 7.14-7.32"
    clip-rule="evenodd"
  />
</svg>
