<svg
  xmlns="http://www.w3.org/2000/svg"
  width="24"
  height="24"
  viewBox="0 0 24 24"
  fill="none"
  stroke="currentColor"
  stroke-width="2"
  stroke-linecap="round"
  stroke-linejoin="round"
>
  <path
    fill-rule="evenodd"
    d="m35.5 8 .8-.6.004.006.01.014.04.053a38 38 0 0 1 .668.93 52 52 0 0 1 1.578 2.382c.573.924 1.159 1.947 1.605 2.913.428.929.795 1.943.795 2.802 0 3.052-2.448 5.5-5.5 5.5a5.48 5.48 0 0 1-5.5-5.5c0-.859.367-1.873.795-2.802.446-.966 1.032-1.99 1.605-2.913a52 52 0 0 1 2.246-3.312l.04-.053.01-.014.004-.006zm-1.4 3.84c.5-.806 1.001-1.55 1.4-2.124.399.574.9 1.318 1.4 2.124.552.889 1.091 1.835 1.489 2.696.415.9.611 1.573.611 1.964 0 1.948-1.552 3.5-3.5 3.5a3.48 3.48 0 0 1-3.5-3.5c0-.391.196-1.064.611-1.964.398-.861.937-1.807 1.489-2.696"
    clip-rule="evenodd"
  />
  <path d="m35.5 8 .8-.6-.8-1.067-.8 1.067z" />
  <path
    fill-rule="evenodd"
    d="m23.811 14.415-.798-1.095L22.2 14.4l-.003.004-.008.01-.027.037-.1.136a32.832 32.832 0 0 0-1.415 2.109c-.387.629-.786 1.337-1.092 2.018-.291.65-.556 1.4-.556 2.073C19 23.072 20.704 25 23 25s4-1.928 4-4.214c0-.65-.271-1.389-.558-2.022a20 20 0 0 0-1.087-2.016 37 37 0 0 0-1.51-2.285l-.027-.038zM23 15l-.799-.601zm-.01 1.75c-.2.298-.42.635-.638.991a16 16 0 0 0-.97 1.79c-.272.605-.382 1.028-.382 1.255 0 1.313.936 2.214 2 2.214s2-.9 2-2.214c0-.187-.104-.588-.38-1.197-.258-.57-.61-1.203-.975-1.805-.225-.37-.45-.723-.655-1.034"
    clip-rule="evenodd"
  />
  <path
    fill-rule="evenodd"
    d="M13 39.75v.246a2 2 0 0 1-2 2H8a2 2 0 0 1-2-2V29.001a2 2 0 0 1 2-2h3a2 2 0 0 1 1.947 1.539c1.324-.477 2.871-1.045 3.344-1.261.402-.183.866-.245 1.252-.268a9 9 0 0 1 1.195.021 15 15 0 0 1 1.328.168l.023.004.007.001h.003l.018.004 6.69 1.5.041.014.011.004.046.014.189.054c.165.046.402.107.685.169.575.125 1.3.242 1.975.242.624 0 1.27.233 1.614.865.296.542.227 1.138.117 1.55-.139.514-.425 1.054-.788 1.513.49-.185 1.027-.404 1.603-.64l.123-.05c1.623-.667 3.547-1.457 5.245-1.737 1.94-.321 3.351.383 3.991 1.632.57 1.112.438 2.571-.42 3.45-.215.221-.543.453-.872.666-.352.229-.785.486-1.266.76a86 86 0 0 1-3.355 1.782c-2.372 1.203-4.858 2.373-5.648 2.662-.916.335-1.9.367-2.845.318a38 38 0 0 1-1.709-.145c-.43-.043-.857-.085-1.25-.115-1.928-.146-3.408-.617-4.77-1.05l-.166-.053c-1.408-.446-2.718-.843-4.453-.913-.396-.016-1.188.014-1.905.048m4.12-10.651c.065-.03.235-.073.538-.091.284-.017.608-.006.925.018a13 13 0 0 1 1.132.143h.003l6.567 1.473.045.014q.083.026.23.066c.194.054.468.125.793.196.585.128 1.37.262 2.168.285a2.4 2.4 0 0 1-.284.543c-.16.232-.335.411-.479.514-.416.298-.752.422-.956.475a1.3 1.3 0 0 1-.212.04h-.022l-5.362-.064-.19 1.984.178-.984-.178.984.053.01.153.027.556.098c.467.082 1.108.192 1.806.306 1.374.224 3.03.472 3.97.529.65.04 1.406-.16 2.109-.395.733-.245 1.562-.584 2.396-.926 1.717-.704 3.466-1.421 4.935-1.664 1.27-.21 1.723.254 1.885.571.233.455.107.96-.072 1.142-.043.045-.2.172-.528.385-.306.197-.701.434-1.165.697a84 84 0 0 1-3.272 1.738c-2.392 1.213-4.772 2.326-5.432 2.568-.534.196-1.195.243-2.054.199-.508-.026-.99-.075-1.515-.129a52 52 0 0 0-1.396-.128c-1.692-.128-2.978-.537-4.357-.975l-.125-.04c-1.428-.453-2.956-.924-4.977-1.005-.455-.018-1.265.01-1.986.044v-7.101c1.406-.503 3.487-1.258 4.12-1.547m2.796-.91.183-.983zM11 29H8v10.995h3z"
    clip-rule="evenodd"
  />
</svg>
