<svg
  xmlns="http://www.w3.org/2000/svg"
  width="24"
  height="24"
  viewBox="0 0 24 24"
  fill="none"
  stroke="currentColor"
  stroke-width="2"
  stroke-linecap="round"
  stroke-linejoin="round"
>
  <path d="M30.5 9.5a3.5 3.5 0 1 1-7 0 3.5 3.5 0 0 1 7 0" />
  <path d="m24.63 32.373 1.364-.098Q26 32.138 26 32a6 6 0 0 0-8.482-5.464c.043 1.15.162 2.076.34 2.57 1.364 3.791 6.772 3.267 6.772 3.267" />
  <path
    fill-rule="evenodd"
    d="M38.339 37.403c.9 2.074-2.202 3.624-3.433 1.764-1.232-1.86-4.286-7.224-4.286-7.224l-.62.045V32c0 5.523-4.477 10-10 10s-10-4.477-10-10c0-4.291 2.703-7.952 6.5-9.37v-5.88l-2.6-1.95 1.2-1.6 3.4 2.55v2.198c.252-.785.557-1.465.92-1.978 2.06-2.909 2.463-3.123 4.736-2.909s6.109 7.796 6.109 7.796 4.83 1.145 6.677 1.788c1.847.644.686 3.171-.498 3.124-1.183-.048-7.671-.692-8.547-1.192-.876-.501-2.344-2.91-2.344-2.91l-.144 1.92a10.1 10.1 0 0 1 2.844 2.765c1.803.157 3.851.322 4.45.322 1.137 0 1.397.787 1.397.787s3.339 7.868 4.239 9.942M25.397 26.095q-.081-.076-.166-.148A7.97 7.97 0 0 0 20 24c-.865 0-1.698.137-2.478.391a8 8 0 1 0 7.876 1.704"
    clip-rule="evenodd"
  />
</svg>
