<svg
  xmlns="http://www.w3.org/2000/svg"
  width="24"
  height="24"
  viewBox="0 0 24 24"
  fill="none"
  stroke="currentColor"
  stroke-width="2"
  stroke-linecap="round"
  stroke-linejoin="round"
>
  <path
    fill-rule="evenodd"
    d="M28 20.5a2.5 2.5 0 1 1 5 0 2.5 2.5 0 0 1-5 0m2.5-.5a.5.5 0 1 0 0 1 .5.5 0 0 0 0-1"
    clip-rule="evenodd"
  />
  <path d="M15.807 22.233c-.683-.438-1.183-1.145-1.064-1.883a.5.5 0 0 1 .668-.389c1.818.675 3.846.256 5.642-1.448a.5.5 0 0 1 .818.203c.232.689.024 1.618-.48 2.381a3.8 3.8 0 0 1-2.654 1.666c-1.198.177-2.216-.073-2.93-.53" />
  <path d="m16.592 31.381.002-.001.028-.017.123-.07a6.998 6.998 0 0 1 2.209-.76c1.327-.21 2.92-.015 4.28 1.609 1.924 2.3 4.302 2.588 6.125 2.3a9 9 0 0 0 3.04-1.085l.022-.013.031-.02.016-.01.006-.003.002-.001.002-.001a1 1 0 0 0-.416-1.837l-7.564-.919c-1.874-2.02-4.118-2.27-5.857-1.995a9 9 0 0 0-3.04 1.085l-.031.019-.022.013-.016.01-.006.004-.002.001-.002.001a1 1 0 0 0 1.07 1.69" />
  <path
    fill-rule="evenodd"
    d="M24 42c9.941 0 18-8.059 18-18S33.941 6 24 6 6 14.059 6 24s8.059 18 18 18m0-2c8.837 0 16-7.163 16-16S32.837 8 24 8 8 15.163 8 24s7.163 16 16 16"
    clip-rule="evenodd"
  />
</svg>
