<svg
  xmlns="http://www.w3.org/2000/svg"
  width="24"
  height="24"
  viewBox="0 0 24 24"
  fill="none"
  stroke="currentColor"
  stroke-width="2"
  stroke-linecap="round"
  stroke-linejoin="round"
>
  <path
    fill-rule="evenodd"
    d="M23.952 26h.08c5.523 0 10-4.477 10-10s-4.477-10-10-10h-.08c-5.486.043-9.92 4.504-9.92 10s4.434 9.957 9.92 10m8.018-9h-2c-.054.913-.182 1.79-.374 2.615h1.574a8 8 0 0 0 .8-2.615m-2.24 4.615h-.765q-.222.544-.484 1.035a8 8 0 0 0 1.25-1.035m-2.197-2c.218-.797.37-1.676.433-2.615h-2.934v2.615zm-2.501 2h1.734q-.115.222-.238.427c-.5.831-1.017 1.345-1.496 1.636zm-2-2V17h-2.998c.063.939.215 1.818.433 2.615zm-1.798 2h1.798v2.1c-.496-.283-1.038-.804-1.56-1.673a8 8 0 0 1-.238-.427m-2.83-2A15.7 15.7 0 0 1 18.03 17h-1.936c.116.93.392 1.812.8 2.615zm-.07 2h.7q.207.507.449.966a8 8 0 0 1-1.15-.966M29.97 15a15.7 15.7 0 0 0-.374-2.615h1.574c.408.803.684 1.684.8 2.615zm-.24-4.615h-.765q-.222-.544-.484-1.035.678.456 1.25 1.035m-4.698 0h1.734a8 8 0 0 0-.238-.427c-.5-.832-1.017-1.345-1.496-1.636zm2.501 2h-2.501V15h2.934a13.4 13.4 0 0 0-.433-2.615m-4.501-4.1v2.1h-1.798q.116-.222.238-.427c.521-.869 1.064-1.39 1.56-1.674m0 4.1h-2.565c-.218.797-.37 1.676-.433 2.615h2.998zm-3.55-2.966q-.24.459-.447.966h-.701q.528-.536 1.149-.966m-1.078 2.966h-1.51a8 8 0 0 0-.8 2.615h1.936c.054-.914.182-1.79.374-2.615"
    clip-rule="evenodd"
  />
  <path
    fill-rule="evenodd"
    d="M8.73 17c-1.038-.024-2.08.613-2.417 1.605-.084.248-.13.572-.163.867-.035.322-.062.709-.083 1.13A67 67 0 0 0 6 23.496c-.008 2.018.043 4.118.116 4.769.128 1.14.784 2.202 1.354 3.126l.064.103c.173.28.344.559.512.846.754 1.291 1.574 2.161 2.317 2.95l.017.017c.418.443.805.855 1.17 1.314A2 2 0 0 0 11 38v2a2 2 0 0 0 2 2h8a2 2 0 0 0 2-2v-2a2 2 0 0 0-1.86-1.995c-.135-1.136-.31-2.67-.326-3.107-.014-.376-.14-.743-.258-1.022a7 7 0 0 0-.426-.836 12 12 0 0 0-.528-.817l-.039-.054-.01-.015-.004-.005-.002-.003-.01-.014-3.244-4.09-.03-.03v-.002l-.004-.004-.024-.026-.095-.107a10 10 0 0 1-.334-.403 7.3 7.3 0 0 1-.797-1.23c-.228-.468-.66-.917-1.323-.95-.565-.03-1.008.27-1.266.501a3 3 0 0 0-.387.422l-.045-.602-.005-.066c-.098-1.318-.217-2.913-.604-4.19-.454-1.494-1.463-2.326-2.65-2.354m10.012 13.74.805-.594zm.383 5.26c-.13-1.1-.292-2.537-.31-3.029 0-.003-.003-.031-.019-.087a2 2 0 0 0-.083-.233 5 5 0 0 0-.309-.6 9 9 0 0 0-.433-.67l-.026-.037-3.168-3.994-.018-.02-.124-.14a12 12 0 0 1-.403-.487 10 10 0 0 1-.741-1.072l-.007.011c-.09.167-.14.32-.155.42-.055.354-.027.598.001.73a1 1 0 0 0 .035.124v.003l1.832 3.638-1.701 1.039-.025-.034-.069-.095a123 123 0 0 1-1.06-1.485c-.607-.864-1.333-1.924-1.691-2.56-.268-.475-.392-1.104-.471-1.673a33 33 0 0 1-.185-1.968l-.002-.022c-.104-1.398-.212-2.78-.528-3.823-.138-.455-.316-.684-.444-.795a.52.52 0 0 0-.338-.14c-.273-.007-.454.182-.477.25-.002.006-.011.04-.024.114a5 5 0 0 0-.044.323c-.029.268-.054.612-.074 1.014a65 65 0 0 0-.063 2.802c-.009 2.039.046 4.022.104 4.538.072.645.474 1.334 1.132 2.403l.003.004c.17.276.353.573.534.883.633 1.084 1.315 1.811 2.062 2.603l.017.018c.556.59 1.16 1.23 1.73 2.047zM13.8 25.246q0-.001-.011.007zM21 40v-2h-8v2z"
    clip-rule="evenodd"
  />
  <path
    fill-rule="evenodd"
    d="M41.687 18.605c-.338-.992-1.379-1.629-2.417-1.604-1.186.028-2.195.86-2.649 2.354-.387 1.277-.506 2.872-.604 4.19l-.005.066-.045.602q-.18-.237-.387-.422c-.258-.23-.7-.53-1.266-.502-.663.034-1.095.483-1.323.95a7.3 7.3 0 0 1-.797 1.23 10 10 0 0 1-.43.511l-.023.026-.004.005-.03.031-3.243 4.09-.011.014-.002.003-.003.005-.011.015q-.015.019-.039.054a11 11 0 0 0-.528.817 7 7 0 0 0-.427.836c-.117.279-.243.646-.257 1.022-.016.437-.19 1.971-.326 3.107A2 2 0 0 0 25 38v2a2 2 0 0 0 2 2h8a2 2 0 0 0 2-2v-2c0-.535-.21-1.02-.551-1.38.366-.458.752-.87 1.17-1.313l.017-.018c.743-.788 1.563-1.658 2.317-2.949.168-.287.34-.565.512-.846l.064-.103c.57-.924 1.226-1.986 1.354-3.126.073-.651.124-2.751.116-4.769a67 67 0 0 0-.066-2.894 20 20 0 0 0-.083-1.13c-.032-.295-.078-.62-.163-.867M29.258 30.74l-.805-.593zM34.418 36c.57-.817 1.173-1.457 1.73-2.047l.016-.018c.747-.792 1.43-1.52 2.062-2.603.18-.31.363-.606.534-.883l.003-.005c.659-1.068 1.06-1.757 1.132-2.402.058-.516.112-2.499.104-4.538-.004-1.006-.023-2-.063-2.802-.02-.402-.045-.746-.074-1.014a5 5 0 0 0-.044-.323c-.013-.073-.022-.108-.024-.114-.023-.068-.204-.257-.476-.25a.52.52 0 0 0-.339.14c-.128.11-.306.34-.444.795-.316 1.042-.424 2.425-.528 3.823l-.002.022c-.05.684-.102 1.374-.185 1.968-.078.569-.203 1.198-.47 1.674-.359.635-1.085 1.695-1.692 2.56a124 124 0 0 1-1.06 1.484l-.07.095-.024.034-1.701-1.04 1.831-3.637.001-.003a1 1 0 0 0 .035-.124c.028-.132.056-.376.001-.73a1.4 1.4 0 0 0-.155-.42l-.007-.011c-.246.415-.517.787-.74 1.072a12 12 0 0 1-.528.627l-.019.02-3.167 3.994-.026.037-.107.153c-.09.133-.208.315-.326.517-.12.204-.23.413-.309.6q-.058.14-.083.232c-.016.057-.019.085-.019.088-.018.492-.18 1.93-.31 3.029zM34.2 25.246q0-.001.011.007zM27 40v-2h8v2z"
    clip-rule="evenodd"
  />
</svg>
