<svg
  xmlns="http://www.w3.org/2000/svg"
  width="24"
  height="24"
  viewBox="0 0 24 24"
  fill="none"
  stroke="currentColor"
  stroke-width="2"
  stroke-linecap="round"
  stroke-linejoin="round"
>
  <path
    fill-rule="evenodd"
    d="M28.5 8.5a4.5 4.5 0 1 1-9 0 4.5 4.5 0 0 1 9 0M30 34h-4.735l.743 8.181A2 2 0 0 0 30 42zm-7.265 0H18v8a2 2 0 0 0 3.992.181zm13.22-20h.091zm-24.001 0h.09z"
    clip-rule="evenodd"
  />
  <path
    fill-rule="evenodd"
    d="M11 15a1 1 0 0 0-1 1v15a1 1 0 0 0 1 1h26a1 1 0 0 0 1-1V16a1 1 0 0 0-1-1zm12 2v1.5h-.5c-.93 0-1.94.3-2.654.56a14 14 0 0 0-1.262.53l-.021.01-.007.004h-.002v.001L19 20.5l.447.895.002-.001.012-.006.057-.028q.077-.038.224-.102c.195-.087.47-.203.787-.318.662-.24 1.402-.44 1.971-.44h.5v2h-.8c-1.197 0-2.453.636-3.293 1.145a15 15 0 0 0-1.51 1.057l-.026.02-.007.006-.003.002v.001L18 25.5l.64.768.003-.002.015-.012.069-.056a12.459 12.459 0 0 1 1.216-.843c.81-.49 1.654-.855 2.257-.855h.8v2.168a6.3 6.3 0 0 0-1.92.934c-.4.286-.771.626-1.052.999-.269.356-.528.841-.528 1.399h2v.02-.003a.8.8 0 0 1 .125-.213c.13-.173.34-.377.62-.577.56-.402 1.243-.68 1.787-.727.462.012 1.116.265 1.692.684.283.205.502.42.64.604.101.134.128.21.135.23v.002l.002.002L26.5 30h2c0-.562-.268-1.055-.536-1.413a5 5 0 0 0-1.063-1.02A5.9 5.9 0 0 0 25 26.638V24.5h1.1c.749 0 1.519.366 2.163.819a7 7 0 0 1 .986.841l.008.01.743-.67.743-.67-.002-.001-.002-.003-.007-.008-.022-.023-.075-.079a9.053 9.053 0 0 0-1.223-1.035c-.78-.547-1.96-1.181-3.312-1.181H25v-2h.75c.694 0 1.37.201 1.893.422a6 6 0 0 1 .8.408l.003.002L29 20.5l.554-.832-.001-.001-.003-.002-.007-.005-.02-.013-.067-.042a8.163 8.163 0 0 0-1.037-.527c-.663-.28-1.613-.578-2.669-.578H25V17z"
    clip-rule="evenodd"
  />
</svg>
