<svg
  xmlns="http://www.w3.org/2000/svg"
  width="24"
  height="24"
  viewBox="0 0 24 24"
  fill="none"
  stroke="currentColor"
  stroke-width="2"
  stroke-linecap="round"
  stroke-linejoin="round"
>
  <path
    fill-rule="evenodd"
    d="M22 14a4 4 0 0 0-4 4v11.38L27.25 14.2A4 4 0 0 0 26 14zm7.96 3.436-9.814 16.11A4 4 0 0 0 22 34h4a4 4 0 0 0 4-4V18q0-.287-.04-.564M14 18a8 8 0 0 1 8-8h4c2.048 0 3.92.772 5.334 2.037A7.99 7.99 0 0 1 34 18v12a8 8 0 0 1-8 8h-4c-2.37 0-4.5-1.033-5.962-2.666A7.98 7.98 0 0 1 14 30z"
    clip-rule="evenodd"
  />
</svg>
